<?xml version="1.0" encoding="UTF-8"?><svg xmlns="http://www.w3.org/2000/svg" viewBox="0 0 512.73 171.64"><defs><style type="text/css">.cls-1{fill:#fff;}</style></defs><g id="Layer_2"><g id="Layer_1-2"><path class="cls-1" d="M413.36,21.26c2.44.24,4.7.62,6.59,2a12.19,12.19,0,0,1,3.92,4.48c.72,1.48,1.41,3,2,4.5a14,14,0,0,1,.62,2.51c.17,1,.27,1.94.39,2.91a1.67,1.67,0,0,1,0,.77c-.58,1.56,0,3,.26,4.54.07.46,0,.94.08,1.4.18,1.57.44,3.14.55,4.72a2.84,2.84,0,0,1-.42,1.83,2.44,2.44,0,0,0-.3,2.18,10.9,10.9,0,0,1,0,2.14c0,.35-.22.73-.15,1.05a28.07,28.07,0,0,1,.19,8.48c-.15,1.73.25,3.37.09,5.06-.05.56-.17,1.11-.22,1.67a3.83,3.83,0,0,0,0,1.22,10.54,10.54,0,0,1,0,4.15,17.5,17.5,0,0,0,.06,3.23c0,.61,0,1.22,0,1.84,0,1.07,0,2.14,0,3.21a5,5,0,0,1,.1.92c-.3,1.69.14,3.33.26,5,.11,1.35,0,2.74.07,4.12.05,1.9.06,3.81.22,5.7a57.6,57.6,0,0,1-.2,8.31,5,5,0,0,0,0,1.09,25.94,25.94,0,0,1-.38,8.48,50.14,50.14,0,0,1-1.67,6.34,19.92,19.92,0,0,1-1.28,3.46c-1.16,2.24-3.2,3.73-5.05,5.31-.93.79-2.37,1-3.54,1.5-1.94.87-3.92.39-5.75-.12a6.62,6.62,0,0,1-3.54-2.29,25.9,25.9,0,0,1-4.37-7.78c-.78-2.39-1.15-4.9-1.71-7.36a24.26,24.26,0,0,1-.55-6,9.57,9.57,0,0,0-.29-2,17.89,17.89,0,0,1,0-3.19c0-.77-.16-1.53-.25-2.3a1.46,1.46,0,0,1,0-.46c.62-1.84-.23-3.68,0-5.52,0-.35.13-.71.14-1.07,0-.55,0-1.1,0-1.65,0-1.19,0-2.38,0-3.56s0-2.45,0-3.67c0-.15-.13-.33-.08-.45.67-1.76.15-3.51.06-5.28s.2-3.81.2-5.72-.2-3.92-.23-5.88c0-1,.21-1.94.23-2.91,0-.61-.16-1.22-.2-1.83,0-.35.06-.71.06-1.06,0-.92,0-1.84,0-2.76a5.2,5.2,0,0,1-.12-1.22c.41-1.69-.15-3.38,0-5,.18-1.85-.06-3.68,0-5.52,0-.56.15-1.12.19-1.68s0-.92,0-1.38c0-1.33,0-2.65,0-4,0-.62.08-1.24.08-1.86a27,27,0,0,1,.87-8c.75-2.49,1.48-5.08,3.1-7.18s3.69-4.2,6.59-4.82C411.16,21.6,412.33,21.43,413.36,21.26Zm-.6,106.47a7.19,7.19,0,0,0,5.35-5.8,7.7,7.7,0,0,1,.25-1.37,25.53,25.53,0,0,0,1.23-7.58,141.94,141.94,0,0,0-.24-17.62c-.21-2.21-.25-4.43-.32-6.64,0-1.4,0-2.79,0-4.19-.05-2.37-.19-4.74-.18-7.11s.14-5,.18-7.44c0-2.13.05-4.27,0-6.4s.29-4.19,0-6.3c-.17-1.47,0-3,0-4.48-.05-2.68-.2-5.37-.18-8,0-2.36-.73-4.72,0-7.09a.8.8,0,0,0,0-.46c-.59-2.29-1.06-4.59-2.64-6.52a3.51,3.51,0,0,0-5.29-.11,7.84,7.84,0,0,0-1.8,3,24.39,24.39,0,0,0-1.14,3.81c-.29,3-.39,6-.46,9-.07,3.37.14,6.75-.06,10.11s.59,6.66,0,10a1.24,1.24,0,0,0,0,.47,11.58,11.58,0,0,1,.06,4.43c-.17,2,.17,4,.06,6a32.91,32.91,0,0,1-.08,4.43,12.63,12.63,0,0,0,.14,2.93c0,.62.11,1.24.08,1.85a23.61,23.61,0,0,0-.23,3.23,21.41,21.41,0,0,1,0,3.49c-.13,1.8,0,3.62-.05,5.43s.3,3.56.06,5.36a16.14,16.14,0,0,0,.26,2.91,26.28,26.28,0,0,1,0,3.2c-.28,3.29.5,6.48,1.09,9.63A15.17,15.17,0,0,0,412.76,127.73ZM426.16,90l.28-.34a2.2,2.2,0,0,0-.46-.23c-.05,0-.14.2-.21.31Z"/><path class="cls-1" d="M193.89,24.57c.09,1.37.25,2.8.27,4.23q.06,4.41,0,8.83c0,1.35-.16,2.71-.2,4.06,0,.45.18.9.16,1.35-.05,1.34-.23,2.67-.25,4-.06,4.63-.08,9.26-.11,13.89,0,1.28,0,2.55,0,3.83-.11,9.66-.2,19.33-.33,29,0,2.21.1,4.42,0,6.63,0,1-.21,2-.29,3.07,0,.45-.5,1,.2,1.36.13.08.1.49.1.75a31.43,31.43,0,0,0,.31,6.13,12.16,12.16,0,0,1,.11,2.34,42.58,42.58,0,0,0,.89,8.29,10.24,10.24,0,0,0,3.75,6,5.74,5.74,0,0,0,6.9,0,3.35,3.35,0,0,0,.9-1.75c.28-1.36.4-2.75.58-4.13.11-.87.16-1.75.33-2.6.62-3.14.31-6.31.38-9.46.09-4.35,0-8.71,0-13.07,0-1.5-.11-3-.09-4.52,0-.75.29-1.5.32-2.25a8.56,8.56,0,0,0-.19-1.81,18.82,18.82,0,0,1-.44-2.41c-.14-5-.19-10-.35-15-.08-2.63-.27-5.26-.52-7.89s-.7-5.3-1-8c-.18-1.59-.29-3.19-.33-4.79-.11-4.16.07-8.33-.29-12.46-.32-3.8,0-7.59-.3-11.36A9.44,9.44,0,0,1,205,22.7l1.44-.23c.07-.08.18-.13.21-.22.58-1.68.57-1.56,2.3-1.38,1,.11,1.89.17,2.39,1.26.13.29.7.38,1.17.61,0,.87.1,1.8.15,2.73v.15c.1,6.49.19,13,.32,19.47,0,2.38.17,4.76.31,7.14a39.47,39.47,0,0,0,.57,6.63c1.08,4.48.41,9,.95,13.55.59,4.8.41,9.65.61,14.47.23,5.46.22,10.9.26,16.36a2.65,2.65,0,0,1-.72,2.17c.22.19.65.49.62.53-.6,1,.28,2,.13,3a24.53,24.53,0,0,0,0,3.43c0,1.1.05,2.19,0,3.28a44.46,44.46,0,0,1-.56,6c-.3,1.45-.11,2.92-.53,4.34-.31,1-.22,2.16-.47,3.21-.75,3.22-3.56,6.71-7.33,7.28a1.56,1.56,0,0,0-.58.16,7.09,7.09,0,0,1-4.85.83,23.84,23.84,0,0,1-4.68-1,10.68,10.68,0,0,1-4.68-3.13,18.76,18.76,0,0,1-4.1-6.33,43,43,0,0,1-1.25-4.61,42,42,0,0,1-.81-7.5.79.79,0,0,1,0-.3c.57-1.3-.1-2.49-.29-3.72a3,3,0,0,1,0-.31c-.1-5-.24-10.06-.3-15.1,0-4-.21-8,0-11.94.43-7.33,0-14.66.35-22,.22-4.26.13-8.51.22-12.76.12-5.45.13-10.91.23-16.36,0-2.17.18-4.35.32-6.52a7.5,7.5,0,0,1,.37-1.43C189.83,23.85,191.4,23.85,193.89,24.57Zm18.93,45c-1.68-.24-2.38.19-2.27,1.31l2.27-.49ZM212,105.67c.67-.94.65-1.07-.22-1.48C211.68,104.72,211.47,105.23,212,105.67Zm-.92-9.57h-1.34l.15,1.08Z"/><path class="cls-1" d="M74.52,83.86a45.17,45.17,0,0,0,0,5.46,96.52,96.52,0,0,1,.25,12.14c0,4.46-.2,8.92-.42,13.37-.08,1.58-.55,3.14-.72,4.72a42.58,42.58,0,0,1-1.43,7.26,15.15,15.15,0,0,1-5.12,7.9,7.77,7.77,0,0,1-8.07,1.2l-3.47-1.33a9.69,9.69,0,0,1-4.31-3.85,14.22,14.22,0,0,0-.87-1.27c-1.69-2-2-4.48-2.66-6.83-.53-1.82-1-3.66-1.42-5.52a45.59,45.59,0,0,1-.83-5.17c-.22-2.27-.27-4.55-.44-6.81s-.42-4.62-.61-6.93c0-.73,0-1.46,0-2.19-.07-3.22-.2-6.44-.19-9.66,0-4.57-.1-9.16.26-13.71.3-3.79.08-7.57.25-11.35.08-1.91.24-3.82.28-5.73a8.62,8.62,0,0,0-.38-1.77,11.9,11.9,0,0,1-.41-2.27,49.07,49.07,0,0,1,.2-8.22c.59-3.39.5-6.87,1.32-10.25a16.62,16.62,0,0,1,4.89-7.88,12.34,12.34,0,0,1,5.39-3,3,3,0,0,1,1.24-.05c1.87.27,3.82.3,5.53,1.24a10.91,10.91,0,0,1,4.91,4.49,38,38,0,0,1,3.21,10.28A44.71,44.71,0,0,1,71.39,43c.19,1.84.44,3.68.6,5.52.12,1.45.12,2.9.23,4.35.21,2.62.47,5.24.67,7.86.15,1.85.25,3.71.38,5.56.17,2.37.33,4.75.53,7.11.29,3.5.6,7,.91,10.5ZM52.64,94.62h-.06c.13,3.32.25,6.63.39,9.94.05,1.25.1,2.49.24,3.73.16,1.53.4,3,.64,4.57.13.87.28,1.73.48,2.58.46,1.9,1,3.79,1.42,5.69A13.6,13.6,0,0,0,57.9,126a5.14,5.14,0,0,0,2.46,1.77c1.56.59,2.17.36,3.08-1.07a1.25,1.25,0,0,0,.11-.29,39.27,39.27,0,0,0,1.7-5.26c.54-3.09.87-6.23,1.11-9.36.23-2.88.36-5.79.32-8.69-.06-4.87.28-9.75-.25-14.63-.31-2.82,0-5.68-.29-8.54-.46-4.1-.54-8.25-.79-12.38-.08-1.34-.14-2.69-.3-4-.24-2-.7-4.06-.81-6.11-.17-3.35-.32-6.7-.69-10-.32-2.87-.53-5.75-.87-8.62a23.56,23.56,0,0,0-2-6.77,2.86,2.86,0,0,0-3.94-1.1,9.28,9.28,0,0,0-2.18,2.33c-.91,1.09-1,2.45-1.09,3.79-.28,2.56-1.12,5.1-.3,7.72a4,4,0,0,1,0,1.24c-.06,2.18-.14,4.36-.16,6.54,0,1.13.15,2.26.15,3.4,0,1.39-.13,2.79-.19,4.19-.16,3.94.16,7.87-.26,11.82-.34,3.34,0,6.73-.3,10.1a32.06,32.06,0,0,0,.2,7.76A31.11,31.11,0,0,1,52.64,94.62Z"/><path class="cls-1" d="M324.35,138.61a5.61,5.61,0,0,1-1.5-3.63c-.33-4.79-1.7-9.42-2-14.22-.13-2.25-.73-4.46-1.06-6.7-.21-1.38-.27-2.77-.46-4.15-.23-1.68-.55-3.35-.78-5-.16-1.17-.25-2.35-.37-3.56a23.83,23.83,0,0,0-6.1.18c-2,.15-4,.25-6.05.39a10.22,10.22,0,0,0-.43,1.25c-.43,2.15-.85,4.31-1.23,6.47-.25,1.47-.39,3-.67,4.42-.47,2.47-.22,5-1.05,7.48a2.2,2.2,0,0,0-.08.77,17.77,17.77,0,0,1-1,5.77,10.44,10.44,0,0,0-.37,2.9c0,.37.47.74.7,1.08-.74,1.65-1.45,3.23-2.09,4.64-.7.54-1.49-.44-1.95.46a.71.71,0,0,1-.53-.13c-.19-.26-.22-.65-.54-.06a.93.93,0,0,1-.88.22c-.71-.59-1.34-1.27-2-1.91-.19.14-.52.54-.69.48a1.09,1.09,0,0,1-.62-.75,10,10,0,0,1,0-2.5c.3-1.82.72-3.62,1.07-5.44.44-2.27.92-4.54,1.26-6.83.31-2.07.42-4.18.66-6.27.14-1.22.37-2.44.55-3.66.09-.6.13-1.21.22-1.81.05-.35.07-.93.26-1,.78-.3.16-.84.33-1.35l.67.35a1.08,1.08,0,0,0,0-1.37,2.44,2.44,0,0,1-.31-1.43c.3-1.87.72-3.71,1.05-5.57.1-.54,0-1.1.07-1.64s.15-1.11.24-1.67a5.49,5.49,0,0,0,.29-2.1c-.19-.65.87-.91.24-1.65-.31-.36-.08-1.2-.08-1.82,0-2,0-2,1.88-2.81,0-.41-.07-.85-.14-1.64l-1,1.39c-.05-.49-.2-.84-.08-1,.62-1.11.24-2.34.46-3.5s.26-2.59.41-3.88c.09-.77.23-1.52.36-2.29l1.56-9.74c.4-2.49.81-5,1.21-7.46.1-.66.17-1.33.27-2,.51-3.3,1-6.6,1.53-9.91.26-1.68.49-3.36.74-5,.42-2.8.78-5.61,1.29-8.39a21.88,21.88,0,0,1,1.11-3.2L312,30.86l.42-1.06c.16,0,.3,0,.35.07a1.48,1.48,0,0,0,1.45.7,2.85,2.85,0,0,1,1.06.18c1.54.37,1.88,1.57.71,2.89.9.18,1,.78,1.05,1.58.05,1.18.33,2.34.49,3.52a26.67,26.67,0,0,1,.39,3.06A76.19,76.19,0,0,0,319.31,53c.5,2.89.81,5.82,1.32,8.7a54.54,54.54,0,0,1,.73,6.61c.08,1.33.41,2.64.62,4,.17,1.06.33,2.13.49,3.2q.88,5.64,1.76,11.28c.26,1.68.51,3.35.77,5s.51,3.35.75,5c.51,3.5,1,7,1.5,10.5s.79,6.86,1.29,10.27c.66,4.58,1.42,9.15,2.15,13.71.24,1.47.53,2.94.8,4.4.18,1,0,1.22-.92,1.86a3.75,3.75,0,0,1-2.69.69A18.91,18.91,0,0,0,324.35,138.61Zm-7.63-46.35c-1.56-11-3.09-21.75-4.62-32.54h-.31c-.26,1.58-.54,3.16-.77,4.75-.19,1.33-.27,2.67-.49,4-.35,2.23-.77,4.45-1.17,6.68-.31,1.77-.5,3.58-1,5.3a20.61,20.61,0,0,0-.66,3.87c-.2,2.66-.49,5.31-.74,8Zm-17.08,4.67-.35,0a1.57,1.57,0,0,0,.35,1.74Zm2.51-11c.14-.38.3-.6.25-.76s-.29-.3-.45-.45c-.12.13-.33.25-.34.4S301.79,85.46,302.15,86Zm-.35,26.73.18-.3a1.49,1.49,0,0,0-.44-.11,1.3,1.3,0,0,0-.41.13c.05.12.08.33.14.34A2.46,2.46,0,0,0,301.8,112.71Zm1.87-6.88.19-.29a1.88,1.88,0,0,0-.45-.12,1.28,1.28,0,0,0-.4.14c0,.12.08.33.14.34A1.86,1.86,0,0,0,303.67,105.83Zm-3,0c-.19-.21-.26-.37-.37-.4a.48.48,0,0,0-.39.13s0,.32.1.33A2.48,2.48,0,0,0,300.67,105.83ZM303,89.4l-.08.24.58.25.16-.38Zm3.35-5.64a1.37,1.37,0,0,0-.14.4s.18.15.23.13a1.19,1.19,0,0,0,.28-.27Zm-3.92-3.45c-.2-.11-.32-.23-.43-.23s-.21.15-.31.23c.1.08.2.22.31.23S302.22,80.42,302.42,80.31Z"/><path class="cls-1" d="M8.09,59.74a4.87,4.87,0,0,1,.8,1.14c1.55,3.93,3.09,7.86,4.57,11.82,1.27,3.37,2.47,6.77,3.67,10.17,1.06,3,2.06,6.06,3.13,9.07.79,2.23,1.66,4.43,2.47,6.66.3.82.49,1.68.78,2.51q2.19,6.36,4.4,12.71c0,.08.14.12.39.32-.14-2.5.23-4.86-.25-7.21a3.19,3.19,0,0,1-.08-.62c0-3.27,0-6.55,0-9.82,0-.47,0-.94,0-1.41,0-6.35,0-12.7,0-19,0-3.42.21-6.84.29-10.26A8.73,8.73,0,0,0,28,63.94a7.36,7.36,0,0,1,.81-4.44,22.73,22.73,0,0,1,6.57.44A1,1,0,0,1,36.3,61c.09,3,.46,6,.26,9-.54,7.9-.08,15.8-.28,23.69,0,.77-.28,1.53-.28,2.29a54.16,54.16,0,0,0,.24,8.35,24.89,24.89,0,0,1,0,4.05c0,.65.21,1.43-.07,1.9-.43.7.26,1.09.16,1.67a8.07,8.07,0,0,0,.06,2c.06.87.19,1.74.24,2.61.14,2.69.25,5.38.4,8.07.08,1.56.3,3.13.28,4.69,0,2.3-.2,4.6-.32,7-2.49.5-5.16-.22-7.43,1.39a14.73,14.73,0,0,1-2.1-3.2c-.95-2.5-2.09-4.93-3.09-7.42-1.08-2.69-2.12-5.4-3.1-8.12s-2.18-5.62-3.17-8.47a2,2,0,0,1,0-1.77A8.53,8.53,0,0,1,17,107.3a17.13,17.13,0,0,1-.84-2.34c-.29-.92-.52-1.87-.84-2.79-.86-2.48-1.77-5-2.65-7.43-1.3-3.69-2.59-7.38-4-11.44-.08.66-.13,1-.15,1.29-.1,1.44-.23,2.88-.28,4.32,0,.75.1,1.51.12,2.27.06,2.55,0,5.12.2,7.66.35,3.86.21,7.72.26,11.59,0,.45-.23.91-.22,1.36,0,.89.15,1.79.21,2.69a5.47,5.47,0,0,1,0,1.4c-.58,2.89-.17,5.8-.31,8.7-.07,1.51-.19,3-.29,4.53a1.6,1.6,0,0,0,0,.62A5.37,5.37,0,0,1,8,133.67c-.13.07-.26.2-.41.21-1.88.15-3.77.33-5.66.41a1.69,1.69,0,0,1-1.89-1.74,13.77,13.77,0,0,1,0-2.87,58.79,58.79,0,0,0,.29-8.39c0-2.24,0-4.48.11-6.71.07-2.57,0-5.15,0-7.72s0-5.1,0-7.65Q.43,83.12.36,67a4.24,4.24,0,0,0-.13-1.38c-.52-1.47.13-2.86.27-4.28.05-.53,1.71-1.27,2.31-1.21A7.87,7.87,0,0,0,6,60.27C6.58,60.09,7.2,60,8.09,59.74ZM18.6,102.39v.44l1.14-.11,0-.33Zm.35-1-.06-.38-.77.19.05.26ZM19,97.75c-.73.33-.49.78-.37,1.19,0,0,.17,0,.37.06Zm16.64,27.91-.4,0,.1.84.3,0Zm-16.2-17.94-.06-.44-.85.18.06.31Z"/><path class="cls-1" d="M469.9,87.37l-3.75,1.55a9.79,9.79,0,0,0-1.81-2.32,7.84,7.84,0,0,0-2.58-.58c.12-1.29.27-2.46.34-3.63a18.38,18.38,0,0,0-1.29-8.49c-1-2.43-3.45-3.06-5.75-1.71a13.25,13.25,0,0,0-4.26,4.7c-1.39,2.17-1.6,4.62-2.16,7-.33,1.4,0,2.86-.69,4.24a8.26,8.26,0,0,0-.35,2.9c-.16,1.74-.34,3.49-.46,5.25-.19,2.63-.43,5.26-.48,7.89-.06,3.21.06,6.42.1,9.63,0,1.39,0,2.78.07,4.17.09,3.12,0,6.27.36,9.38.29,2.79-.09,5.63.62,8.39-.64,1.77.38,3.48.23,5.15-.18,2,.59,3.84.28,5.82a8.26,8.26,0,0,0,.4,3c.47,2,.38,4.09,1.26,6,.52,1.14.48,2.52.92,3.7.65,1.74,1.52,3.31,3.58,3.87.68.18,1.16.13,1.48-.32a7.68,7.68,0,0,0,1.09-2.18c1-3.63.77-7.37.77-11.08a7.37,7.37,0,0,0-.53-1.74,3.68,3.68,0,0,1-.23-1.17c.13-1.79.65-2.3,2.55-2.72,1.35-.3,2.69-.64,4.19-1,0,0,.27.1.34.26.64,1.41,1.74,2.61,1.71,4.33,0,1.17.36,2.36.31,3.53-.1,2.37-.5,4.72-.54,7.09a17.62,17.62,0,0,1-1,5.43c-.68,2-1.43,4.09-3.17,5.52a9.19,9.19,0,0,1-1.57.94c-.36.19-.85.21-1.13.47-1.38,1.27-2.95,1-4.53.67a13.91,13.91,0,0,0-2.28-.38c-1.12,0-1.88-.76-2.81-1.17-2-.91-3.07-2.84-4.48-4.36a6.25,6.25,0,0,1-1.46-3c-.32-1.86-1.17-3.57-1.19-5.52a15.26,15.26,0,0,0-1-3.56,9.45,9.45,0,0,1-.29-1.82,62.25,62.25,0,0,0-.94-9.44c-.09-.42.23-.93.13-1.34-.6-2.49-.3-5-.47-7.55-.18-2.72-.49-5.44-.62-8.17-.12-2.54-.05-5.08-.1-7.63a12.9,12.9,0,0,0-.2-1.52c0-.21-.15-.44-.08-.61.61-1.59-.19-3.17,0-4.74a32.75,32.75,0,0,0,0-4.43c0-2.53.26-5.06.27-7.6a46.21,46.21,0,0,1,.88-7.52,10.36,10.36,0,0,0,.06-1.25,3.59,3.59,0,0,1,0-.93c1-3.3.75-6.84,1.71-10.15a25,25,0,0,1,4.25-8.89,24.9,24.9,0,0,1,8.5-6.46,1.68,1.68,0,0,1,.73-.23,38.8,38.8,0,0,1,4.83.34A13.42,13.42,0,0,1,465.25,66a9.31,9.31,0,0,1,2.81,4.19,63.3,63.3,0,0,1,2.06,6.29,7.79,7.79,0,0,1-.07,2.09c0,1.46,0,2.92-.07,4.37,0,1-.21,2.05-.27,3.07A7.92,7.92,0,0,0,469.9,87.37Z"/><path class="cls-1" d="M144,42.64l-.36,1,.55.66c-1.08,1.21-2.44-.1-3.63.79,0-1.7-1-3.23.4-4.75-.8-.21-.87-.87-1-1.67-.44-3.32-1.71-6.23-4.58-8.22a1.77,1.77,0,0,0-.85-.32c-1.55-.07-3.09-.17-4.48.82a10.87,10.87,0,0,1-2.28,1l.31.5A16.43,16.43,0,0,0,125.17,40c-.34,2.19-.31,4.43-.46,6.64-.2,2.93-.46,5.86-.59,8.8-.1,2,.12,4.07-.06,6.09-.59,6.74-.1,13.5-.3,20.24-.07,2.31-.32,4.62-.51,6.92a3.67,3.67,0,0,1-.37.94c0,.1-.12.23-.09.32a6.45,6.45,0,0,1,.27,4,5.89,5.89,0,0,0-.11,1.39c.11,2.43-.22,4.86.25,7.29a5.92,5.92,0,0,1-.3,2.88,6,6,0,0,0,.17,2.84,10.18,10.18,0,0,1,.23,3.81c0,.13.09.29.14.43a14,14,0,0,1,.9,6.21,4.18,4.18,0,0,0,.47,1.57l-1,.38,1,.56-1.08,1,1.25.28a4.89,4.89,0,0,0,1.5,2.54,4.05,4.05,0,0,1,1,1.84c0,.17-.39.5-.6.76l-1.71.83-.59-.48-.18.2.84,1.18a11.82,11.82,0,0,0,1.5-1c.15-.13.08-.5.12-.76.92,1,2.26,1.32,3.36,2a6.16,6.16,0,0,1,1,1.22,49.77,49.77,0,0,0,5-.41c1.07-.2,1.54-1.32,1.94-2.27a5.91,5.91,0,0,0,.41-2c.16-2.89.28-5.79.39-8.69a5.87,5.87,0,0,0-.19-1.37c-.33-1.51.23-2.33,1.71-2.53,1-.12,1.93-.27,2.84-.4a10.91,10.91,0,0,0,.72,1.42c.08.12.43.07.72.1-.68-1.68-.68-1.68,1.17-2.17,1.27,1.84,1.34,2.54.48,3.79.21.43.54.8.55,1.18,0,2.37.13,4.74,0,7.1a39.57,39.57,0,0,1-.87,5.17c-.18.94-1.1,1.59-1.1,2.67,0,.24-.68.48-1,.72.48,1.56-1.28,2-1.61,3.05-.92.28-1.17-1.16-2.27-.5l1.16,1.12a11.51,11.51,0,0,1-3.32,1.76c-.28.1-.77-.37-1.17-.57.88-.54.88-.54.17-1.58l-.13,1.62c-.24,0-.55,0-.7.13a1.57,1.57,0,0,1-2,.19,4.75,4.75,0,0,0-2.34-.18,7,7,0,0,1-4.63-1.72c-.23-.18-.24-.65-.35-1l0,0,.55-.43-.55-.57,0,.06c.12-.78-.38-1.25-.83-1.88l-.47,1.57,0,0-.57.12,0,0-.6-2.1-1.54.22.92-1.37H122.5l.22,1.37.17.38c-.14,0-.39.08-.4,0-.52-1.15-1.86-1.6-2.33-2.83a32.29,32.29,0,0,0-1.62-3.48c-.38-.72-.83-1.4-.58-2.17l2.54-1.08,0-.27h-.85l0,0c-.53-.81-1-1-1.79-.81-.67.18-.84-.29-.9-.72-.27-1.78-.49-3.56-.7-5.34a11.69,11.69,0,0,1-.14-2.28,6.92,6.92,0,0,1,.56-1.64c0,.67,0,1.31.92,1.31,0,1.16,0,1.16,1.13.95,0-.52.25-1.07-.32-1.59l-.84.68c0-.66,0-1.35-.93-1.31,0-.26.15-.62,0-.75-1.68-1.82-1.09-4.1-1.31-6.21a11.8,11.8,0,0,0-.11-1.69,1.58,1.58,0,0,1,.38-1.55c.43-.52.81-1.13.06-1.74l0,0a21.65,21.65,0,0,1-.55-3.15c-.08-2.42-.09-4.84,0-7.26.06-1.75.37-3.49.47-5.24.08-1.47,0-3,0-4.44q0-4.22,0-8.43c0-.82,0-1.64,0-2.46q.2-6.69.42-13.37a1.8,1.8,0,0,1,.21-.89c.39-.62.65-1.17,0-1.78a.74.74,0,0,1-.11-.71c.49-.94.22-1.91.25-2.88a63.79,63.79,0,0,1,.43-6.63,9,9,0,0,0,.12-2.32,3.73,3.73,0,0,1,.82-3c.25-.28.2-.89.16-1.34a6.35,6.35,0,0,1,1.2-4.21c.27-.39.24-1,.46-1.44a14.27,14.27,0,0,1,4.24-5.2,33.57,33.57,0,0,1,2.79-2.16c1.26-.74,2.44-1.76,4.11-1.58.69.07,1.45-.36,2.12-.23,1.95.38,4,0,5.85,1.15l-.11.79.92-.34A22.18,22.18,0,0,1,142,25.35c1.11,1.13,2.1,2.39,3.13,3.61a2.28,2.28,0,0,1,.34.68,30.29,30.29,0,0,0,1.21,2.8A18.16,18.16,0,0,1,147.9,37a42.31,42.31,0,0,0,.48,4.42,6.26,6.26,0,0,1-.45,2.91c-.7-.86-1.88.41-2.42-.78l.56-.69a2.3,2.3,0,0,0-2.09-.18c.64-1.09-.63-1.24-.85-2.14C142.45,41.87,143.48,42.12,144,42.64Zm-12.54,89.68c-.72,0-.72,0-.51.78.2-.33.35-.56.49-.8l1-.57C131.52,131.73,131.52,131.73,131.46,132.32Zm-9.56-14.93c.46,0,.75-.22.57-.63a1,1,0,0,0-.79-.41c-.53.06-.38.48-.25.83-.07.51-.35,1,.47,1.75Zm6.53,13.87c.36-.76-.26-1-.88-1.41l.11,1.7c-.13.42.07.61.46.54C128.66,132,128.56,131.62,128.43,131.26Zm-4.56-6.49-.21-.4-1.17,0,.24,1.36Zm-2.32-19.64,1-1.18C121.55,103.67,121.27,104,121.55,105.13Zm17.37-79.55c1.37.31,1.37.31,1.27-.55ZM120.61,109l-.38,0,0,.79h.27Zm24.69,10.71c0-.88,0-.91-.37-1a2.37,2.37,0,0,0-.76.13ZM117.13,61.89a2,2,0,0,0,.24-.37s-.14-.18-.19-.16a1,1,0,0,0-.34.18Zm17.13,74.05-.33-.52c-.11.09-.28.17-.3.28a.47.47,0,0,0,.16.37C133.85,136.12,134,136,134.26,135.94Zm-8.81-4c-.13-.09-.27-.24-.34-.21s-.27.26-.25.31a2.21,2.21,0,0,0,.39.35Zm-6.61-75.56a3.79,3.79,0,0,0-.67-.06.45.45,0,0,0-.09.34.47.47,0,0,0,.39.12C118.58,56.72,118.66,56.56,118.84,56.35ZM136,23.53l-.4-.24c0,.09-.14.19-.12.25a1.12,1.12,0,0,0,.22.33ZM122.13,125.14a2.14,2.14,0,0,0-.54-.34c-.06,0-.26.19-.25.26a1.59,1.59,0,0,0,.26.45Zm1.69-5.62-.36-.24c-.06.12-.18.25-.16.37s.17.17.27.26Zm-5.56-22,.45-.2a2.23,2.23,0,0,0-.37-.38s-.26.14-.3.26S118.17,97.43,118.26,97.55Zm.39-58.37c-.05-.12-.08-.28-.12-.28a1.39,1.39,0,0,0-.4,0c0,.12.06.3.13.32S118.51,39.22,118.65,39.18Zm1.16,1.25c.18.1.34.24.42.21s.22-.24.33-.37c-.14-.05-.28-.16-.4-.14S120,40.29,119.81,40.43Zm1,3.29.43-.06-.18-.85-.31.06Zm-3.29,9.16c-.18-.14-.27-.25-.38-.28s-.24.08-.24.1.07.29.15.32S117.27,53,117.5,52.88Zm26.64,77.32a1.81,1.81,0,0,0,.39.2s.15-.16.13-.22a1,1,0,0,0-.22-.31Z"/><path class="cls-1" d="M512.73,137.76a4,4,0,0,1-2.71,1.92c-1.49.36-2.94.88-4.3,1.3a9,9,0,0,1-2.4-5c-.19-.77-.05-1.68-.3-2.51-.44-1.48-.8-3-1.3-4.44a62.45,62.45,0,0,1-2-8.09c-.28-1.35-.67-2.67-1-4l-2,.13c-2.89.15-5.79.27-8.69.43-1,.06-1.33.44-1.5,1.41-.35,1.92-.77,3.83-1.08,5.76-.23,1.42-.33,2.87-.48,4.31-.18,1.69-.31,3.39-.53,5.07s-.56,3.34-.87,5.18l-7.78-.51c.17-1.67.32-3.2.49-4.73.07-.66.17-1.32.25-2,.29-2.41.56-4.81.86-7.22.09-.76.23-1.52.35-2.28.46-3,.93-6,1.37-9,.14-1,.13-2,.24-2.95.2-1.79.42-3.57.65-5.36s.46-3.57.7-5.36c.34-2.44.71-4.88,1.05-7.33.09-.66,0-1.35.13-2,.31-2.29.65-4.58,1-6.87.12-.88.15-1.76.26-2.63.32-2.71.69-5.41,1-8.12.23-2.21.39-4.43.56-6.64a17.41,17.41,0,0,1,.22-2.72c.11-.44.67-.84,1.12-1.12.7-.43,1.47-.74,2.38-1.18.17,0,.58.11,1,.23a14.67,14.67,0,0,1,2.85,1,2.79,2.79,0,0,1,1,1.53c.71,1.93,1.41,3.87,2,5.84,1.07,3.71,2.08,7.43,3.07,11.16.85,3.18,1.7,6.37,2.46,9.58,1,4.2,1.91,8.42,2.91,12.63.77,3.25,1.45,6.52,2.44,9.73a66.91,66.91,0,0,1,2.22,9,49,49,0,0,0,1.56,5.5c.78,2.77,1.54,5.55,2.32,8.33C512.26,136.38,512.49,137,512.73,137.76Zm-22.08-52c-1,7.83-2,15.66-3,23.58a5.92,5.92,0,0,0,.92.08c2.52-.14,5-.3,7.75-.47A167.91,167.91,0,0,0,490.65,85.75Z"/><path class="cls-1" d="M363.68,24.54c1.34-1.25,2.94-1.35,4.47-1.63a7.16,7.16,0,0,1,4.8.92c3.75,2.09,7.23,4.55,9.52,8.35a20.37,20.37,0,0,1,2.89,8.1c.1.81.19,1.63.35,2.44A12.7,12.7,0,0,1,384,51.9a30.3,30.3,0,0,1-3.91,5.87c-.63.66-1.2,1.37-1.81,2-.45.48-.92.94-1.36,1.4,1.49,1.62,2.95,3.08,4.27,4.66a19,19,0,0,1,4.47,8.88,20.1,20.1,0,0,1-.1,8.56,33.51,33.51,0,0,1-2,6.47,15.29,15.29,0,0,1-2,3.3,37.43,37.43,0,0,1-3.84,3.82,16.62,16.62,0,0,1-3.16,2.18c-1.6.85-3.27,1.55-4.94,2.25-1.16.48-1.16.41-1.94-.69a1,1,0,0,0-.9-.19c-1.44.61-2.11.17-2.11-1.37a11.63,11.63,0,0,0-.26-2.28,2.77,2.77,0,0,1,1.16-3A2,2,0,0,1,365,91a.7.7,0,0,0-.28-1.07,1,1,0,0,1-.33-.63c-.11-.55.67-1,.08-1.72-.36-.45-.09-1.4-.1-2.13s0-1.46,0-2.19c0-.95.12-1.91.18-2.87a.61.61,0,0,0,0-.3c-.86-2-.06-4.13-.44-6.17a12.68,12.68,0,0,1-.28-2.44c0-1.83.15-3.65.24-5.47,0-.41,0-.83,0-1.25-.1-3.19-.27-6.38-.29-9.57,0-3.35,0-6.7,0-10.06,0-5.76-.1-11.53-.22-17.3A13.09,13.09,0,0,1,363.68,24.54Zm8.39,43.61a11.39,11.39,0,0,0-.36,2.34c.11,2,.38,4.07.51,6.11.08,1.22,0,2.45,0,3.68a19.19,19.19,0,0,0,0,3.79,5.39,5.39,0,0,1-.22,1.66c-.23,1.66-.49,3.32.55,5,1.3-1.56,3-2.57,3.7-4.46a15.64,15.64,0,0,0,.76-2.18c.46-2,1.64-3.94,1.1-6.21a12.44,12.44,0,0,0-1.57-4.65c-1.25-1.75-2.73-3.35-4.12-5C372.38,68.2,372.25,68.2,372.07,68.15ZM372,54.37a8.29,8.29,0,0,0,1.12-1c1.22-1.65,2.41-3.32,3.63-5a5.58,5.58,0,0,0,1-3.8,22.61,22.61,0,0,0-1.33-6.32,11.47,11.47,0,0,0-4.76-5.63,4.17,4.17,0,0,0-.33,1.16c0,2.72.06,5.44.2,8.16a2.3,2.3,0,0,1-1.09,2.16,1.89,1.89,0,0,0-.26.38l1.44.3c-.23.55-.42,1-.5,1.18a20.88,20.88,0,0,1,.46,2.31C371.78,50.23,371.87,52.16,372,54.37ZM370.05,35.7l-.87-1.08C368.77,35.86,368.77,35.86,370.05,35.7Zm.51,55.63c.15-.29.31-.46.28-.59s-.26-.23-.4-.34c-.11.14-.3.28-.3.42S370.34,91.08,370.56,91.33Zm-4.82,8.08-.39.47.57.36.29-.34Zm4.66-59.75c.17-.1.33-.15.4-.25s-.13-.32-.17-.31a1.78,1.78,0,0,0-.48.19Zm.82,45.06c-.12.16-.25.26-.26.37a1.18,1.18,0,0,0,.14.41c.13-.12.3-.22.37-.37S371.34,84.91,371.22,84.72Z"/><path class="cls-1" d="M273.38,106.55c-1.27-1-2.37-2.29-4.07-.79-.76-.88-1.5-1.69-2.15-2.57a.88.88,0,0,1-.06-1.27c.13-.13.12-.45.1-.69-.05-1-.14-2,.77-2.71.24-.2.23-.77.24-1.16,0-1.25-.06-2.51,0-3.75.18-2.56-.13-5.12,0-7.68.07-2,.05-4,0-6a45.52,45.52,0,0,1-.24-5.46c.18-1.86-.2-3.67-.09-5.52s-.09-3.65.07-5.46a11,11,0,0,0,0-3.66c-.15-.65.26-1.41.24-2.12,0-1.62-.34-3.24-.23-4.84.08-1.18,0-2.33-.05-3.49q-.07-7.53-.1-15c0-1.1,0-2.19.11-3.28a7.69,7.69,0,0,1,.37-1.47c1.54-.26,2.88-.52,4.22-.73,1.07-.17,2.17-.44,3.09.43,2.61.48,3.92,2.54,5.28,4.46,1.69,2.38,3.32,4.8,4.8,7.32a36.32,36.32,0,0,1,2.05,4.79c.52,1.29,1,2.59,1.46,3.9s.74,2.35,1,3.55a26.82,26.82,0,0,1,1.2,5.7c0,2,.54,3.9.55,5.9a42.65,42.65,0,0,0-.14,5,2.77,2.77,0,0,1-.31,1c-.1.28-.31.58-.27.85.25,2-1,3.67-1,5.59-1.07,1.27-.43,3.16-1.63,4.38a.44.44,0,0,0-.09.29c.16,2.09-1.3,3.65-1.87,5.51a32.59,32.59,0,0,1-2.94,5.76c-.72,1.3-1.53,2.56-2.31,3.83a.78.78,0,0,1-.17.26,8.5,8.5,0,0,0-1.66,2.2,23.25,23.25,0,0,1-2.44,3.15C276,104,274.73,105.2,273.38,106.55Zm3.1-17.79.36.07a3.16,3.16,0,0,0,.37-.45c.73-1.52,1.47-3,2.17-4.57a18,18,0,0,0,1.45-3.57c.66-3.17,2.3-6.09,2.33-9.4,0,0,.07-.09.07-.14.2-1.78.49-3.56.57-5.34a35.41,35.41,0,0,0-.27-3.7,28.23,28.23,0,0,0-1.29-6.89c-.6-2-1.47-3.85-2-5.82a23.75,23.75,0,0,0-4-7.67c0,1.94,0,3.73,0,5.53,0,.65.14,1.27.09,1.94-.11,1.77.15,3.56.16,5.34,0,1.58-.13,3.15,0,4.73a20,20,0,0,1-.24,2.29,23.79,23.79,0,0,0,0,4,14.83,14.83,0,0,1-.17,2c0,.87.21,1.75.17,2.61-.09,1.74.2,3.45.07,5.2-.1,1.39.22,2.8.25,4.21,0,1.69,0,3.39,0,5.09C276.47,85.69,276.48,87.22,276.48,88.76Z"/><path class="cls-1" d="M156.17,100.32a8.35,8.35,0,0,1-.4-1.61c-.09-1.38-.12-2.76-.12-4.14q0-10.3,0-20.61c0-7.29-.09-14.58.17-21.85.11-3.21,0-6.45.31-9.63.26-2.44.08-4.87.26-7.29.2-2.62.51-5.23.79-7.84.12-1.13.23-2.26.41-3.38.22-1.4.53-1.69,2-1.68,2.9,0,5.79.13,8.68.18,2.44.05,4.88,0,7.32.1a11.56,11.56,0,0,1,1.71.35c-.09,2.38-.18,4.62-.26,6.76-1.8,1.42-3.79,1.45-5.76,1.52-1.2,0-2.4,0-3.59,0-.87,0-1.73-.1-2.77-.16a34.71,34.71,0,0,0-.43,3.51c-.08,4.37-.06,8.74-.13,13.11,0,2.27-.2,4.54-.3,6.82,0,.5,0,1,0,1.7,1,0,1.87,0,2.74,0,1.24,0,2.48-.17,3.72-.16,1.63,0,2.45.75,2.19,2.29a17,17,0,0,0,.09,3.43c0,.57,0,1.14,0,1.59a5.11,5.11,0,0,1-4.16,1.46,46.58,46.58,0,0,0-4.77.24,11.5,11.5,0,0,0-.12,1.18c0,1.4,0,2.81,0,4.21,0,2.26,0,4.52,0,6.78s.07,4.58,0,6.87.09,4.82,0,7.44a9.17,9.17,0,0,0,1.75,0,34,34,0,0,1,7.86-.59,6.28,6.28,0,0,1,1.37.19,1.41,1.41,0,0,1,1.2,1.69c-.16,1.7-.23,3.4-.39,5.1-.07.7-.34,1.23-1.25,1.28-1.44.08-2.86.31-4.3.48-1.68.19-3.36.4-5.05.57-.62.07-1.26,0-1.87.07C160.86,100.64,158.62,100,156.17,100.32Z"/><path class="cls-1" d="M188.52,4.64a2.51,2.51,0,0,1-1.35,2.25,65.3,65.3,0,0,0-7.44,6.76,8.79,8.79,0,0,1-1.21,1,1.16,1.16,0,0,1-1.75-.2c-.91-1-2-1.88-3.59-.92-.39-1.29-.78-2.44-1.08-3.62a1.35,1.35,0,0,1,.24-1,28.68,28.68,0,0,1,1.83-2.29c.38-.42.64-1.11,1.49-.74.16.07.58-.35.83-.6A33.89,33.89,0,0,1,182.32.5c1-.64,1.21-.71,2.11.07S186.14,2.2,187,3C187.44,3.49,187.87,4,188.52,4.64Z"/><path class="cls-1" d="M126.66,135.6l-.79.56c-.54-.51-.35-1.21-.48-1.82l0,0,1.3.31,0-.06v1Z"/><path class="cls-1" d="M119.6,123.22c-.62.11-1.19.82-2.14,0h2.17Z"/><path class="cls-1" d="M124.82,134.46l-1,.32.36-.9.71.62Z"/><path class="cls-1" d="M115.67,100.55l-.15.91c-.64-.64-.08-.69.19-.87Z"/></g></g></svg>