<?xml version="1.0" encoding="UTF-8"?><svg xmlns="http://www.w3.org/2000/svg" viewBox="0 0 507.79 153.74"><defs><style type="text/css">.cls-1{fill:#fff;}</style></defs><g id="Layer_2"><g id="Layer_1-2"><path class="cls-1" d="M97.49,20.17C96.78,18.61,97,17,97,15.33c0-3.18-.07-6.35-.1-9.52,0-.57,0-1.14,0-1.81.74,0,1.41.23,1.83-.47a1,1,0,0,1,.67-.34c1.38-.18,2.76-.32,4.14-.47a.79.79,0,0,1,.46.06,41.62,41.62,0,0,1,4.74,3.29,82.92,82.92,0,0,1,7,7,31.51,31.51,0,0,1,4.44,6.33A34.45,34.45,0,0,1,124,31.89a46.32,46.32,0,0,1-.29,10.79,32.52,32.52,0,0,1-2.18,7.86c-.68,1.66-1.36,3.32-2.1,5a35.53,35.53,0,0,1-4.75,7.74c-1.83,2.29-3.62,4.6-5.42,6.88,1.14,3,2.15,6,3.44,8.92s3,6,4.48,9q1.47,3,2.85,6c1.42,3.1,2.83,6.2,4.2,9.32.74,1.69,1.22,3.52,2.11,5.13a48,48,0,0,1,2.86,7.35,20.08,20.08,0,0,1,.57,2.74c-2.41,1.06-4.84,1.27-7.36,2.07-.42-.69-.92-1.44-1.32-2.23s-.78-1.8-1.16-2.7c-.08-.19-.23-.43-.17-.58.53-1.35-.39-2.38-.84-3.44-2.1-4.94-4.23-9.87-6.49-14.73-1.79-3.84-3.81-7.57-5.71-11.36-.36-.71-.66-1.46-1.15-2.53a9.76,9.76,0,0,0-.26,3.79c0,1.73,0,3.46.1,5.19,0,1.26.14,2.51.15,3.77,0,4.89,0,9.78.12,14.67,0,1.5.17,3,.3,4.48.12,1.28,0,1.47-1.22,1.88a31.57,31.57,0,0,1-5.08,1.31,1,1,0,0,1-1.25-.55,8.13,8.13,0,0,1-.92-5.71,1.71,1.71,0,0,0,0-.31c.11-3,.32-6,.29-9,0-2.26-.38-4.52-.57-6.77,0-.47,0-.94,0-1.41q0-15.37,0-30.76c0-1.8-.26-3.61-.28-5.41,0-1.57.2-3.14.21-4.71,0-1.23-.2-2.46-.22-3.7q-.08-7.8-.1-15.61,0-4.59.11-9.2a23.53,23.53,0,0,1,.45-2.73c.06-.4,0-.81.07-1.21.29-.13.8-.23.82-.39C98.41,20.06,97.82,20.28,97.49,20.17Zm7.91-6c-.11,2.19-.24,4.12-.29,6,0,.94.16,1.89.13,2.83,0,1.46-.24,2.92-.26,4.38,0,3.52,0,7,0,10.57v4.85c0,1.56,0,3.12,0,4.68s.06,3.16.1,4.74c.07,2.78.14,5.55.22,8.33,0,.38,0,.76.11,1.42,1.53-2,2.88-3.73,4.2-5.49a25,25,0,0,0,3.2-6c1.82-4.63,3.48-9.19,3.31-14.36a35,35,0,0,0-2-10.27,23.67,23.67,0,0,0-5.38-8.41C107.71,16.37,106.63,15.35,105.4,14.13Zm-1.52,37.95a3.82,3.82,0,0,0-.75-4.18c-1,.59-.92.57-.44,1.49.11.22-.16.63-.26,1ZM99,34.13l.06.34,1.08-.15,0-.31a4.53,4.53,0,0,0-.73,0A1.54,1.54,0,0,0,99,34.13Zm-.47-10.61a3.25,3.25,0,0,0-.64-.13c-.06,0-.12.13-.18.2a2.83,2.83,0,0,0,.45.32S98.33,23.74,98.54,23.52Zm2.64,21.59.28-.34a1.76,1.76,0,0,0-.46-.22s-.14.19-.21.3Zm.42-2.56c-.19-.21-.27-.38-.37-.4a.48.48,0,0,0-.39.13s0,.32.1.33A3,3,0,0,0,101.6,42.55Z"/><path class="cls-1" d="M322.17,114.25c-.87,1.17-.48,2.57-.67,3.87-.18,1.11-.24,2.25-.39,3.37-.17,1.38-.41,2.75-.56,4.12q-.45,4.08-.82,8.16c-.09.93-.05,1.87-.13,2.8-.09,1.13-.24,2.25-.36,3.38-.16,1.38-.32,2.77-.46,4.15-.12,1.13-.16,2.26-.36,3.38a1.53,1.53,0,0,1-.82,1,4.4,4.4,0,0,1-3,.17,15.14,15.14,0,0,0-2.85-.38l-1.29-1.52c.27-3,.54-6.36.85-9.69.26-2.93.42-5.88.86-8.78.41-2.72.59-5.43.73-8.17.08-1.64.49-3.25.68-4.89.28-2.35.48-4.71.74-7.07.32-2.81.69-5.62,1-8.43.12-1,.16-2.07.24-3.1.21-2.57.85-5.09.77-7.7-.05-1.7.18-3.4.28-5.1.17-2.84.33-5.68.5-8.52l.33-5c.23-3.3.47-6.59.67-9.89.15-2.64.19-5.28.39-7.91.17-2.16.5-4.3.76-6.44.12-1,.24-2,.37-3.19,2-.28,3.86-.61,5.74-.79a2.63,2.63,0,0,1,3,2.57c.15,1.13.27,2.26.42,3.38.28,2,.57,4.08.85,6.12.24,1.68.43,3.37.73,5,.66,3.69,1.38,7.37,2.06,11.06.36,1.92.62,3.86,1,5.77.51,2.4.83,4.84,1.56,7.2a33.18,33.18,0,0,1,.64,3.33c.33,1.61.69,3.21,1,4.81a4.22,4.22,0,0,1,.12.92,31.07,31.07,0,0,0,.93,6.57c.12.65.14,1.33.24,2,.49,3.35,1,6.71,1.48,10.07.31,2.27.51,4.55.83,6.81.17,1.22.52,2.42.71,3.63.44,2.7.82,5.4,1.23,8.09l1.08,7c0,.1.09.22.05.29-.7,1.54.53,2.81.57,4.25,0,.86.28,1.71.38,2.57,0,.13-.25.29-.38.44.87,1,.87,1,1.1,3.28-1.91.93-3.73,2.24-6.06,1.49-.11.78-.36.92-.94.45a6.25,6.25,0,0,1-1.84-3.64c-.54-2.13-.35-4.31-.62-6.46s-.67-4.45-1-6.67c0-.15-.15-.32-.11-.45.53-1.67-.62-3.08-.72-4.67s-.42-3-.66-4.58c-.44-2.84-.89-5.68-1.33-8.51l-5.5.2c-1.09,0-2.18.08-3.27.07a2.31,2.31,0,0,1-.81-.33c.3-.14.84-.18.23-.86C322.28,113.71,322.22,114,322.17,114.25Zm2.94-37.37c-.17,4.17-.32,8.33-.51,12.5a31.32,31.32,0,0,1-.38,4,85.61,85.61,0,0,0-1.18,10c-.06.9-.15,1.79-.22,2.69l7.45-.43C329.44,95.76,327.33,86.31,325.11,76.88Zm15.09,46.73a2.14,2.14,0,0,0-.39-.27c-.07,0-.16.08-.25.12s.1.29.18.31S340,123.7,340.2,123.61Z"/><path class="cls-1" d="M417.29,67.68H416s-.1-.08-.11-.17c-.11-1.45-.21-2.9-.31-4.35,0-.41-.05-.83-.05-1.24,0-2.55,0-5.11,0-7.66,0-2.13-.1-4.25-.22-6.38-.08-1.59-.27-3.18-.41-4.65,2.46-1.81,5.07-.93,7.64-1.27.54,1.65,1.08,3.2,1.56,4.76,1,3.2,2.17,6.32,3.27,9.47.35,1,.54,2.09.83,3.13.62,2.23,1.23,4.47,1.91,6.68.75,2.4,1.62,4.77,2.37,7.17.67,2.11,1.24,4.25,1.9,6.36.55,1.76,1.18,3.5,1.74,5.26s1.16,3.74,1.77,5.6c.28.88.63,1.74,1,2.87a8.73,8.73,0,0,0,.13-1c0-2.65.05-5.31,0-8a51.43,51.43,0,0,1-.23-6.66,37.22,37.22,0,0,0,.18-7.45c-.39-4.26-.05-8.51-.37-12.76-.13-1.74-.44-3.47-.58-5.21-.12-1.39-.14-2.8-.15-4.2,0-2.41,0-4.82,0-7.38.93.63,1.64.6,2-.49a5.19,5.19,0,0,1,2.08-.22c.84,1.12,2.15.5,3.4.92.06,1.08.12,2.25.2,3.42.19,2.69.5,5.39.56,8.09,0,1.36.51,2.64.47,4a24.9,24.9,0,0,0,.14,4c.34,2.87.23,5.74.3,8.62.05,2.22.47,4.48.22,6.66a36.51,36.51,0,0,0-.15,7.6,48.11,48.11,0,0,1,.18,7.77c-.53,7.17-.1,14.34-.26,21.5,0,1.38,0,1.42-1.3,1.6-2.08.27-4.16.49-6.23.73-.4,0-.8.13-1.32.21-.59-1.32-1.26-2.6-1.74-3.94-1.53-4.21-3-8.45-4.46-12.67-.83-2.39-1.65-4.78-2.43-7.19-.69-2.14-1.31-4.31-2-6.47-.92-3-1.83-6-2.79-9-.23-.74-.6-1.43-1.06-2.49a8.32,8.32,0,0,0-.25,1.42c0,1.39.16,2.78.18,4.17,0,.25-.27.5-.46.8.66.09,1,.58,1,1.29.1,1.81.25,3.61.31,5.42.08,2.23.09,4.45.36,6.67a42.54,42.54,0,0,1,.07,5.3v15.55c-2.44,1.15-4.94.41-7.45.61-.06-.82-.88-1.57.35-2-.68-.55-1.39-1-.78-2.1a2.63,2.63,0,0,0,.07-1.23c-.1-3-.22-6-.31-9,0-1,0-1.93,0-2.89-.13-3.73-.24-7.46-.43-11.19-.13-2.36-.57-4.73-.54-7.08,0-1.86-.68-3.67-.19-5.54.11-.41-.29-1-.16-1.34.36-1.12.37-2.3.66-3.42C416.32,68.33,416.87,68.06,417.29,67.68Zm25-26.51c.58.52,1.14.73,1.81,0ZM416.88,69.49l.43-.24a1.54,1.54,0,0,0-.36-.36c-.06,0-.28.14-.3.24S416.78,69.35,416.88,69.49Zm1.87,44c-.09.13-.24.27-.21.34s.26.27.3.25a1.63,1.63,0,0,0,.35-.39ZM443.8,49.32l0,.3.74,0,0-.29Zm-.56-2.6a2,2,0,0,0,.24-.37s-.14-.17-.19-.16a1.19,1.19,0,0,0-.33.18Z"/><path class="cls-1" d="M305.87,20.28c.94.36.72,1.1.66,1.75l-1.45.84c-.5-.64-1.06-.78-1.83-.09s-1.28.53-1.85-.19l-2.14,1.25c-1-1.14-.79-2.43-.87-3.61-.14-1.85-.12-3.72-.21-5.58-.08-1.56-2.51-4.6-4-5a4.05,4.05,0,0,0-1.39,0c-.7.07-1.4.2-2.46.35-.21.45-.57,1.17-.89,1.91a10.61,10.61,0,0,1-.8,2c-1.18,1.66-1.08,3.63-1.39,5.49a36.77,36.77,0,0,0-.68,6.6c0,1.87-.13,3.74-.12,5.61,0,2.27-.18,4.54-.31,6.81a24.88,24.88,0,0,0-.25,4c.2,1.85-.38,3.55-.56,5.32-.12,1.14-.05,2.29-.06,3.43,0,1.46,0,2.91,0,4.36.06,2.38.19,4.76.27,7.14,0,.25-.06.49-.07.74a13.51,13.51,0,0,0-.07,2c.15,1.68.45,3.36.54,5,.14,2.48.17,5,.22,7.46,0,1.39-.06,2.79,0,4.18s.42,2.95.52,4.44a34.65,34.65,0,0,0,.81,5.65c.65,2.81.71,5.76,2.05,8.42a11.72,11.72,0,0,0,2.42,3.71,1.61,1.61,0,0,0,2.31.16,10.59,10.59,0,0,0,3.29-6,28.22,28.22,0,0,0,.23-4.39c-.05-1.5-.25-3-.34-4.48-.12-1.81-.21-3.63-.31-5.49,2.73,0,5.11-1.19,7.77-.76a26.18,26.18,0,0,1,.58,3,76.87,76.87,0,0,1,.33,11.85,14.13,14.13,0,0,1-2.65,8c-.79,1-1.51,2.1-2.25,3.16-1.53,2.18-3.87,2.93-6.27,3.62a7.58,7.58,0,0,1-4.81-.42,11.67,11.67,0,0,1-4.59-3.27c-1.68-1.86-2.33-4.22-3.41-6.36a38.69,38.69,0,0,1-1.68-4.47,2.94,2.94,0,0,1-.16-1.06,21.78,21.78,0,0,0-1.41-7.7,3.39,3.39,0,0,1-.12-.91L278,80.59c0-.39,0-.8,0-1.19-.08-1.55-.2-3.09-.27-4.64a6.57,6.57,0,0,1,0-2.17c.49-1.57-.17-3.06-.13-4.59s-.24-3-.33-4.45c-.13-2.26-.26-4.53-.32-6.79,0-.87.19-1.73.2-2.6,0-1.87,0-3.74,0-5.62,0-.62.12-1.23.17-1.85.12-1.54.28-3.09.33-4.63s-.11-3.32.56-4.9a2.59,2.59,0,0,0,.08-.93c0-3.54.05-7.07.12-10.61,0-1,.2-1.94.3-2.92.18-1.74.31-3.49.53-5.23a17.4,17.4,0,0,1,.6-2.85c.57-1.86,1.2-3.71,1.83-5.55.77-2.24,1.83-4.25,4-5.48A11,11,0,0,0,287,2.49c.19-.16.42-.4.63-.4,1.37,0,2.63-.92,4.07-.45a2,2,0,0,0,1.38,0c1.68-.74,3.13.31,4.67.52.49.06.89.65,1.35,1,1.54,1.09,3.18,2.05,4,3.93a27.16,27.16,0,0,0,2.05,3.79c1,1.62.82,3.4.73,5.14a5.14,5.14,0,0,0,.25,2.8l-.57,1c-.42.27-1.29-.82-1.46.62Zm-1.21,1.35c.56.14.9.16.8-.64Zm-.47-3V19a5.3,5.3,0,0,0,.69,0s.05-.17.07-.26Zm-.89.81h.23v-.74h-.23Zm1.78-2.5a2.36,2.36,0,0,0-.66-.11c-.07,0-.11.19-.17.3a1,1,0,0,0,.39.13C304.74,17.24,304.83,17.12,305.08,16.93Zm-4.54.07c-.19-.1-.3-.21-.4-.2s-.21.14-.31.21c.1.09.2.23.31.24S300.35,17.12,300.54,17Z"/><path class="cls-1" d="M213.54.5a16.61,16.61,0,0,1,.74,2c.46,2.06.84,4.13,1.29,6.18.86,3.87,1.77,7.72,2.61,11.58.56,2.62,1,5.25,1.56,7.87.27,1.36.58,2.72.82,4.09.85,4.7,1.69,9.41,2.48,14.12.37,2.18.6,4.39,1,6.58.61,3.6,1.29,7.19,2,10.78.49,2.68,1,5.35,1.47,8,.28,1.78.43,3.57.64,5.36A6.34,6.34,0,0,1,227,81c-1.65-.21-3.32-.42-5-.65-.15,0-.28-.14-.43-.17-.55-.12-1.33,0-1.57-.37a3.12,3.12,0,0,1-.27-1.78,27.9,27.9,0,0,0-.92-8c-.52-1.88-.66-3.86-1-5.78-.29-1.57-.69-3.12-1-4.69-.25-1.26-.43-2.53-.62-3.8-.15-1-.27-2-.4-3-1.85.24-3.58.48-5.31.69a2.91,2.91,0,0,1-.78,0c-1.33-.12-1.55-.6-.83-1.73a9.55,9.55,0,0,0,.55-1.21h-2c-.33.43-.7.91-1.07,1.37-.56.68-.52.85.45,1.52H205c-.18.78-.4,1.62-.57,2.47-.54,2.67-1.05,5.35-1.57,8-.43,2.22-.91,4.43-1.3,6.66-.35,2-.56,4.08-.91,6.11-.22,1.31-.58,2.6-.92,4.06l-7.36-1c-.24-1.31-.74-2.63,0-4a5.52,5.52,0,0,0,.5-1.6c.71-4.21,1.34-8.43,2.12-12.63.59-3.13,1.41-6.22,2.06-9.34s1.17-6.07,1.75-9.1,1.19-6,1.71-8.93c.62-3.5,1.15-7,1.73-10.52.35-2.18.75-4.36,1.09-6.54.48-3.1.95-6.2,1.38-9.31.23-1.69.27-3.4.58-5.07.18-1,.07-2.12,1-2.7C208.71.74,211.11.25,213.54.5Zm.8,43.86c-.84-7-2.46-13.61-3.72-20.37-1,3.36-1.14,6.89-1.93,10.29A82.77,82.77,0,0,0,207,44.9c1.1,0,2.14-.5,2.9.17.57-.22,1.15-.67,1.54-.54C212.42,44.85,213.22,44.15,214.34,44.36Zm-4.66,7.88c-.15.28-.34.48-.3.56a.81.81,0,0,0,.48.39c.08,0,.36-.29.34-.37S209.93,52.5,209.68,52.24Z"/><path class="cls-1" d="M404.06,1.79c-.07,2.4-.14,4.59-.22,6.85a6.15,6.15,0,0,1-3.6,1c-2-.06-3.95,0-5.93,0-.61,0-1.22-.08-1.95-.13a9.22,9.22,0,0,0-.07,3.4c0,.62.2,1.23.21,1.84,0,3.44,0,6.87,0,10.31.06,3.78.21,7.57.3,11.35.08,3.33.16,6.65.19,10,0,1.24-.17,2.48-.18,3.72,0,1.08.12,2.17.19,3.37.54,0,1,.11,1.43.11,2.73,0,5.46,0,8.2,0,.6,0,1.41,0,1.74.38a3.33,3.33,0,0,1,.59,1.91c.08,1,0,2.07,0,3.1a5.78,5.78,0,0,0,0,.72A1.94,1.94,0,0,1,403,62c-1.66,0-3.33,0-5,0h-4.88c-.05.49-.13.89-.13,1.29V78.86c0,3.37,0,6.73,0,10.09,0,4.47-.15,8.94-.19,13.41,0,1.45.11,2.9.18,4.43a7.78,7.78,0,0,0,1.11.16c2-.08,3.93-.2,5.89-.29.31,0,.62,0,.94,0,1.64,0,2,.23,2.29,1.82a36.48,36.48,0,0,1,.24,4.44c0,.47,0,.93,0,1.43-2.83,1-5.82.84-8.78.93-2.3.07-4.6.07-6.9.13-.5,0-1,.11-1.65.19-.43-1.44-1.33-2.75-1-4.45a10.11,10.11,0,0,0-.25-2.13q-.19-5.91-.32-11.82c0-1.14,0-2.29,0-3.43.09-3,.19-5.91.31-8.86.08-1.91.37-3.82.28-5.72-.65-13.94.18-27.89-.37-41.81-.39-9.82-.33-19.64-.42-29.45,0-.79-.32-1.66.36-2.38.09-.1-.06-.48-.17-.69A1,1,0,0,1,385,3.37a.93.93,0,0,0,.63-1.07c-.08-.93.41-1.16,1.23-1.16,2.5,0,5,0,7.5,0s5,0,7.49,0A3.09,3.09,0,0,1,404.06,1.79Zm-.43,52.46c-.32-.2-.47-.37-.61-.35s-.3.18-.45.28c.13.12.24.31.39.34S403.27,54.41,403.63,54.25Z"/><path class="cls-1" d="M20.17,58.92l-1,.58c.23.78.43,1.61.72,2.41.21.57.24,1-.46,1.14-.11,0-.26.35-.25.36.75.54,0,1.65.79,2.14-1.06,1.33-2.53,1.25-4,1.22-1.8,0-3.61,0-5.42,0a13,13,0,0,0-2.09.43c-.66,1-.36,2.39-.3,3.71,0,.71.16,1.43.24,2.14l.27,2.45a1.47,1.47,0,0,1,0,.62c-.61,1.69.13,3.38,0,5a11,11,0,0,0,.21,4.24c.26.87-.17,1.92-.16,2.89S9,90.28,9,91.25c0,1.63,0,3.26,0,4.89,0,.48-.16,1-.14,1.45.05,2,.18,3.93.21,5.89a15.83,15.83,0,0,1-.27,2.45c-.12.87.16,1.34,1,1.32,2.36,0,4.72-.19,7.08-.22a17.43,17.43,0,0,1,2.59.38c0,1-.24,2,.15,2.8.53,1-.15,1.71-.07,2.54,0,.35.38.69.38,1a2,2,0,0,1-2,1.87,36.18,36.18,0,0,1-6.9-.23c-.27-.06-.59.15-.89.17a4.21,4.21,0,0,1-1.69,0,11.16,11.16,0,0,0-5.53-.27,11,11,0,0,1-1.41,0,5,5,0,0,1-1-2.71,24.4,24.4,0,0,1,.35-6.93A4.59,4.59,0,0,0,1,104.37a27.58,27.58,0,0,1,0-8.65,4.07,4.07,0,0,0,0-.78c-.1-2-.11-4-.33-6-.17-1.54.1-3.06,0-4.58C.63,82.51.45,80.71.43,78.9.36,73.08.4,67.26.28,61.44c0-2.26,0-4.51,0-6.77s.07-4.68.09-7,0-4.58,0-6.87c0-1.18.29-2.36.27-3.54,0-1.81-.25-3.61-.27-5.42,0-4,0-8-.06-12C.32,17.08,0,14.34,0,11.6,0,9.77.2,7.93.28,6.08c0-.6-.07-1.21-.12-1.95.8-.7,1.89-.53,2.93-.52a18.27,18.27,0,0,0,5.42-.36.65.65,0,0,1,.31,0c1.42.43,2.84-.07,4.26,0s2.8-.09,4.2-.18a1,1,0,0,1,1.11.87A7.75,7.75,0,0,1,18.72,6a10.38,10.38,0,0,0,.61,4.25C18.09,11,17,11.83,15.48,11.7a29.08,29.08,0,0,0-3.07.25,13.42,13.42,0,0,1-2.62-.17c-1.38-.24-1.71,0-1.66,1.37a32.21,32.21,0,0,1,.27,3.23c-.17,2.5,0,5,0,7.48,0,1.23.26,2.46.27,3.69,0,1-.22,2.05-.25,3.08s.11,1.85.13,2.78c0,2,.05,3.93,0,5.9,0,.56-.19,1.12-.19,1.68,0,2.72.19,5.45,0,8.16-.09,1.45.11,2.91-.09,4.32-.24,1.75.36,3.47-.06,5.17a1.94,1.94,0,0,0,2.18.4,25.75,25.75,0,0,1,7.32-.69A13.08,13.08,0,0,1,20.17,58.92Z"/><path class="cls-1" d="M367.76,98.54c.06.21.31.57.22.76-.48,1-1.05,2-1.59,3-.34.63-.65,1.27-1,1.86-.73,1.09-1.52,2.14-2.29,3.21a11.29,11.29,0,0,1-4.16,3.81c-.42.21-.65.78-1,1.19-.75,1-1,1-2,.59a3.49,3.49,0,0,0-1.94-.26,4.73,4.73,0,0,1-2.82-.34c-.75-.23-1.23-.6-1-1.56.08-.45-.36-1-.36-1.47,0-1.12-.34-2.27.35-3.34a2.27,2.27,0,0,0,.11-1.23c-.11-2.33-.13-4.67-.46-7a17.66,17.66,0,0,1,.14-2.16c0-2.47-.15-5-.17-7.42,0-2.12,0-4.23.06-6.35,0-1.7,0-3.4,0-5.1s0-3.63-.08-5.45c0-.66-.18-1.32-.22-2s0-1.24,0-1.85a22.9,22.9,0,0,0,.16-3.4,13.25,13.25,0,0,1,0-2.09c.07-1.23-.2-2.48-.12-3.71.11-1.64-.4-3.24-.37-4.83.05-2.1-.3-4.18-.13-6.29s0-4.25,0-6.49l1.21-.11.1.24-.74.62,1.12.51c.41-.63.75-1.18,1.09-1.72.27.65.48,1.18.71,1.74h1.51a1.74,1.74,0,0,0-.41-1.87,2.2,2.2,0,0,1,2.81-.42l.43,1.61.83-1.08c1.31,1.1,2.79,2,3.62,3.61a7.56,7.56,0,0,0,1.45,1.61c1.67,1.74,3.45,3.39,5,5.23a37.08,37.08,0,0,1,2.57,4c2.18,3.34,3,7.11,3.79,11a71.77,71.77,0,0,1,.88,9.35,20,20,0,0,1-.25,5.33c-.52,2.51-.71,5.18-2.23,7.41a.83.83,0,0,0-.15.43,10.88,10.88,0,0,1-1.68,5.23c-.75,1.27-1.22,2.71-1.89,4A6.86,6.86,0,0,1,367.76,98.54ZM357.43,51.35a17.85,17.85,0,0,0,0,3.3c.53,2.62.28,5.26.33,7.89,0,2.23-.05,4.46-.05,6.69,0,2.7-.08,5.4.05,8.09s-.33,5.6.32,8.37a3.94,3.94,0,0,1-.05,1.23,8.13,8.13,0,0,0-.21,1.68c.19,1.94,0,3.88,0,5.82,0,.66.39,1.41.19,2-.47,1.29.13,2.36.26,3.68.26-.25.4-.33.46-.45.94-1.84,1.9-3.66,2.77-5.52,1.06-2.28,2.15-4.55,3-6.9.74-2,1.12-4.16,1.77-6.21.39-1.23.06-2.6.85-3.74.15-.22,0-.61.05-.92,0-1.32-.67-2.63-.05-3.95-.56-2.15-.56-4.41-1.08-6.53A23.23,23.23,0,0,0,363,58.05,47.84,47.84,0,0,0,357.43,51.35ZM371,71.72a1.51,1.51,0,0,0-.13.4s.18.15.23.12a1.14,1.14,0,0,0,.28-.26Z"/><path class="cls-1" d="M471.55,48.38c0,2.52,0,4.91,0,7.3,0,9.11-.08,18.22-.1,27.32,0,3.59-.16,7.2.17,10.77s.23,7.26.2,10.88c0,2,.09,4,0,6a91.43,91.43,0,0,0-.24,9.78c.38,4.63.12,9.24.23,13.86.07,2.94,0,5.88,0,8.82,0,2,.13,3.93.32,5.88a2.54,2.54,0,0,1-1.58,2.71,3.43,3.43,0,0,1-1.45.16,10.86,10.86,0,0,1-3,.13,3,3,0,0,1-2.37-3.38c.1-1.69,0-3.4,0-5.11,0-.31,0-.62,0-.93V97.42c0-.2,0-.41,0-.61l.6-.26a23.4,23.4,0,0,1-.91-4c-.2-4.71-.3-9.43-.33-14.16,0-2.32.25-4.65.27-7,0-1.7-.4-3.42-.25-5.1.45-5.19.18-10.38.27-15.57,0-.57,0-1.13,0-1.81-.56,0-1-.1-1.45-.1-2,0-4,0-5.93,0-1.26,0-1.61-.62-1.24-1.92.06-.18.16-.46.08-.55-.53-.57-.91-1.11-.08-1.74a.8.8,0,0,0-.17-.37.9.9,0,0,1,0-1.36c.12-.14-.07-.55-.15-1.11a2.6,2.6,0,0,1,2-1.22,76.21,76.21,0,0,1,10.34-.79c3.72-.09,7.45-.34,11.17-.49,1.29-.05,2.58,0,3.86,0,.85,2.59.52,5.06.53,7.48a12.71,12.71,0,0,1-5.65,1.16C475.06,48,473.27,47.6,471.55,48.38ZM466.1,98.3a1.6,1.6,0,0,0-.39-.26c-.07,0-.16.08-.25.12.07.11.11.28.2.3S465.89,98.38,466.1,98.3Zm-9.28-51.69a1.6,1.6,0,0,0,.39.2s.15-.16.13-.22a1,1,0,0,0-.22-.3Z"/><path class="cls-1" d="M178.08,107.19c.4,0,.63.12.7,0,.79-.81,1.81-.56,2.76-.58a55.23,55.23,0,0,0,7.15-.44,14.2,14.2,0,0,1,2.08-.08,1.59,1.59,0,0,1,1.47,2.44c-.08.19-.19.36-.33.62a1.7,1.7,0,0,1,.11,2.32,1.18,1.18,0,0,0-.08,1c.25.54.54.15.91-.26-.1.44-.07.78-.23.94a4.89,4.89,0,0,1-1.47,1.2,7.72,7.72,0,0,1-2,.19c-.77.08-1.53.24-2.3.26-1.81,0-3.64-.09-5.44,0s-3.87.56-5.82.73c-1.5.13-3,0-4.52.07-.6,0-.8-.41-1-.82a8.27,8.27,0,0,1-.51-4.86c0-.31.18-.6.19-.9.12-4.15.52-8.32.25-12.44-.41-6.35-.13-12.68-.22-19,0-3.06.16-6.12.3-9.17s.45-5.88.48-8.83c0-4-.09-8-.19-12,0-1-.21-2-.29-2.92a7.73,7.73,0,0,1,.16-1.27l1.37.72c.31-.77.34-.85-.25-1-1-.32-1.2-1-1.33-2-.51-3.83,0-7.69-.32-11.5-.48-5.25-.18-10.49-.23-15.73,0-2.21.4-4.41.56-6.62A18.89,18.89,0,0,0,170,4.86c0-.61-.2-1.22-.19-1.83,0-1.46.36-1.77,1.8-2,.54-.08,1.08-.25,1.62-.36a3.86,3.86,0,0,1,1.06-.14c.77,0,1.53.24,2.29.26a1.07,1.07,0,0,1,1.21.94,29.24,29.24,0,0,1,.1,8.81c0,.21-.06.41-.07.62-.11,3.05-.29,6.11-.29,9.16a74.58,74.58,0,0,0,.35,8.85,64.49,64.49,0,0,1,.24,6.51c.07,4.38-.16,8.77.18,13.11a133.83,133.83,0,0,1,.17,16.51c-.5,10.55-.21,21.1-.34,31.65,0,2.86,0,5.72,0,8.58Z"/><path class="cls-1" d="M71.25,77.12a22.31,22.31,0,0,1-.32-2.44c0-2-.06-4,0-5.93.08-2.7,0-5.39,0-8.08,0-.82-.17-1.64-.26-2.45a3.28,3.28,0,0,1,0-.62c.29-2.52-.14-5,0-7.55.06-1.4-.09-1.46-1.5-1.52-2.11-.1-4.22-.23-6.41-.35-.15-.88-.32-1.67-.41-2.47-.16-1.33-.27-2.67-.41-4a1.29,1.29,0,0,1,1.08-1.49c2.32-.4,4.62-1.15,7-.53a5.81,5.81,0,0,0,1.39.09c3.38,0,6.76,0,10.15,0a12.05,12.05,0,0,0,1.68-.21,9.86,9.86,0,0,1,4.37.67c.57.17.58.81.53,1.35-.16,1.5-.35,3-.5,4.52,0,.46,0,.93,0,1.49-2.85,1.5-5.92.68-9.07,1a30.4,30.4,0,0,0,0,3.7,82.67,82.67,0,0,1,.26,10.32c0,3,0,6,.14,8.94a30.89,30.89,0,0,1-.14,4.19,6.22,6.22,0,0,1-.47,1.44,5.22,5.22,0,0,1,.47,1.43c.11,3.32.15,6.65.24,10a14,14,0,0,0,.3,2.13c.58,3.08.29,6.2.4,9.3.06,1.61,0,3.21,0,4.82q0,15.54,0,31.07a16.73,16.73,0,0,0,.37,3.53c.63,2.93.39,5.87.44,9L73,149c-.45-1.24-.92-2.37-1.27-3.54a1.35,1.35,0,0,1,.21-1.15c.92-.89.68-2,.47-2.94a30.46,30.46,0,0,1-.59-9.38c.18-2-.14-4.13-.12-6.19,0-1.81.29-3.61.24-5.41-.07-2.46.26-4.93-.2-7.39-.18-1,.33-2.06.22-3.06-.54-4.72-.12-9.45-.3-14.16-.11-3-.4-6-.52-9-.08-2.07,0-4.14,0-6.21,0-1,.1-2,.16-3L72,77.4l0-.28Zm4.13-14.66-.46-.14c-.38.34-.31.71.25,1.41Zm-.07,2.63,0-.44c-.38.06-.88-.39-1.21.51Z"/><path class="cls-1" d="M45.52,41.55a1.7,1.7,0,0,1,2.41-.46,16.52,16.52,0,0,1,5.9,5.12A23.87,23.87,0,0,1,57,53.69c.31,1,1,2.21.31,3.42-.06.11.14.36.2.55a4.57,4.57,0,0,1-.5,4,29.79,29.79,0,0,1-6.91-.4,3.15,3.15,0,0,1-.42-1.87c0-1.45.21-3-.66-4.33a6.16,6.16,0,0,1-.82-2.16C47.88,51,46.41,50.06,45,48.78a13,13,0,0,0-1.48,1.78,11.31,11.31,0,0,0-1.55,5.25,40.4,40.4,0,0,0,.73,7.38,9.12,9.12,0,0,0,1.2,3c1.22,2.15,2.48,4.29,3.86,6.34a81.27,81.27,0,0,1,5,8.23,40,40,0,0,1,2.77,6.54,26.38,26.38,0,0,1,.83,5.48,44.82,44.82,0,0,1,0,4.49,21.13,21.13,0,0,1-1.85,8.39,35.62,35.62,0,0,1-2.23,4.71,14.52,14.52,0,0,1-7.13,6,9.28,9.28,0,0,1-7.58-.14A15.2,15.2,0,0,1,30,108.48a13.34,13.34,0,0,1-.93-4.82c-.18-2.64-.12-5.3-.16-8,0-1,.31-1.8,1.68-3.75l6.1,1.59.79,1.12C36.59,96.39,37,98.23,37,100c0,1.13.3,2.26.24,3.38a5.26,5.26,0,0,0,1.59,3.9s.08,0,.12.09c.75.76,1.36,2,2.6,1.69a5.05,5.05,0,0,0,3.59-2.47,27.74,27.74,0,0,0,2.32-5.39,18.07,18.07,0,0,0,1-6.25,27.68,27.68,0,0,0-1.28-6.62,41.88,41.88,0,0,0-5.52-10.17c-1.95-2.8-3.57-5.78-5.25-8.73a20.71,20.71,0,0,1-2-6.63,35.91,35.91,0,0,1-.25-10.19,15,15,0,0,1,2.76-6.82,12.49,12.49,0,0,1,2.59-3,9.8,9.8,0,0,1,5.44-1.89c.18,0,.4.4.6.61a.5.5,0,0,0,.11.1l.71.34.12-.4c-.23,0-.45-.11-.68-.14S45.61,41.51,45.52,41.55ZM49.17,111c.17-.1.33-.14.4-.25s-.13-.32-.18-.31a2.45,2.45,0,0,0-.48.2Z"/><path class="cls-1" d="M136.82,3.07c1.53.16,1.31-1.12,1.77-1.79,1,0,1.93.05,2.86,0,1.38-.1,2.74-.32,4.11-.43,1.8-.16,3.6-.33,5.41-.38,2.12-.07,4.25,0,6.45,0,.27,2.06.64,3.93.74,5.8s-.79,2.72-2.74,2.95c-2.3.27-4.6.35-6.91.41-1.22,0-2.45.28-3.52.42a221.91,221.91,0,0,0,.42,27.38,47.93,47.93,0,0,1,11.67-.52c.61,1,1.71,1.82,1.1,3.24-.46,1.08-.59,2.36-1.85,3l.55,1c-.1.15-.13.27-.2.31a5.58,5.58,0,0,1-2.81.69c-2.77.09-5.53.28-8.47.45a26.72,26.72,0,0,0,0,2.84,10.77,10.77,0,0,1,0,4.38,3.9,3.9,0,0,0,0,1.86,26.23,26.23,0,0,1,.24,7.45,56.25,56.25,0,0,0,.43,9.27c.58,0,1.18.09,1.77.06,1.39-.08,2.78-.21,4.17-.29,1.09-.06,2.18-.09,3.27-.1.73,0,1.46,0,2.18.09,1.44.15,1.9.54,1.49,1.86-.31,1-.19,1.9-.42,2.84a12.35,12.35,0,0,0-.05,2.83c-.78.91-2.15,1-3.46,1.09a50.39,50.39,0,0,1-5.22.17c-2-.06-4,.24-6,.25a40.68,40.68,0,0,1-4.27-.32c-.29,0-.72-.19-.79-.39-.41-1.15-1.26-2.2-1-3.52a10.87,10.87,0,0,0,0-4.29,48.55,48.55,0,0,1-.28-5.13c0-.61-.16-1.21-.23-1.82a2.26,2.26,0,0,1,0-.77c.73-2.92.41-5.9.17-8.8-.17-2.09.34-4.09.13-6.15-.26-2.46-.39-4.94-.5-7.41-.05-1.07.17-2.15.15-3.23,0-1.28-.3-2.57-.26-3.85a7.83,7.83,0,0,0-.32-3.6.27.27,0,0,1,0-.15c.73-2.29,0-4.6.14-6.9a2.61,2.61,0,0,0-.17-1.34c-.35-.63.73-.87.27-1.57-.24-.37,0-1.05,0-1.59,0-2.11.1-4.22.06-6.33-.05-2.53-.21-5.06-.29-7.6C136.62,4.7,136.75,4,136.82,3.07ZM140,19.93c-.17-.13-.27-.28-.39-.29s-.26.1-.39.15c.12.13.22.3.36.36S139.79,20,140,19.93Z"/><path class="cls-1" d="M493.44,88.78c-.62.36-.67,1-.65,1.72.09,2.38.19,4.75.24,7.13,0,.64-.17,1.28-.18,1.92s.1,1.43.15,2.15c0,.52.1,1,.1,1.55,0,3,0,6,0,9.09,1.56.68,3.43-.4,4.84,1,.42-.26.83-.55,1.28-.78a2.36,2.36,0,0,1,1-.32c1.16-.05,2.31.19,3.5,0s1.91,1.67,1.4,2.86c-.18.43-.49.7,0,1.16.18.16-.08.82-.15,1.25s-.16.71-.25,1.12l-1.16.49,1.24.37s0,.16,0,.2A6.83,6.83,0,0,1,501,121a9.31,9.31,0,0,1-3.93-.08c-.27-.08-.67.32-1,.37-.82.1-1.65.13-2.61.19-.56,2.51.37,5,.17,7.52s-.31,5.17-.31,7.75.21,5.06.33,7.75a47.52,47.52,0,0,0,5.61-.1,30.54,30.54,0,0,1,7.57-.38c.32,2.38.64,4.77.94,7a4.42,4.42,0,0,1-3,1.43c-2.51.38-5,.52-7.53.8-2.86.32-5.7.21-8.55.27a5.79,5.79,0,0,0-.91.16,1.61,1.61,0,0,1-2.14-1.61c-.08-3.16-.11-6.33-.12-9.5,0-6.35,0-12.7,0-19,0-3.84,0-7.68-.36-11.5a32.06,32.06,0,0,1,0-5.63,18.52,18.52,0,0,0-.21-2.76q-.07-1.37-.06-2.73a32.57,32.57,0,0,0-.28-6.16,12.09,12.09,0,0,1,.15-2.46c0-.5-.17-1-.17-1.49,0-2.55,0-5.1,0-7.65a3.86,3.86,0,0,1,.4-1.07l.93.54c.71-.48,1.44-1,2.2-1.49a1.34,1.34,0,0,1,1.45-.2,1.63,1.63,0,0,0,1.35,0c.93-.59,1.91-.34,2.87-.42,2.52-.19,5-.45,7.56-.59,1.55-.09,3.11,0,4.62,0,1,2.42.18,4.93.83,7.25a5,5,0,0,1-4.08,1.41c-2.46,0-4.93.23-7.4.33C494.72,88.9,494.11,88.81,493.44,88.78ZM497.15,119v.37a1.24,1.24,0,0,0,1.72-.37Zm1.66-2.8-.34,0c-.18.45-.31.89.44,1.24Zm3.41.46c-.26-.24-.38-.45-.52-.46s-.28.19-.42.3c.11.14.2.36.34.4S501.92,116.78,502.22,116.65Zm-3.37-2.35v-.42l-1,.11,0,.31Z"/></g></g></svg>