<?xml version="1.0" encoding="UTF-8"?><svg xmlns="http://www.w3.org/2000/svg" viewBox="0 0 529.93 170.36"><defs><style type="text/css">.cls-1{fill:#fff;}</style></defs><g id="Layer_2"><g id="Layer_1-2"><path class="cls-1" d="M363.14,169.58l-.41.74c-.15,0-.23.05-.24,0-.62-.67-1.22-1.36-1.85-2.06l-2.09.61a8.34,8.34,0,0,1-1.2-1.66,8.61,8.61,0,0,1-.43-2.26c-.12-1.29-.18-2.57-.23-3.86a5.68,5.68,0,0,1,.22-1,6,6,0,0,0,.28-1.65c-.11-1.28-.36-2.54-.52-3.81a9.32,9.32,0,0,1-.07-1.4q-.06-38.49-.11-77c0-2.71,0-5.41,0-8.12-.08-5.71,0-11.43-.37-17.12s-.05-11.11-.26-16.66c-.08-2.27-.47-4.54-.38-6.8.06-1.58-.23-3.32.73-4.56a12.48,12.48,0,0,1,1.73-.53,25.9,25.9,0,0,1,3.51-.34,2.35,2.35,0,0,1,2,.91c1.36,1.75,2.92,3.34,4.31,5.06,1.53,1.88,3,3.8,4.43,5.78,1.56,2.23,3,4.52,4.43,6.84a39.27,39.27,0,0,1,4.15,8.76c.08.24.18.48.28.72.87,2.2,1.87,4.36,2.58,6.62s1.12,4.59,1.62,6.9c.37,1.75.66,3.53,1,5.29A60.4,60.4,0,0,1,387.55,80c.05,2.52.39,5,.57,7.55.06.87,0,1.75,0,2.63,0,1.3,0,2.6,0,3.9q-.11,3.18-.32,6.35c-.09,1.44-.26,2.88-.39,4.32-.29,3-.45,6.07-.89,9.08a53.42,53.42,0,0,1-2,8.24c-.49,1.57-.85,3.18-1.2,4.78a92.81,92.81,0,0,1-5,15.6c-.45,1.09-.78,2.23-1.2,3.33-.23.62-.53,1.22-.81,1.83a7.08,7.08,0,0,0-.52,1.12c-.79,3.13-2.42,5.91-3.82,8.76-1.56,3.19-3.38,6.24-5.14,9.33-.6,1-1,2.32-2.46,2.63A10.21,10.21,0,0,1,363.14,169.58Zm1.78-17,.28,0a5.57,5.57,0,0,0,.58-.88c1.24-2.77,2.5-5.53,3.66-8.33.69-1.66,1.2-3.4,1.8-5.11,1.05-3,2.26-6,3.12-9,1.41-5.05,2.63-10.15,3.83-15.25a39.57,39.57,0,0,0,.78-5.33c.21-2,.29-4,.46-6,.14-1.85.46-3.7.47-5.55a143.17,143.17,0,0,0-.48-17c-.23-2-.27-4-.44-6a21.1,21.1,0,0,0-.43-2.74,41,41,0,0,1-1.27-5.7,36.34,36.34,0,0,0-2.17-8.83c-.36-1.12-1-2.15-1.31-3.28a36.39,36.39,0,0,0-3.4-7.74c-1.39-2.58-3.24-4.93-4.88-7.37l-1.08-1.57a1.19,1.19,0,0,0-.35.84L364.3,52c.07,5.19.13,10.38.25,15.57.37,16.32-.31,32.65.34,49a24,24,0,0,1-.26,7,4,4,0,0,0,0,1.24c.09,1.18.28,2.36.28,3.54,0,7.55,0,15.1,0,22.64Z"/><path class="cls-1" d="M448.13,90.42c-.23.08-.64.16-.64.25,0,.5-.14,1.21.13,1.48a1.43,1.43,0,0,1,.6,1.49c-.1.66.75,1.24,1.3,1.31.74.09,1,.62,1.45,1,.76.63.72.66,1.55-.07a4.13,4.13,0,0,1,.82-.49c.16.28.3.49.4.71a105.14,105.14,0,0,1,3.49,10.79c1.11,3.76,2.35,7.48,3.43,11.24,1.36,4.68,2.61,9.4,3.92,14.09.36,1.29.79,2.55,1.16,3.84.07.25-.07.57,0,.83s.3.25.42.34V120.29c0-2.73.07-5.47,0-8.2-.07-2.1-.4-4.2-.45-6.31,0-1.08-.47-2.26.32-3.29a.56.56,0,0,0,0-.42,12.12,12.12,0,0,1-.68-4.51c0-2.91,0-5.82-.11-8.72-.17-3.74-.5-7.47-.72-11.21-.08-1.42,0-2.86-.11-4.28-.25-2.82-.71-5.62-.89-8.44-.15-2.37,0-4.76,0-7.07.21-.12.32-.23.38-.21a7.27,7.27,0,0,0,1.88.62,9.41,9.41,0,0,0,2.3-.53l-.92,1.73.82.22.26,1.32,1.94-1.12.4-1.94h.39c.18,1.29.38,2.58.53,3.88.14,1.13.24,2.27.32,3.42a6.6,6.6,0,0,1-.07,1.08c0,.24-.17.55-.06.71.73,1.19.51,2.51.57,3.79s.08,2.34.12,3.51c.06,1.58.1,3.17.2,4.75.12,1.93-.29,3.92.48,5.8a.78.78,0,0,1,0,.16c.11,1.49.29,3,.3,4.47,0,1.89-.12,3.78-.18,5.67a.8.8,0,0,0,0,.44c.79,1.22.27,2.53.28,3.81a29,29,0,0,0,.34,3.83c.09.61.4,1.16-.18,1.71-.13.12,0,.54,0,.83a25.83,25.83,0,0,1,.37,2.9c.05,5.51,0,11,.05,16.55,0,2.21.1,4.43.09,6.64,0,3.46-.09,6.92-.09,10.37,0,1.29.17,2.57.19,3.86,0,.9-.16,1.81-.17,2.71,0,1.74,0,3.49,0,5.23,0,2,.47,4,0,6a17.13,17.13,0,0,0,0,3.46l-2.46.59-.32,1c-.94.26-1.9-.11-2.75.62-.28.25-1.11-.08-1.67-.23a4,4,0,0,1-.9-.55,1.82,1.82,0,0,0,0-1.33,44.74,44.74,0,0,1-2.53-7.67c0-.1-.13-.23-.1-.29.5-.85-.42-1.36-.5-2.08,0-.19-.14-.38-.15-.57-.05-.84.08-1.61-.73-2.33-.53-.47-.54-1.52-.78-2.3-.67-2.21-1.32-4.41-2-6.61a1.45,1.45,0,0,1,.4-1.67,5.7,5.7,0,0,0,.69-1.12l-.52-.24v0c-.12-.63-.23-1.26-.35-1.89l-.2,0-.38,1.18c-1.48-.58-1-2.16-1.84-3l.5-.43c-.82-.34-.77-.35-1-1.18-.28-1.15-.63-2.28-.95-3.42-.51-1.78-1-3.56-1.53-5.35-.88-3.11-1.73-6.23-2.63-9.34-.35-1.24-.81-2.45-1.17-3.69-.77-2.61-1.35-5.29-2.32-7.83-.63-1.67-.55-3.55-1.65-5a1.44,1.44,0,0,1-.13-.76,4.56,4.56,0,0,0,.08-1.36c-.14-.42-.72-.68-.87-1.1-.63-1.63-1.15-3.29-1.73-4.93a25.48,25.48,0,0,0-1.6-3.85c-.08,19.21-.15,38.41-.23,57.72-1-.1-1.36.59-1.78,1.3,1.84.51,1.87.51,1.83,2.41,0,.87-.18,1.74-.27,2.6a2.27,2.27,0,0,0,0,.78,14.79,14.79,0,0,1,0,6,11.45,11.45,0,0,0,0,2.48c0,.2.11.39.1.58-.15,2-.18,1.94-2.28,2.41-1.53.34-3-.1-4.42-.21-.39,0-1.12-.11-1.05-.88l1.08.07,0-.25-1.09-.26a1.41,1.41,0,0,1-.48-2.08,2.72,2.72,0,0,0,.19-1.44c-.07-1.54.08-3.09.1-4.65,0-.58-.16-1.17-.16-1.76,0-1.87-.14-3.76,0-5.62.65-8.25.18-16.51.27-24.77s0-16.55,0-24.83V75.73c0-1.77.08-3.54,0-5.3-.13-2.62-.4-5.24-.58-7.86a11.44,11.44,0,0,1,0-2.19,1.46,1.46,0,0,1,.57-1c1.22-.53,2.36-1.54,3.86-.87.38.17.56,0,.89-.26a2,2,0,0,1,2.83.95,16.37,16.37,0,0,1,.52,2.56,7.78,7.78,0,0,1-.19,1.79l0,0c-.13.32-.25.63-.44,1.12,1.34,0,1.65.87,2,1.82.65,1.78,1.44,3.51,2.14,5.27.24.61.41,1.26.61,1.9.36,1.15.68,2.31,1.07,3.46.31.92.68,1.83,1,2.74a1.94,1.94,0,0,1-.44,2.55c1.6.4,1.94,1.51,2.17,2.76a17.48,17.48,0,0,0,.73,2c.18.58.28,1.18.41,1.78l0,0-1.82-.65-.1.75Zm-11,46.75a1.36,1.36,0,0,0,1.61-.45h-1.61a1.11,1.11,0,0,0-1.35.45Zm29.2-74.06c-.2.71-.48,1.42.29,2.18.29-.9.49-1.6-.31-2.16l-1.44-.28c.05.77.09,1.32.14,2.12C465.85,64.34,465.45,63.26,466.35,63.11Zm-20,15.18c-.84-.43-.87-1.74-1.91-1.08L443.86,79Zm1.9,7.7c-.55,0-1-.19-1.14,0-.37.31-.28.75,0,1.27C447.48,86.81,447.76,86.5,448.25,86Zm-10.08,54.38.09,1.32,1.78-.37Zm-2.34,2.2c.28-1-.21-1-.8-.89-.1,0-.18.2-.31.35Zm17.34-30.5c-.3-.14-.48-.3-.62-.27a.48.48,0,0,0-.3.38.54.54,0,0,0,.4.32C452.78,112.5,452.92,112.29,453.17,112.07ZM441.92,66.25l.25.14.41-.69a3.33,3.33,0,0,0-.39-.13C442.08,65.79,442,66,441.92,66.25Zm29.23,19.38c-.59.58-.63.91,0,1.41Zm-5.85,56.84.48.17a8.64,8.64,0,0,0,.24-.83,1.21,1.21,0,0,0-.37-.11A7.59,7.59,0,0,0,465.3,142.47Zm0,13.89.43,0c.24-.45.31-.85-.5-1.29Zm2.09-95.76-.25-.07a5.3,5.3,0,0,0-.23.67,1.64,1.64,0,0,0,.36.16Zm1.88,2.13a2.06,2.06,0,0,0,.61.09c.09,0,.15-.21.22-.32a1.84,1.84,0,0,0-.49-.15C469.57,62.35,469.49,62.53,469.31,62.73ZM435.5,72.65a1.74,1.74,0,0,0-.41-.24c-.07,0-.16.09-.24.14s.13.27.22.29S435.3,72.75,435.5,72.65Zm8.17,4.76c-.17-.13-.27-.28-.38-.29s-.27.09-.4.15a1.54,1.54,0,0,0,.36.36C443.33,77.67,443.48,77.52,443.67,77.41Zm1.95,5.8c-.25-.15-.37-.29-.46-.26a1.41,1.41,0,0,0-.4.27c.1.09.2.25.29.24A2,2,0,0,0,445.62,83.21Zm24.46,1.72c-.05-.13-.07-.28-.12-.29a1.81,1.81,0,0,0-.39,0c0,.11.06.3.13.32S470,85,470.08,84.93Zm-22.66,4.36c-.16-.14-.26-.29-.37-.3s-.26.11-.39.17a1.45,1.45,0,0,0,.35.35C447.08,89.54,447.24,89.39,447.42,89.29Zm19.13,2.2-.26,0v.73a1.55,1.55,0,0,0,.36-.07A5.58,5.58,0,0,0,466.55,91.49ZM464.64,143a1.6,1.6,0,0,0-.39-.2s-.16.16-.14.22a1.21,1.21,0,0,0,.22.3Zm-2.18.77c-.24-.09-.43-.23-.6-.21s-.37.27-.34.36.23.35.36.52Zm1.87,3.85c.11-.2.23-.32.22-.42s-.14-.22-.22-.32c-.08.1-.22.2-.23.31S464.21,147.45,464.33,147.65Z"/><path class="cls-1" d="M196,162.3a1.64,1.64,0,0,0-.1-.45c-.28-.53-1.08-.8-.52-1.7.25-.42.16-1.05.48-1.61a8.9,8.9,0,0,0,1-2.91c.58-3.56,1.44-7,2.32-10.54s1.46-6.84,2.18-10.26c.4-1.92.83-3.82,1.23-5.74q1.13-5.36,2.24-10.72c.39-1.86.8-3.72,1.17-5.58.42-2.17.79-4.36,1.21-6.53.51-2.67,1.08-5.34,1.55-8,.38-2.18.63-4.38,1-6.56.42-2.7.85-5.39,1.32-8.07.39-2.18.84-4.34,1.25-6.51.56-2.93,1.13-5.86,1.68-8.79.39-2.13.73-4.26,1.14-6.38.32-1.61.51-3.28,1.81-4.71,1.15.24,2.38.5,3.61.74a5.59,5.59,0,0,0,.91.08,2.91,2.91,0,0,1,3,2.62c.46,2.53.92,5.07,1.22,7.62.29,2.36.35,4.74.56,7.11.13,1.43.36,2.85.54,4.28.05.41.05.83.07,1.24a75.49,75.49,0,0,0,.68,8.49c.33,2.19.37,4.42.58,6.63.14,1.54.39,3.06.54,4.6.08.82.05,1.66.1,2.48.12,1.91.13,3.84.42,5.72.5,3.16.2,6.39,1,9.52a31.58,31.58,0,0,1,.49,5.09c.19,1.73.44,3.46.64,5.2a76,76,0,0,1,.9,8,47.86,47.86,0,0,0,1.59,9.78c.17.75.19,1.53.3,2.3a71.92,71.92,0,0,0,1.35,8.52,17.77,17.77,0,0,1,.5,2.9c.18,1.79.31,3.6.42,5.4a1.77,1.77,0,0,1-1.71,1.79,32.26,32.26,0,0,1-3.26.23c-.75,0-1.51,0-2.5,0a5.16,5.16,0,0,0-.63-1.81c-.55-.66-.18-1.25-.23-1.88-.13-1.59-.33-3.18-.57-4.76-.29-2-.65-4-1-5.93-.33-2.13-.66-4.27-1-6.41-.39-2.8-.75-5.61-1.12-8.42-.23-1.73-.46-3.47-.7-5.2-.1-.76-.23-1.52-.33-2.29-.14-1.11-.26-2.23-.4-3.42a20.44,20.44,0,0,0-4.08.13c-1.94.29-3.93.21-5.9.31-.65,0-1.3.14-1.92.2-.73,3.13-1.45,6.07-2.09,9-.34,1.55-.51,3.15-.84,4.71-.42,2.06-.89,4.12-1.39,6.16-.35,1.45-.85,2.87-1.17,4.32-.48,2.21-.84,4.45-1.29,6.67-.36,1.81-.74,3.62-1.16,5.43-.24,1.07-.45,1.15-1.5.95a10.43,10.43,0,0,0-1.84-.18,2.11,2.11,0,0,1-2.06-1.52,15.89,15.89,0,0,0-1.14-2.05l-.69.66ZM219.06,86l-.31-.06c-1.56,11.41-3.62,22.73-6,34.26l9.19-.82c-.06-.9-.08-1.67-.16-2.43-.18-1.69-.43-3.37-.57-5-.22-2.68-.23-5.38-.58-8s-.59-5.22-.68-7.85c0-.31-.05-.62-.09-.93-.18-1.47-.39-3-.53-4.43S219.15,87.52,219.06,86Zm-12.5,39.17.79,1.35C207.83,125.3,207.83,125.3,206.56,125.14Z"/><path class="cls-1" d="M187.14,41.33a1.52,1.52,0,0,1-.77-1.53,42.44,42.44,0,0,1,.24-6.09c.23-1.31-.42-2.25-.62-3.37s-.55-2.37-.8-3.57a9.49,9.49,0,0,0-2.47-4.27,4.68,4.68,0,0,0-4.48,1.2,5,5,0,0,1-1,.51c-.38-.63-.38-.63-1.1,0h1.14c-.05,2-1,3.77-1.67,5.57-.35.91-1.29.92-2.7.28l-.21-1.18c-.15.07-.29.08-.31.14-.19.48-.36,1-.58,1.56.54.28,1.32.65,1,1.58,1.2,1.25,1.12-1,2.13-.59-.4,1.85-.79,3.68-1.17,5.51-.12.54-.16,1.11-.28,1.66s-.26,1.11-.44,1.84c.53.43.4,1.27.32,2.07-.22,2.2-.59,4.39-.68,6.6-.12,3,.17,6.13-.11,9.16-.19,2.05.34,4,.07,6.09a41.93,41.93,0,0,0,.13,7A33.22,33.22,0,0,1,173,76a24.47,24.47,0,0,0,.05,4.53c0,.52,0,1,0,1.56.1,2.43.35,4.87.27,7.29-.08,2.25.15,4.49.18,6.74,0,2.62.36,5.24.55,7.86a4.81,4.81,0,0,1-.11.91,4.3,4.3,0,0,0-.15,1.06c.24,2.34.64,4.66.77,7,.17,3.26,1.58,6.17,2.47,9.22a6.82,6.82,0,0,0,2.29,3.43,1.69,1.69,0,0,0,2.22.16,7.5,7.5,0,0,0,3.2-6.17c0-.74.47-1.48.52-2.23a22.46,22.46,0,0,0-1.44-10.48c-.19-.46-.31-1-.46-1.45a1.29,1.29,0,0,1,.7-1.59l3.2-1.54c.28-.14.64-.23.78-.46a1.09,1.09,0,0,1,1.74-.26c.75.68,2.18,1,1.71,2.57a.31.31,0,0,0,0,.27c1.1,1.11.76,2.59,1,3.91,0,.2,0,.45,0,.62.86,1.86.51,3.84.62,5.79.19,3.64-.73,7.13-1.42,10.64a6.62,6.62,0,0,1-1.91,3.31,23.2,23.2,0,0,1-4.49,4,16.11,16.11,0,0,1-3,1.19c-.14,0-.39-.23-.6-.32s-.4-.09-.44,0c-.68,1.07-.91-.05-1.33-.26-.64-.62-.64-.62-1.75-.32.58.46,1.22.19,1.79.28-.09.45-.27.72-.81.72a6.68,6.68,0,0,1-4.64-2.12c-.2-.18-.42-.34-.63-.51-.58-.48-1.36-.84-1.72-1.44a33.83,33.83,0,0,1-3.86-7.87q-.7-2.49-1.26-5c-.36-1.67-.42-3.37-.85-5a1.7,1.7,0,0,1-.07-.91,3.87,3.87,0,0,0-.18-2.38,10.07,10.07,0,0,1-.22-4.3,4.34,4.34,0,0,0,.05-1.25c-.15-2.52-.36-5-.49-7.58-.06-1.19,0-2.39,0-3.59a16.84,16.84,0,0,0-.24-3.81,16.87,16.87,0,0,1-.08-3.34c0-2.7,0-5.4,0-8.11a53.45,53.45,0,0,0-.15-6.7c-.45-3.46-.15-6.91-.26-10.36-.09-2.57-.27-5.13-.29-7.7a37.93,37.93,0,0,1,.33-4.63c0-.34.45-.64.64-.9a4.12,4.12,0,0,1-.34-1.26c.07-1.71.24-3.4.35-5.1,0-.62,0-1.25.05-1.87a6.91,6.91,0,0,1,.26-1.09H166a2.24,2.24,0,0,0,.31.72A1,1,0,0,0,167,38c.38-.06.34-.27.23-.66a.93.93,0,0,1,.68-1.2c.68-.11.38-.64.56-.94a.88.88,0,0,0,.52-1.34c-.25-.49-.73-.35-1.15-.1l.67,1.49-2.27-1c.8-1.62.12-3.82,1.77-5.28l1.27,1.76,1-.38-.72-.8,1.8-.18a1.44,1.44,0,0,0,.14-.55c-.23-1.15-.1-1.57.63-3.23a1.27,1.27,0,0,0-.55-1.86,5.18,5.18,0,0,0,.36-1c0-.2-.14-.43-.22-.64-.22.09-.58.12-.64.28-.31.74-.69,1.17-1.5.6h0a6.4,6.4,0,0,0,1.79-2.44,10.13,10.13,0,0,1,3.51-4.39,9.24,9.24,0,0,1,4.26-1.66,12.27,12.27,0,0,1,6.77.64,7,7,0,0,1,3.21,2.69c.63,1,1.44,1.85,2.16,2.78.18.24.47.53.45.78-.08,1.61,1.1,2.82,1.32,4.35s.85,3.07,1.22,4.62a17,17,0,0,1,.17,2.16c.06.67.18,1.32.25,2a7.5,7.5,0,0,1,0,1.25c-.12,1.64-.31,3.28-.39,4.93a2.9,2.9,0,0,1-2.28,3.07c-.08-.12-.16-.35-.26-.36-1.8-.21-3-1.77-4.71-2.14Zm5,.87c-.24.17-.49.33-.72.51,0,0,0,.16,0,.35l1.09-.24-.37-.62c-.62-.5-.05-.92.1-1.35l-1.5-.25c.14.59.29,1.15.44,1.78ZM174.85,27.5l.22,1.57c.5-.87.25-1.25-.23-1.56-.92-1.05-1.32,0-1.93.47l.89.8Zm-4,4.13c-.87-.37-.87-.36-1.54.09C170.08,32,170.08,32,170.8,31.63Zm10.95-15.9c-.4.84-.4.84,0,1.34ZM172.11,39h-1.39C171.15,40,171.19,40,172.11,39Zm17.41-5.5.32,0a6.48,6.48,0,0,0,.18-1c0-.08-.29-.17-.5-.28Zm-.86-.57a2.79,2.79,0,0,0,.32-.78c0-.14-.2-.27-.31-.41-.15.15-.4.29-.43.46S188.43,32.52,188.66,32.89Zm1-8.93.13.5a8.39,8.39,0,0,0,.84-.3s-.06-.27-.09-.42ZM170.51,106.6c-.5-.16-1.33-.61-1,.67Zm15.18-89.18,0,.37c.38.07.8.34,1.1-.37Zm-10,8-.08.38.82.1,0-.28Zm9.28-9.57a1.6,1.6,0,0,0-.39-.26c-.07,0-.16.08-.25.12.07.11.12.28.2.31S184.72,15.9,184.93,15.81Zm3,24c-.12-.06-.26-.19-.37-.18s-.3.23-.28.27a1.61,1.61,0,0,0,.34.4Zm-1,73.9c-.21.32-.35.45-.37.61s.12.24.19.36c.15-.1.36-.17.41-.3S187.08,114.1,187,113.74Zm-17.39,5.66c-.38-.1-.58-.22-.75-.19a.51.51,0,0,0-.35.35c0,.14.18.3.28.45Z"/><path class="cls-1" d="M139.33,14.18a9.7,9.7,0,0,1,6.89,2.31,13.65,13.65,0,0,1,2.57,3.31A11.25,11.25,0,0,1,150,22.16a18.34,18.34,0,0,1,.88,3.08c.51,2.83,1,5.67,1.37,8.51.29,2.22.4,4.45.59,6.68,0,.1,0,.21,0,.31.23,2.08.48,4.16.69,6.25.07.67,0,1.35,0,2,.12,1.38.28,2.76.43,4.14,0,.11.09.22.06.31-.65,1.79.24,3.56.1,5.35s0,3.53-.19,5.26a13.51,13.51,0,0,0-.22,2.83,10.47,10.47,0,0,1,.28,1.42,7.55,7.55,0,0,1-.48,1.46.8.8,0,0,0,0,.46c.62,2.48-.16,5,0,7.43a.79.79,0,0,1,0,.46c-1.08,1.83-.42,4-1,5.88-.31,1-.24,2.17-.57,3.19-.81,2.5-1.18,5.21-2.92,7.33-1.09,1.31-2,2.85-3.65,3.58a7.47,7.47,0,0,1-6.3.32c-1-.46-2.16-.73-3.14-1.27a6,6,0,0,1-3.07-3.31c-.21-.61-.87-1-1.24-1.56a24.87,24.87,0,0,1-1.87-5.06,15.11,15.11,0,0,1-.58-2.41c-.15-.85-.22-1.72-.33-2.59s-.22-1.52-.33-2.28c-.23-1.56-.47-3.11-.7-4.67,0-.15.06-.35,0-.46-.4-.65.9-1,.15-1.91-.39-.46-.12-1.5-.16-2.27s-.13-1.44-.16-2.17a11.76,11.76,0,0,0-.06-2.15c-.66-2.51-.53-5.09-.73-7.63-.1-1.37-.27-2.74-.26-4.11s.32-2.58.26-3.86c-.17-3.61.15-7.21.17-10.82a33.91,33.91,0,0,1,.65-4.42,39.59,39.59,0,0,1,.84-5.79c.62-2.05.62-4.27,1.76-6.18.52-.87.76-1.9,1.22-2.81.17-.35.6-.59.91-.88.09-.09.21-.18.24-.28a7,7,0,0,1,3.67-4.64A4.22,4.22,0,0,1,139.33,14.18Zm7.8,48.54A1.23,1.23,0,0,1,146,61.26c.05-.87,0-1.76,0-2.64a28.44,28.44,0,0,0-.17-5.85c-.45-2-.08-4.06-.52-6.05a9,9,0,0,1-.2-2c0-2.72-.63-5.36-.88-8a69.83,69.83,0,0,0-.83-7c-.22-1.14-.52-2.28-.7-3.43a6.65,6.65,0,0,0-1.75-3.47c-.37-.4-.81-.51-1.17,0a14.86,14.86,0,0,0-1.68,2.51,26,26,0,0,0-1.52,5.46c-.32,1.71-.38,3.48-.57,5.22,0,.18-.12.46-.24.49-.48.1-.26.31-.24.63a8.74,8.74,0,0,1,0,3.5,15.63,15.63,0,0,0-.76,4.38c-.19,2.31,0,4.66-.08,7s.34,4.72.05,7.07a.67.67,0,0,0,0,.31c.68,2.2.42,4.51.85,6.74a30.23,30.23,0,0,1,.14,4c0,.87.46,1.81.23,2.58-.37,1.26.1,2.32.28,3.46.09.55.11,1.12.16,1.68a11.06,11.06,0,0,0,.15,1.84c.58,2.29.52,4.72,1.56,6.9a2.13,2.13,0,0,1,.19.73,4,4,0,0,0,1.74,3,1.85,1.85,0,0,0,2.12.4c.61-1.65,1.33-3.35,1.86-5.11.39-1.33.5-2.73.77-4.09a14.75,14.75,0,0,0,.49-1.61c.26-2.91.47-5.81.68-8.72a7.08,7.08,0,0,1,.05-1.85,5.27,5.27,0,0,0,.1-2.84C145.91,65.14,145.47,63.65,147.13,62.72ZM133.79,76.05c-.77,0-1.33-.2-1.86.19l1.63,1.58Zm19.26-6.52h-.38a1.71,1.71,0,0,0,.38,2.06Zm-1.08,2,.2-.37c-.21-.09-.44-.27-.64-.24s-.36.26-.46.44.2.36.33.37S151.78,71.55,152,71.48Zm-4.26-2.86.46.52c.17-.07.4-.09.49-.22a1.56,1.56,0,0,0,.14-.6l-.31-.2ZM152,65.83c.68.61,1.08.66,1.64-.09Zm-3.84-27-.36.33a1.86,1.86,0,0,0,.41.33s.29-.2.27-.24A1.56,1.56,0,0,0,148.19,38.85ZM130,49.84a2.06,2.06,0,0,0-.41-.23c-.07,0-.16.08-.24.13s.13.27.22.29S129.74,49.94,130,49.84Zm21,16.16c-.17-.11-.28-.24-.39-.24s-.26.11-.39.17a1.44,1.44,0,0,0,.39.35C150.6,66.3,150.75,66.13,150.93,66ZM147,68.57a2.42,2.42,0,0,0-.2.39s.17.16.22.14a1.1,1.1,0,0,0,.31-.22Zm4.61.33-.42.23c.09.1.16.26.26.28s.25-.09.37-.15Zm-3.26,2.18a2.38,2.38,0,0,0,.22-.39s-.15-.16-.21-.15a1.6,1.6,0,0,0-.32.21Zm-17.44,5-.41,0,.1.8.31,0Zm19.27,4.25.35,0-.11-.75-.24,0Zm-16.79.78c-.18-.14-.27-.25-.38-.28a.38.38,0,0,0-.24.1c0,.12.07.3.15.32S133.16,81.2,133.39,81.13Z"/><path class="cls-1" d="M110.87,101.4l3.32,5c2.1,3.17,4.24,6.33,6.3,9.54,1,1.51,1.75,3.15,2.68,4.69,1.13,1.9,2,3.9,3,5.87.06.14.09.37.19.4,2.26.81,2.21,2.86,2.53,4.7,0,0,0,.1,0,.23l-1.25.32c-.13.55-.52,1.13.42,1.89a5.23,5.23,0,0,0-4.16,1.7c-1.42-.07-2-1.2-2.6-2.08a73.49,73.49,0,0,1-4.8-8.47c-.81-1.6-1.84-3.1-2.8-4.63-.51-.82-1.09-1.61-1.62-2.43-1.52-2.38-3-4.78-4.57-7.16-.07-.11-.24-.16-.52-.33,0,.48-.09.87-.09,1.25,0,5,.11,10-.06,15-.07,2,.31,4.08,0,6.17-2.27,1.24-4.87.63-7.08,1.51a19.48,19.48,0,0,1-1-1.69,8.4,8.4,0,0,1-.27-4.28c0-.56.19-1.12.2-1.68,0-2.5,0-5,0-7.49,0-.93.19-1.84.27-2.77a9.34,9.34,0,0,0,0-1.4c-.08-1.23-.23-2.46-.28-3.7-.13-2.68-.2-5.38-.34-8.06,0-.63-.43-1.3-.3-1.86a32.2,32.2,0,0,0,.29-7.4c0-2.37-.32-4.74-.48-7.11s-.26-4.75-.44-7.12c-.16-2.16-.4-4.31-.59-6.46,0-.42,0-.84,0-1.25-.07-2.86-.12-5.71-.22-8.57,0-.82-.23-1.63-.28-2.45s.06-1.53,1-1.84c.3-.1.52-.49.77-.75A4.83,4.83,0,0,1,101,57.28a13,13,0,0,1,9.21,2.46,16.16,16.16,0,0,1,5.18,5.84c.57,1.09,1,2.26,1.65,3.3,1.13,1.82,1.08,4,1.77,5.89-.53,1.25.44,2.26.63,3.39a20.51,20.51,0,0,1,.18,8,17.53,17.53,0,0,0-.3,2.61c-.14,2.26-1.24,4.12-2.34,6a23.78,23.78,0,0,1-5.17,5.7C111.5,100.69,111.24,101,110.87,101.4Zm-4.53-7.14A11,11,0,0,0,110,90.61a5.4,5.4,0,0,0,1.3-3.53c0-.51.09-1,.12-1.55a38,38,0,0,0,.14-5.11,56.91,56.91,0,0,0-1.1-5.74,15.07,15.07,0,0,0-4.57-8,4.32,4.32,0,0,0-1.26-.53c.17,1.56.41,2.84.42,4.11,0,4,.4,8,.81,12,.33,3.29.32,6.62.46,9.93C106.36,92.82,106.34,93.43,106.34,94.26Zm15.91,33.06-.43.23c.09.1.16.27.26.29s.25-.1.37-.15Z"/><path class="cls-1" d="M273.56,19.66a1.44,1.44,0,0,1,2.09.8c.34.67,1.08.85,1.61,1.27a23.23,23.23,0,0,1,3,2.9c1.19,1.34,2.32,2.74,3.42,4.16a49.71,49.71,0,0,1,6.66,12A42.25,42.25,0,0,1,291.59,46c1.39,5.29,1,10.7.84,16.09a14.06,14.06,0,0,1-.65,3.31,53.67,53.67,0,0,1-3.35,9.95c-.54,1.08-1.18,2.11-1.73,3.19s-1,2.32-1.64,3.44c-1.81,3.31-4.44,6-7.06,8.62-.83.83-1.81,1.53-2,2.84a1.14,1.14,0,0,1-.89.65,3.82,3.82,0,0,0-2,.62c-.19.12-.61.21-.71.1-.87-.91-1.45-.21-2.08.32a1.46,1.46,0,0,1-.36.2A9.07,9.07,0,0,1,268.2,94a7,7,0,0,1-1.36-5c0-.15.06-.37.16-.42,1-.55.77-1.49.75-2.35-.05-3.37.09-6.77-.24-10.12-.78-7.92-.35-15.87-.75-23.79-.2-3.84-.09-7.67-.27-11.51-.09-1.89-.38-3.78-.58-5.68a3.54,3.54,0,0,1,0-.46c-.07-2.44-.12-4.88-.22-7.32-.08-2-.22-4-.31-6-.05-1.13-.23-1.6,1.35-1.94,1.76-.38,3.49-.9,5.42-1.41Zm.33,9.85a11.24,11.24,0,0,0-.06,1.24c.07,1,.2,1.94.28,2.92,0,.41,0,.83,0,1.24.17,2.27.39,4.53.5,6.8.18,3.57-.07,7.14.26,10.73.38,4.1.27,8.25.38,12.38q.21,7.7.43,15.4c0,.11.14.23.29.47a10.73,10.73,0,0,0,1.19-1.3,27,27,0,0,0,1.87-3.2c1.13-2.42,2.22-4.87,3.23-7.36a34.49,34.49,0,0,0,1.33-4.26,16.61,16.61,0,0,0,.78-4.08,75,75,0,0,0-.23-9.94,28.63,28.63,0,0,0-2.46-9.33c-.44-.88-.78-1.8-1.26-2.65-.66-1.16-1.42-2.26-2.11-3.41a10.92,10.92,0,0,0-.75-1.49C276.43,32.3,275.22,31,273.89,29.51Zm4.2-.58c-.2-.12-.36-.28-.42-.25a1.32,1.32,0,0,0-.35.39,1.3,1.3,0,0,0,.41.13C277.84,29.19,277.93,29.05,278.09,28.93Z"/><path class="cls-1" d="M61.65,26.79c-.27-2.24-.54-4.57-.8-6.85A5.78,5.78,0,0,1,65,19a28.63,28.63,0,0,0,2.93,0h5.45c1.61,0,3.21,0,4.81,0,1.09,0,2.18-.05,3.27-.06,2.64,0,5.28,0,7.92,0,1,0,2.07.16,3.1.16S94.76,19,95.9,19a5.3,5.3,0,0,1,.89.07l.69,7.18c-1.89,1.53-4.08.91-6,1.45a2.23,2.23,0,0,1-.76-.07,20.5,20.5,0,0,0-2.46-.18c-1.45,0-2.89.17-4.33.29-.6.05-1.21.14-2,.23,0,1.67,0,3.23,0,4.78,0,2.94,0,5.88,0,8.82,0,.87.21,1.74.27,2.61a17.62,17.62,0,0,1,0,2.18c0,.82-.26,1.64-.24,2.45,0,2,.19,4,.24,6,0,.61-.24,1.22-.25,1.83,0,4.68-.06,9.36-.12,14,0,1.65-.22,3.29-.22,4.94,0,1.44.2,2.89.19,4.33,0,1.18-.24,2.36-.26,3.54,0,.92.24,1.84.25,2.76s-.1,1.85-.16,2.78a5.87,5.87,0,0,0-.07,1.38,27.34,27.34,0,0,1,0,7.56,35.73,35.73,0,0,0,0,6.86c.07.84-.19,1.6-.11,2.41.16,1.74.26,3.5.31,5.25a17.43,17.43,0,0,1-.23,2.15,4.73,4.73,0,0,0-.05.92c.13,1.44.26,2.88.4,4.32,0,.51.17,1,.2,1.52a13.61,13.61,0,0,1,0,1.69c0,1-.19,2-.17,2.93a25.16,25.16,0,0,0,.31,3.69,4.71,4.71,0,0,1-.67,3.56H74.47a9.18,9.18,0,0,1-.41-3.41,12.49,12.49,0,0,0,0-3.56,12.54,12.54,0,0,1,0-3.67,17.61,17.61,0,0,0-.24-3.68c-.12-1.39-.33-2.78-.35-4.17,0-3.79-.07-7.58,0-11.37,0-2.06.27-4.12.35-6.19,0-.75-.24-1.52-.25-2.28-.06-3.9-.12-7.8-.11-11.7,0-6.23-.1-12.48.17-18.71.12-2.9,0-5.81.29-8.69a24.94,24.94,0,0,0,0-5.53,24.32,24.32,0,0,1,.21-4.16c0-1.2,0-2.4,0-3.59,0-.82-.26-1.64-.24-2.45,0-2.37-.12-4.73,0-7.09.07-1.48-.39-2.93-.06-4.43.2-.9-.16-1.2-1.15-1.19s-2.15.17-3.23.23a13.08,13.08,0,0,1-2.34,0C65.36,27.44,63.65,27.12,61.65,26.79Z"/><path class="cls-1" d="M494.5,128.42c-.3,1.21-1.28,1.36-2.3,1.39-.1.46-.18.85-.29,1.4L490,130.12c-.18.23-.32.59-.49.61a1,1,0,0,1-.77-.33,9.25,9.25,0,0,1-.92-2.76c-.15-2.43-.14-4.88-.14-7.32q0-34.9,0-69.83c0-3.57-.18-7.15-.3-10.72-.07-1.81-.21-3.62-.31-5.42-.1-2-.2-3.93-.32-5.89a11.57,11.57,0,0,0-.29-1.32c-1.19.19-2.33.42-3.49.54s-2.48.19-3.72.2c-1.07,0-2.13-.1-3.25-.16V24.6l1.47-1.34a3.54,3.54,0,0,1-1.2-3.32c1.14-.1,2.35-.15,3.54-.3.64-.08,1.26-.43,1.89-.46,2.28-.12,4.57-.17,6.85-.22,1.18,0,2.37,0,3.55,0,2.06-.09,4.13-.27,6.19-.36,3-.14,6-.25,8.95-.35a4.55,4.55,0,0,1,1,.2c-.27.85-.52,1.59-.78,2.39l1,.44c0,1.17,0,2.36,0,3.56,0,1-.42,1.3-1.37,1.53a25.21,25.21,0,0,1-5.88.41H494.8a9.52,9.52,0,0,0-.1,1.18c.08,1.28.22,2.56.29,3.85.19,3.05.4,6.09.5,9.14.09,2.35-.1,4.7.05,7,.65,10.4.14,20.8.26,31.2,0,1.84.06,3.68,0,5.52s.1,3.76,0,5.62c-.58,8-.2,16.06-.27,24.08a66.58,66.58,0,0,0,.37,9.16c.23,1.71.14,3.38.23,5.14l-1.33.67-.32-.95a1,1,0,0,0,.42.15,1.13,1.13,0,0,0,.52-.19s-.06-.35-.12-.36a1.06,1.06,0,0,0-.55.08C494.65,128.13,494.58,128.3,494.5,128.42Zm-2,.33v.42l.85-.12,0-.3Z"/><path class="cls-1" d="M308.52,88.91a29.83,29.83,0,0,0,6.67-.35,2.54,2.54,0,0,1,.78,0c1.33.14,2.66.3,4.06.46.06.14.23.32.22.5-.05,1.63-.14,3.26-.23,4.89a4.25,4.25,0,0,1-.08.61c-.11.54-.06,1.35-.38,1.56a3.52,3.52,0,0,1-2.27.65c-1.16-.25-2.23.14-3.34.12-1.85,0-3.71.18-5.57.26-1.09,0-2.19,0-3.28,0a2.65,2.65,0,0,1-2.15-.7,1.31,1.31,0,0,0-1.53-.3c-1.69-1.74-1.63-3.79-1.12-5.93a7.42,7.42,0,0,0,.25-1.68c0-2-.17-3.94-.17-5.91,0-3.16.13-6.31.16-9.46,0-.88-.18-1.76-.17-2.63,0-2.91.16-5.82.19-8.73,0-3.21-.09-6.43,0-9.63.09-2.26,0-4.5-.05-6.75,0-2.7-.11-5.39-.2-8.09-.05-1.24-.25-2.47-.26-3.7s.26-2.26.24-3.38c0-1.45-.26-2.88-.29-4.33-.05-2.27,0-4.54,0-6.81,0-1,.77-1.36,1.46-1.61.25-.78.48-1.47.7-2.16a42.25,42.25,0,0,1,8.28.19,50.29,50.29,0,0,0,6.37-.13c.29,0,.59,0,.89,0a3.5,3.5,0,0,0,1.2,0c1.41-.5,2.6.07,3.89.56v5.34c0,1.68-.71,2.41-2.42,2.43-2.27,0-4.55,0-6.83,0h-5.35a29.12,29.12,0,0,0,.09,6.61,7.57,7.57,0,0,1,.09,2.32,14.47,14.47,0,0,0,0,5.37,32.94,32.94,0,0,1,.07,4c0,.92.2,1.84.22,2.77,0,1.79,0,3.59,0,5.63.49.05,1.18.17,1.87.18,3.17,0,6.34,0,9.51,0,1.61,0,1.59,0,1.71,1.67.14,1.84.35,3.67.54,5.55a5.08,5.08,0,0,1-3.1,1.24c-.91,0-1.8,0-2.71,0-2.55,0-5.1.33-7.76.53,0,.62,0,1,0,1.43-.1,3.94-.12,7.88-.34,11.82a43.34,43.34,0,0,0,.3,7.81c.06.48-.24,1-.25,1.51C308.48,84.72,308.51,86.71,308.52,88.91Z"/><path class="cls-1" d="M408.93,88.43a28.52,28.52,0,0,0,8.35.18c1.5-.14,3-.82,4.7-.11.17,1.38.35,2.8.53,4.28l-1,.4,1,2.3A3.52,3.52,0,0,1,419.24,97c-2.81-.08-5.62,0-8.43,0H409c.19,8.86.39,17.59.59,26.39l-1.66.36a10.22,10.22,0,0,0,4.8.35,43.79,43.79,0,0,1,6.38-.07c.24,0,.71.6.66.82-.25,1,.6,2.1-.25,3.11-.13.16.38.85.64,1.42-.07.43-.22,1-.28,1.63a1.44,1.44,0,0,1-1.28,1.37,34.61,34.61,0,0,1-4.73.62c-3,.1-5.93,0-8.9.06-1.88.06-2.64-1.4-3.75-2.41-.16-.15,0-.61-.1-.9-.49-2.11.3-4.18.13-6.28-.09-1,0-2,0-3,0-2.86,0-5.72,0-8.59,0-3.17.1-6.35-.14-9.51-.37-4.7-.15-9.4-.29-14.1-.12-4.09-.33-8.17-.51-12.26-.09-2.12-.21-4.23-.31-6.35-.14-2.9-.26-5.79-.43-8.69,0-.76-.22-1.51-.31-2.14,1.16-.79,2.18-1.52,3.23-2.21a3.35,3.35,0,0,1,1.12-.41,22.09,22.09,0,0,1,2.44-.37c1.54-.15,3.09-.24,4.63-.35,2.47-.17,4.95-.35,7.42-.5.73,0,1.46,0,2.24,0a8.44,8.44,0,0,0,.72.75c.82.69,1.35,1.31.56,2.48a2.1,2.1,0,0,0,.2,2.35,9.37,9.37,0,0,1,.73,1.45c-1,1.15-2.34,1.14-3.52,1.3-1.42.19-2.87,0-4.31.11-2.3.15-4.59.41-7,.63,0,.62.08,1.07.13,1.51s.17.92.18,1.38c.15,4.35.26,8.7.44,13.05C408.58,82.69,408.77,85.48,408.93,88.43Zm-4.62-19.78c-.17-.13-.28-.27-.39-.28s-.25.12-.38.18c.12.12.23.28.37.33S404.13,68.76,404.31,68.65Zm3.07,5.56A1.36,1.36,0,0,0,407,74c-.07,0-.16.08-.24.13s.13.27.23.29S407.18,74.31,407.38,74.21Zm-4.86,25.62a1.41,1.41,0,0,0-.13.4s.18.15.23.12.18-.17.27-.26Zm2.34,21.58,0-.26h-.72l.06.38Zm2,2a2,2,0,0,0-.23.59.42.42,0,0,0,.34.2c.15-.05.25-.22.37-.34Z"/><path class="cls-1" d="M526.23,63.91c-.48-1.09-1.35-.4-2.11-.39l-6.51.1c-1.33,0-1.46.18-1.41,1.51.09,2.49.2,5,.24,7.45.13,6.8.22,13.61.33,20.41a7.71,7.71,0,0,0,.1.8c4,.14,7.91-.93,12-.69a12.48,12.48,0,0,1,.85,4.77,4.1,4.1,0,0,0,.11,1.54c.39.91-.11,1.32-.77,1.55a9.46,9.46,0,0,1-2.37.45c-3.14.24-6.28.42-9.46.62v24.88l10.95.08v7.48a9,9,0,0,1-4.46.94c-3.27-.1-6.55,0-9.83,0a10.23,10.23,0,0,1-2.08-.47,5.94,5.94,0,0,0-1-.33c-.94,0-1.21-.52-1.56-1.37-.61-1.46-.14-2.84-.14-4.25q0-9.84,0-19.68c0-1.77,0-3.54,0-5.31-.09-5.6,0-11.22-.35-16.81-.48-8.52-.3-17-.36-25.56,0-1.32-.46-2.64,0-4,.21-.61.44-1.21.6-1.65a12.72,12.72,0,0,0,1.86-.2,10.57,10.57,0,0,1,3.84-.3,24.09,24.09,0,0,0,3.06-.07c1.12,0,2.29-.14,3.35,0,2.32.21,4.74-.42,7,.56l-1.14,2.27,1.17.92C527.49,60.69,528.35,62.79,526.23,63.91Zm-1.64-4.37c0-1.09,0-1.09-1-1.4.23.59.2,1.27,1,1.36L525.82,61v-2Z"/><path class="cls-1" d="M8.55,54.92l3.18-.21A4.35,4.35,0,0,1,13,54.59c1.65.36,3.27-.14,4.9-.15,1.4,0,2.14.48,2.18,1.85a25,25,0,0,1-.31,3.16l.76.28c-.4.75-.8,1.46-1.17,2.18a1.79,1.79,0,0,1-1.66,1c-2.22,0-4.44-.06-6.66-.09a1.49,1.49,0,0,0-.56.08c-.56.21-1.11.45-1.88.78,0,1.2,0,2.6,0,4,0,1.23-.19,2.46-.28,3.69a2.7,2.7,0,0,0,0,.94c.56,2,.22,4,.27,6,0,.81-.3,1.63-.27,2.45.1,2.78.28,5.56.44,8.4.22,0,.48.07.73.09,1.74.12,3.43-.41,5.22-.06,1.27.24,2.66-.2,4-.23,1.18,0,1.32.16,1.36,1.36s.05,2.6.12,3.9c0,.76.16,1.52.24,2.21-1.17,1.26-2.7,1.1-4.17,1.29a50.42,50.42,0,0,1-5.36,0c-.67,0-1.32.16-2,.24a3.62,3.62,0,0,1-.93,0c-2.87-.44-3.41-.42-5.78.3C1,97.5.83,96.19.68,95a33.06,33.06,0,0,1-.32-5.62c.1-2.11-.13-4.2,0-6.3a13.38,13.38,0,0,0-.24-2,2.93,2.93,0,0,1,0-.93C.59,77.81.2,75.41.33,73c0-.82.22-1.63.24-2.45,0-.44-.22-.89-.22-1.34,0-2.19-.06-4.38,0-6.56,0-1.81.22-3.61.27-5.42A17.81,17.81,0,0,0,.37,55a2.66,2.66,0,0,1,0-.93c.57-2.1.25-4.24.25-6.36,0-1.26-.11-2.51,0-3.8a39.61,39.61,0,0,0-.45-5.06,8,8,0,0,1,.13-2.59A15.68,15.68,0,0,0,.4,29.62a1.82,1.82,0,0,1-.06-.46c.15-1.59.22-3.19.51-4.75a13,13,0,0,0,.56-2.87,1.15,1.15,0,0,1,.63-.9c1.14-.19,2.29-.76,3.44-.4,1.65.51,3.29.2,4.93.21s3.5-.19,5.25-.24c1.5,0,3,0,4.59,0a28.93,28.93,0,0,1,.69,7.34c-1.11,1-2.39,1-3.69,1.12-1.64.15-3.27-.06-4.9,0-1.21,0-2.41.08-3.8.14a20.51,20.51,0,0,0,0,2.6,19,19,0,0,1-.29,5.53,12.36,12.36,0,0,0,.17,2.77c0,.47.09.93.1,1.39,0,1.86,0,3.72,0,5.58s.16,3.73.19,5.6C8.76,53.06,8.63,53.87,8.55,54.92Z"/><path class="cls-1" d="M18.61,15.29l-.56-1.53c-2.06-.43-2.49-2.72-4.2-3.69a6.45,6.45,0,0,1,2.77-4.28,6.6,6.6,0,0,0,1.92-1.73A45.19,45.19,0,0,1,21.72.32,1.25,1.25,0,0,1,22.8,0c1.79.56,3.55,1.21,5.35,1.83,0,.19-.2.47-.13.54,1.26,1.27.4,2.48-.31,3.41a62.48,62.48,0,0,1-7.32,8.51A9.55,9.55,0,0,1,18.61,15.29Z"/><path class="cls-1" d="M448.13,90.42,449.31,89c1,.84,1.39.82,1.92-.1l0,0c.5.86.5.86.11,1.91l.81-.14v1.22c-1.55-.72-1.81-.51-1.66,1.31l-1.29.09.89-.94a2.81,2.81,0,0,0-2-1Z"/><path class="cls-1" d="M195.94,162.26c0,.26-.11.6,0,.75.6.72.18,1.18-.35,1.64-.86-1.52-.79-2,.37-2.35Z"/><path class="cls-1" d="M450.93,93l1.17-.7.74,1.33-.15.24Z"/><path class="cls-1" d="M170.24,28.13l-2.07-.64v-.33l2.06-.11Z"/><path class="cls-1" d="M459.78,138.69l-1,1.16c-.43-1.27-.34-1.36,1-1.15Z"/><path class="cls-1" d="M169.59,23a4.52,4.52,0,0,1,.28,1,2,2,0,0,1-.22.73l-.34-.06c.09-.56.18-1.11.28-1.67Z"/><path class="cls-1" d="M187.1,41.28l.1,1.11c-.75-.49-.75-.49-.06-1.06Z"/><path class="cls-1" d="M469.71,57.91l-.25-.36a1.85,1.85,0,0,1,.48-.21s.2.26.17.32S469.88,57.81,469.71,57.91Z"/><path class="cls-1" d="M441.87,63.51l1,.43c-.78.25-1,.1-1-.47Z"/><path class="cls-1" d="M452.56,94.67c.24,0,.48,0,.72,0a1.65,1.65,0,0,1,.05.27l-.75.1Z"/></g></g></svg>