<?xml version="1.0" encoding="UTF-8"?><svg xmlns="http://www.w3.org/2000/svg" viewBox="0 0 8.69 6.9"><defs><style type="text/css">.cls-1{fill:#fff69f;}</style></defs><g id="Camada_2"><g id="Camada_1-2"><path class="cls-1" d="M7.49,6.76a.35.35,0,0,1-.28.14h0a.43.43,0,0,1-.28-.11l0-.06a.4.4,0,0,1,0-.53,4.25,4.25,0,0,0,1-2.7A4.21,4.21,0,0,0,6.77.71a.4.4,0,0,1,0-.54L6.84.12a.39.39,0,0,1,.57,0,5.05,5.05,0,0,1,.08,6.63M5.86,5.54h0a.43.43,0,0,1-.28-.11l0-.06a.39.39,0,0,1,0-.51A2.24,2.24,0,0,0,5.91,3.5,2.23,2.23,0,0,0,5.4,2.05a.41.41,0,0,1,0-.53l.05-.05a.42.42,0,0,1,.3-.12.41.41,0,0,1,.29.15,3.15,3.15,0,0,1,.71,2,3.11,3.11,0,0,1-.63,1.88.37.37,0,0,1-.29.16m-1.51.62a.41.41,0,0,1-.23.36.47.47,0,0,1-.17,0,.38.38,0,0,1-.25-.09L1.54,4.68H.4a.4.4,0,0,1-.4-.4V2.71a.4.4,0,0,1,.4-.4H1.54L3.7.53A.4.4,0,0,1,4.12.47a.41.41,0,0,1,.23.36Z"/></g></g></svg>