<?xml version="1.0" encoding="UTF-8"?><svg xmlns="http://www.w3.org/2000/svg" viewBox="0 0 1070.66 472.6"><defs><style type="text/css">.cls-1{fill:#fd0;}</style></defs><g id="Camada_2"><g id="Camada_1-2"><path class="cls-1" d="M672.87,124.27c-.46,10.59.82,20.61,1,30.67.23,15.24,0,30.5.34,45.74.24,11.07,1.45,22.14,1.43,33.2,0,5,.33,10.1,0,15.2-.65,9-.27,18-.36,27.07-.11,12.17-1.13,24.27-2.36,36.37a172.89,172.89,0,0,1-5,27.18,104,104,0,0,1-5.5,15.7,6.89,6.89,0,0,0-.57,5.35,64.5,64.5,0,0,0,8.23,17.19,10.43,10.43,0,0,0,4.69,3.92c6.38,2.24,12.77,4.59,19.74,2,3.43-1.27,5.34-.31,6.75,3.17,1.23,3,2.15,6.2,4.23,8.84,1.22,1.54.32,2.59-1,3.54-4.09,2.91-8.21,5.44-13.62,4.87-8.81-.93-17.58-1.85-25.65-6a29.52,29.52,0,0,1-11.14-10.4,83.15,83.15,0,0,1-6.82-11.73c-1.27-2.86-2.66-3-5.22-2.21-6.89,2.18-13.89,1.2-20.62-.43-8.07-2-12.93-8.26-17.53-14.71-11.14-15.62-14.91-33.65-17.66-52.15-3.1-20.84-4.05-41.8-4.46-62.81-.2-10.23-.69-20.46-.59-30.68.07-7.61.8-15.22,1.38-22.82.64-8.38,1-16.75,1.2-25.16.24-9.62.76-19.24.64-28.86-.14-11.36.89-22.65,1.78-33.93.74-9.28-.1-18.64,1.26-27.79a147.63,147.63,0,0,1,7.64-30.43c1.68-4.43,3.4-8.84,5-13.31A52.56,52.56,0,0,1,621.34,3.6c9-5.93,22.6-4.51,31.22,4.07,8.25,8.19,12.37,18.32,13.69,29.73,1.56,13.48,3.17,27,4.64,40.46.38,3.48.26,7,.41,10.51C671.82,100.51,672.36,112.64,672.87,124.27Zm-24.36,212.5A95.27,95.27,0,0,0,653,317.26c1.49-10.81,1.92-21.72,2.67-32.61,1.24-18.11.9-36.2.68-54.3-.12-9.65-.93-19.29-1.08-28.94-.24-16.26.41-32.56-.45-48.79-.81-15.36-.72-30.75-1.78-46.1-.7-10.23-.13-20.52-1.47-30.74-1.48-11.21-2.65-22.45-4-33.68-.72-6-1.84-11.78-4.92-17.08-3.43-5.9-9.06-6.91-14.24-2.65-6.26,5.16-10.1,11.81-12.49,19.4-1,3.13-1.43,6.51-2.84,9.42-3.67,7.53-4.89,15.7-6.16,23.74-1.92,12.2-.64,24.68-2.6,36.93a73.1,73.1,0,0,0-.83,10.44c-.2,16.69-.06,33.38-.49,50.06-.26,10.28-1.27,20.54-2,30.8-1.53,20.55,0,41.1.32,61.64a221.79,221.79,0,0,0,3.4,36.19c1.64,9.09,2.82,18.28,5.61,27.88C624.52,322.5,636.81,326.69,648.51,336.77Zm-17,18.63c1.84.24,3.27.54,4.69,0a1.5,1.5,0,0,0,1.27-1.7,1.4,1.4,0,0,0-.27-.67c-2.21-4.38-10.38-8.7-15.14-8-2.35.34-3.22,2-1.76,3.9,2.91,3.83,5.89,7.71,11.22,6.47Z"/><path class="cls-1" d="M349.9,429.67c-.8-4.69-2.18-8.72-7.35-10.38-3.67-1.17-5.41-5.44-9.6-6.13-1.35-.23-1.72-2.16-1.72-3.7,0-3.92-1.4-7.68-1.23-11.65.15-3.26-1.36-5.57-3.9-7.89-9.58-8.74-15.54-19.45-16.7-32.67-.91-10.46-1.42-20.95-2.48-31.41-1-10.22-1.17-20.55-1.28-30.84-.19-17.53-.69-35.1.2-52.59.48-9.45-1.5-18.87.44-28.3a19.82,19.82,0,0,0-.5-9.82,8.87,8.87,0,0,1-.18-3.08c.71-13.58-.4-27.15-.34-40.72,0-7-.86-14.05-.54-20.92.38-8.21-1.68-16.39.14-24.58.47-2.09-.47-4.46-.49-6.7-.07-9.29-.44-18.6.08-27.85.65-11.66.81-23.34,5.32-34.59,6.48-16.16,20.69-23.65,37.75-18.42,9.3,2.85,15.4,9,20.41,16.93,5.45,8.59,7.06,18.44,9.28,28,1,4.15,1.68,9.92-2.11,12.84-4.3,3.31-9.9.79-14.91,0-2-.31-1.63-2.13-1.64-3.49a58.46,58.46,0,0,0-6.13-25.59c-2.81-5.64-6.37-11-14.23-11-5.23,0-8.13,2.53-10.13,6.62a40.76,40.76,0,0,0-3.84,15.48,306.45,306.45,0,0,0-.87,31.49c.7,17.86-1,35.8,1.63,53.58a4.48,4.48,0,0,1,0,1.86c-1.4,5.53-.1,11-.06,16.56.2,27.8.64,55.62-.21,83.4-.28,9.43-.49,19-.16,28.27.63,17.86-.18,35.82,2.63,53.64,1.18,7.46.84,15.19,1.86,22.78,1,7.33,5.31,12.45,10.44,16.93,3.63,3.17,10.33.48,12.12-4.32,1.27-3.39.71-6.91.83-10.4.19-5.36.46-10.65-.45-16-.51-3-.41-6.58,3.61-8.14a4.52,4.52,0,0,0,2.36-2.71c1.07-4,3.77-3.08,6.15-2,4.57,2,7.12,4.89,7.5,10.71.59,9.11,0,18.11-.35,27.13-.39,9.38-3.81,17.24-13.06,21.44-2.2,1.13-4.35,2.37-6.43,3.71-3.11,1.81-3.33,5-.44,7.17a21.62,21.62,0,0,0,2.71,1.49c9.71,5.41,14,14.1,14.8,24.8.13,1.64-.11,3.32.06,4.95.65,6.31-3,10.12-7.87,12.77-10,5.41-19.87,4.33-29.38-1.33-1.81-1.07-5.22-2.76-.69-5.08.56-4.05,6.28-5.77,4.68-11.06-.48-1.59,2.11-1.42,3.41-.91C342.49,429.24,345.78,431.22,349.9,429.67Z"/><path class="cls-1" d="M107,286H97.09c-3.3,0-4.65,1.18-5,4.69-1.47,13.71-2.88,27.47-5.14,41.07-2.4,14.46-3.38,29-5,43.57-.84,7.41-1.33,7.81-8.63,7.82-1.64,0-3.29-.23-4.94-.35-5.71-.42-6.57-1-5.84-6.63,2-14.9,2.65-29.93,5.12-44.8a501,501,0,0,0,6.07-51.53c.81-12.94,3.14-25.76,3.91-38.72.39-6.57,1.14-13.12,1.78-19.68,1.45-15,2.84-29.94,4.43-44.89,1.23-12.3,2.8-24.55,4.23-36.83.84-7.35,2.61-14.54,3.24-21.94.47-5.44,2.91-6.93,8.29-6.47a2.1,2.1,0,0,1,.61.09c2.9,1.14,6.44-.09,9,1.88,3,2.31.69,5.86,1.3,8.79,1.46,7.05,3.1,14.06,4.49,21.13,2.82,14.35,5.78,28.68,8.53,43,2.28,11.9,4.68,23.83,6.33,35.82,1.08,7.8,2.71,15.53,3.44,23.4a219.57,219.57,0,0,0,3.34,23.81c4.1,19.8,6.36,39.88,8.29,59.92,1.28,13.32,3.63,26.43,5.26,39.67.53,4.3-.1,8.67,1,12.93.37,1.41-.52,2.33-1.94,2.62a103.07,103.07,0,0,1-10.31,2c-5.27.51-6.64-.47-7-6-1.06-15.43-4.15-30.61-5.47-46-.94-11.06-1.79-22.18-3.93-33.1-.75-3.8,0-7.69-1.35-11.49-.82-2.32-1.68-3.52-4.2-3.43-3.31.12-6.62,0-9.92,0Zm34.13,47.78c.25.51.73.91,1.14.46s-.13-.8-.58-1c-.2-.91.15-2.15-1.28-2.33-.28,0-.84.28-.88.5-.15.9.6,1.41,1.11,2a2.47,2.47,0,0,0,.49.36Zm-.52,4.46c0,1.13,1,2.15,1.7,1.6,1.16-.91,1.21-2.31-.68-2.9a1.45,1.45,0,0,0-1.5-1.41,1.4,1.4,0,0,0-.69.19c-.58.2-1.18.45-1.09,1.16.16,1.35,1.25,1.32,2.26,1.35Zm-37.53-154.7a1.38,1.38,0,0,0-1.14,1.49c-.38,8.86-1.72,17.62-2.58,26.43-1.25,12.7-2.44,25.41-3.26,38.15-.29,4.54-1.13,9-1.4,13.51-.14,2.29.42,3.46,3,3.41,3.29-.08,6.58.42,9.84.59,11.61.59,9.89,1,8.67-9.11-2.67-22.11-7.46-43.87-10.84-65.87C104.85,189.28,104.93,186,103.08,183.54Zm34.8,133.92c-1.7-.1-3.36-1-4.8.63a1.17,1.17,0,0,0,0,1.09c1.84,1.6,3.11-.26,4.59-.86a7.33,7.33,0,0,1,.16-.86ZM134,314.59a2.35,2.35,0,0,0-1.88-2.24c-1.34-.15-1.6,1-1.57,2.08a1.55,1.55,0,0,0,1.3,1.77,1.66,1.66,0,0,0,.7-.06,1.53,1.53,0,0,0,1.4-1.55Z"/><path class="cls-1" d="M931.68,312.08c0-9.06-.27-18.13.09-27.18.3-7.76-1.53-15.44-.18-23.25.54-3.14-.66-6.53-.61-9.81q.24-19.68.81-39.37c.18-6.41,1-7.06,7.37-6.65,11.47.76,11.58.76,11.57,12.15,0,16.29-.33,32.58-.3,48.87,0,23.52-.26,47.05.64,70.53.39,10.2-.06,20.54,2,30.72.84,4.15.33,8.57.35,12.86,0,3.44-.63,4-3.72,3.11-2-.59-2.93-1.42-4.77,1.2-2.59,3.71-9.51,1.37-10-3.14-.63-6.53-4-12.05-6.17-18-7.25-19.49-15-38.8-22.35-58.26-1.81-4.8-2.75-9.92-4.16-14.87a16.47,16.47,0,0,0-3.4-6.86,33.87,33.87,0,0,0-.18,3.77c.49,8,.29,16,.54,24,.43,13.53.94,27.09.49,40.66-.2,5.89,1.33,11.79.87,17.82a62.12,62.12,0,0,0-.49,8.62c.21,3.07-1,3.75-3.75,4.06-3.91.43-7.68-.52-11.52-.64-2.15-.06-2.78-2.93-2.69-4.64.2-3.67-.74-7.25-.18-11,.65-4.39-.69-8.93-.8-13.32-.2-7.57-1.27-15.14-.35-22.76.58-4.9-.65-9.82-.76-14.78-.32-15.47-.25-30.93,0-46.4.08-4.52,1.3-9.16.63-13.53-1.4-9,1.75-18.08-.59-27,1.8-4.36-.79-8.94.69-13.38.5-1.51.8-2.67,2.62-2.83,4-.37,8-1,12.16.17,2.52.73,3.45,1.9,3.79,4,2.38,14.53,7.77,28.14,12.65,41.93q5.25,14.82,9.48,30c2.2,7.91,4,16,8,23.34-.13,1.91.71,3.46,1.92,5.61C932.3,315.5,932.45,313.82,931.68,312.08Z"/><path class="cls-1" d="M993.46,136.25c1.34,22.94,1.61,45.41,3.84,67.79.88,8.8.36,17.75.42,26.63.09,13.4,1.41,26.76,1.73,40.16.12,5.14-.12,10.23-.29,15.33-.53,15.29.86,30.53,1.52,45.77.81,18.57.77,37.1.87,55.66,0,9.25,0,18.51.72,27.8a259.94,259.94,0,0,1,0,33.26,141,141,0,0,0,.55,16.57c.31,4.65-.26,5.07-4.73,6.18a23.68,23.68,0,0,1-7.36.65c-2.14-.14-5,1.74-6.26-.77s-3.1-5.55-2-8.75A15.89,15.89,0,0,0,983,457c-.11-36.37,0-72.74-.5-109.1-.22-17.3-1.5-34.58-2.29-51.88a32.77,32.77,0,0,1-.07-3.71c1.51-25-1.81-49.9-1.4-74.88.16-10.06-1.34-20.13-2-30.21-.92-15-1.69-30.08-1.63-45.16,0-6.45.53-6.27-6.54-6.26H947.53a38.49,38.49,0,0,1-6.16-.41c-7.91-1.28-7.37-.78-7.07-9.66.31-9.6.74-9.79,10.4-9.34,24.48,1.17,49,.54,73.45.79a45.54,45.54,0,0,1,6.18.21c1.79.28,3.88-.43,5.35,1s-.45,3.2,0,4.55a23,23,0,0,1,.75,9c-.27,3.36-1.7,4.29-4.59,4.29H1011Z"/><path class="cls-1" d="M390.08,143.46c1.07-8.14,2.06-16.31,3.26-24.43.35-2.35-2-4.2-.84-6.57.35-.73.48-1.57.77-2.33,1.16-3.07,10.72-7.5,13.81-6.61a5.68,5.68,0,0,1,4.14,3.94,56.63,56.63,0,0,1,3.21,11.27c2.95,18.5,5.67,37.05,8.77,55.52,4.34,25.8,8.82,51.56,15.33,76.95,2.72,10.57,5.18,21.21,7.83,31.81a25.51,25.51,0,0,1,.55,3c.82,6.55.47,7-6,7.74-2.66.31-5.36.44-8,.94-3,.57-3.87-.78-4.5-3.48-3-13.25-6.25-26.47-9.52-39.67-1.83-7.37-1.94-7.31-9.24-7.4-4.13,0-8.25-.23-12.37-.39-2.41-.1-3.46.7-4,3.37-2.47,11.25-3.14,22.84-6.59,33.91a26,26,0,0,0-.85,8c0,3.14-1.78,3.6-4,2.9a19.66,19.66,0,0,0-10.8-.7c-1.85.46-3.17-.1-3.45-2.33-.42-3.24-1-6.3.09-9.67,3.68-11.41,4.31-23.46,6.83-35.14,2.64-12.23,4.42-24.63,7.43-36.82,2.3-9.3,2.68-19.06,4-28.61,1.19-8.54,1.68-17.18,3.72-25.6,1-.35,3.09,0,1.74-2s-.14-2.45,1.07-3.36c.9-.68,2.5,1.85,2.74-.54.15-1.53-1.69-1.4-2.61-2S390.63,144.39,390.08,143.46Zm15.58,42.69-1.13-.34-6.31,36.84a48.41,48.41,0,0,0,14.17-.1c-2.31-12.3-4.55-24.35-6.78-36.4Z"/><path class="cls-1" d="M191.08,202.36c5.13,6.06,10.72,11.79,14.6,18.94,6.52,12,9.69,24.94,6.28,38.05-3.73,14.33-12.12,25.67-27.91,29.19a7.39,7.39,0,0,0-2.88,1c-5.59,4.27-11.65,1.8-17.45,1-4.36-.57-6-2.73-5.21-6.43,2.91-13.66-.13-27.35.49-41,.59-12.73.45-25.51.05-38.25-.43-13.59.46-27.17-.4-40.75q-1.26-19.66-.72-39.38c.08-3-.19-6,4.06-6.19,3.88-4.74,9.28-3.76,14.23-3.33s9.28,3.07,13.24,6.18c11.41,9,16.79,21.17,18,35.22.6,7.13.79,14.36-.84,21.53-1.77,7.73-6,13.87-11.36,19.4C193.78,199.06,192,200.24,191.08,202.36ZM178.42,184.1c-.74.73-1.16,1.71-.37,2.46,1,.94,1.59,0,2.09-.83,5.52-4.87,8.83-10.72,8.43-18.35-.11-2,.33-4.11.3-6.16-.17-9.45-3.31-17.56-10.71-24.09-.89,2-1.85,3.56-1.49,5.18,1.18,5.3.54,10.66.83,16C178,166.89,178.13,175.5,178.42,184.1Zm0,85.84c8.47-1.93,13.91-8.26,15-16.86,1.65-12.82-3.63-23.22-11.76-32.53-.85-1-1.47-2.66-3.25-2.16Z"/><path class="cls-1" d="M707.16,295.91c0-13.57.37-27.16-.21-40.71-.19-4.44-.14-8.94-.41-13.4-.52-8.82.57-17.66,1.92-26.42.38-2.44,1.76-3.47,4.25-3.51a46.72,46.72,0,0,1,7.08.75c6.33.88,6.64,1.34,6.41,7.85-.18,5.11-.1,10.21-.76,15.36-.6,4.74.46,9.78.45,14.72,0,13.57,0,27.14.42,40.69.35,10.67.13,21.34.39,32a230.44,230.44,0,0,0,3.17,31.13,14.33,14.33,0,0,0,1.93,5.17c5.22,8.23,11.8,7.93,16.31-.7a40.31,40.31,0,0,0,3.83-13.55c1.58-11.87,1-23.86,2.28-35.75.49-4.63-.19-9.36-.49-14-.42-6.78-.32-13.59-.5-20.38-.2-8-1.22-16-.46-23.9.62-6.58-1.26-13,.16-19.58.92-4.21-1.06-8.48-.36-12.89,1-6.62.8-6.59,8-6.15,1.6.09,3.23-.48,4.86-.64,5.1-.51,5.93-.11,6.31,4.95.42,5.51.23,11.08.23,16.62,0,13-.14,25.92.42,38.89a118.21,118.21,0,0,1,.08,14.58c-.42,5,.72,10.2.73,15.35a315,315,0,0,1-2.06,39.44c-.71,5.72-.93,11.44-2.58,17a50.54,50.54,0,0,1-9.75,17.74c-7,8.63-16.83,10.47-26.2,7.21s-17.36-10-20-20.43c-3.43-13.37-5.55-26.94-5.08-40.88C707.79,313.63,706.87,304.77,707.16,295.91Z"/><path class="cls-1" d="M.35,203.13C.17,191.77-.3,180.4.28,169a121.31,121.31,0,0,1,3-19.52c1.19-5.44,2.77-10.79,4.17-16.18,2.41-9.25,7.58-16.6,16-21.07,7.37-3.9,17.75-2.64,22.65,4.79,4.55,6.89,6.15,14.78,8.36,22.49a38,38,0,0,1,.76,16.51c-.57,3.83-2.53,4.67-5.78,4.86-3.59.2-6.89-1-10.26-1.83s-2.92-3.76-2.77-6.08c.43-6.34-1.21-12.27-2.95-18.22-.23-.79-.55-1.56-.79-2.35-.74-2.44-2.17-2.3-3.54-.71a12.45,12.45,0,0,0-2.76,4.79c-1.74,6.57-3.76,13.08-5.19,19.71-2.32,10.73-2.3,21.7-2.4,32.61-.12,14.63-.11,29.28.29,43.9a179.5,179.5,0,0,0,3.61,32.52c.74,3.51,2.16,6.6,5.77,8.28,4,1.86,5.22,1.54,7.71-2,4.78-6.73,5.47-14.53,5.92-22.36.19-3.3,0-6.61.05-9.92a19.17,19.17,0,0,1,1.7-7.82,3.17,3.17,0,0,1,4-2.09h0c2.2.54,4.42,1,6.62,1.59,2.39.63,5.27.73,7,2.17,2.22,1.84-.42,4.55-.34,7,.23,8,.11,16.12-1.61,24-2.29,10.5-6.42,19.89-15.59,26.48-5.21,3.73-10.92,4-16.56,2.65-11.63-2.78-19.6-9.34-22.57-21.8-2.7-11.52-3.7-23.17-4.3-34.85C-.11,225.47.35,214.28.35,203.13Z"/><path class="cls-1" d="M1043.45,334c.41,11.06.81,22.61,1.26,34.15.13,3.62,1.67,5,5.53,4.4a104.36,104.36,0,0,1,15.31-.53c4.44,0,3.86.44,4.9,4.86.94,4-1.67,7.36-.58,11.12.44,1.54-.79,2-2,2.53a13.91,13.91,0,0,1-6,1.2c-4.34,0-8.66.09-13-.22-3.91-.28-4.17,0-4.18,4.1,0,4.33.1,8.68.46,13,1,11.91,2.16,23.8,2.41,35.75a21.74,21.74,0,0,0,.34,3.69c.37,1.92,1.06,3,3.61,3.1,3.92.08,7.82-.2,11.74-.15,2.49,0,3.8,1.08,3.59,3.8-.32,4.08-.48,8.17-.68,12.25a2.89,2.89,0,0,1-2.09,2.7,17.11,17.11,0,0,1-7.83,1.36c-5.13-.27-10.28-.19-15.42-.28a24.23,24.23,0,0,1-6.12-.6c-6.09-1.68-8.46-5.62-6.44-11.65,1.09-3.26.74-6.56.56-9.8-.7-12.75-1.37-25.51-2.52-38.22-1-11.33-1.09-22.65-1.13-34-.06-14.66.34-29.37-.63-44-.56-8.42.29-16.79-.5-25.16-.48-5,3-9.13,3.93-13.91.35-1.83,3.13-.87,4.09-2.31,1.25-1.86,2.16-.47,3.5-.07,6.24,1.85,12.68,1.25,19,.63a71.31,71.31,0,0,1,9.24-.35c2.41.08,3.8,1.24,3.45,4a39.54,39.54,0,0,0,.13,10.48c.39,2.82-1,4.35-3.36,5.08a20,20,0,0,1-8.54,1c-1-.15-2-.54-3-.67-8.61-1.09-9-.7-9.06,8Zm15.16,55.1a3,3,0,0,1,1-.46c.75-.06,1.1-.26.65-1-.25.27-.5.54-.76.8l-.81.77-.29.11Z"/><path class="cls-1" d="M820.72,365.22a58.66,58.66,0,0,1,14.79-.77c2.58.18,3.37,1,3.8,3.59.66,3.88.77,7.8,1.34,11.66.27,1.82-.27,2.73-1.82,3.33-1.15.43-2.3,1.22-3.46,1.25-9.61.24-19.12,2.34-28.79,1.63-4.35-.32-4.94-.74-5-5.15-.14-9.45-.26-18.91,0-28.36.09-3.33-.89-6.47-.82-9.7.06-2.45-1.39-5.48,1.94-7.12,1.52-.75.37-1.77,0-2.48a9.48,9.48,0,0,1-1.23-5.36c1-8.5-.64-17.07.68-25.57.51-3.29-.83-6.42-1-9.66-.16-2.41-1.36-4.8.84-6.91,1-.93.23-1.86-.12-2.81s-.52-2.18.61-2.72c3.62-1.75,2.73-3.79.18-5.65,1.13-1.11,1.92-.3,2.68-.38,1.55-.15,3.14-1.46,2.94-2.45-.37-1.87-1.91-1.25-3.42-.62-3.16,1.31-3.25-1.11-3.52-3.25-1-7.78-.62-15.61-1-23.4-.54-9.88-.71-19.78-1.05-29.67-.14-4.32,2.62-6.63,4.3-9.73a2.6,2.6,0,0,1,2.77-1c8.43,1.46,16.88-.15,25.32.09.62,0,1.24-.13,1.85-.09,5.11.33,5.59.87,5.67,5.89.06,3.26-.7,6.47-.13,9.8s-2.08,4.16-4.69,4.33c-3.91.26-7.84.4-11.76.36-2.61,0-3.74.88-3.72,3.57.07,7.2,0,14.39,1.06,21.54a5.39,5.39,0,0,1,.16,1.83c-1.72,7.59.49,15.16.1,22.74a43.3,43.3,0,0,1-1.18,7.16c-.71,3.25.36,4.53,3.58,4.74a26.11,26.11,0,0,0,6.78-.28c1.72-.35,3.26.23,4.81.13,4-.27,4.85,1.93,5,5.23.11,2.67.68,5.31.79,8,.2,5-1.89,7-7,6.38-3.11-.38-6.18-.09-9.26-.34-2.7-.22-3.7,1-3.64,3.6.07,2.88,0,5.75,0,8.63q0,22.68.12,45.35A14.81,14.81,0,0,0,820.72,365.22Zm-14.06-72.68c-4.35,5.7-4.26,6.31,1.39,10.7C810.18,299.51,809.85,296.05,806.66,292.54Zm10,15.1c-.37-.87-.49-2.07-1.73-2.15a1.62,1.62,0,0,0-1.21,1.07,1.86,1.86,0,0,0,1.42,1.68,1.1,1.1,0,0,0,1.47-.48A.61.61,0,0,0,816.61,307.64Zm-3.81-29c0-.82-.1-1.75-1.17-1.77s-1.2.93-1.19,1.74-.12,1.78,1,1.75,1.33-.87,1.36-1.76Zm-3.72,33.73c0-1-.74-1.34-1.55-1.32a4.33,4.33,0,0,0-1.47.57,15.18,15.18,0,0,0,1.78,1.42C808.46,313.38,808.91,313,809.08,312.37Z"/><path class="cls-1" d="M247.19,250.16c-.78-2.08-2.18-1.32-3.53-.77-3.91,1.58-5.88.74-6.15-3.2-.43-6.17-.54-12.36-.56-18.55-.06-22.71-.23-45.43.08-68.14.11-8.62-.59-17.19-.72-25.79a4.85,4.85,0,0,1,2.59-4.89c8.88-5.9,7.19-5,16.86-5,6,0,11.95-.46,17.89.77a3.25,3.25,0,0,1,3,3.17c.66,4.34-.1,8.65,0,13,.1,2.74-2.32,3.18-4.25,3.66-3.65.9-7.41.42-11.12.5-5.25.11-5.34.1-5.36,5q-.07,23.25,0,46.49c0,4.72.11,4.72,5.25,4.37,10.21-.69,10.15-.68,11.52,9.42,1.21,8.91-.68,10.56-9.45,10.45-8.94-.12-6.94,0-7.45,7.33-.37,5.49.52,11-.93,16.51-.52,2,.12,4.63.63,6.43,1.46,5.15,1.07,10.22,1.15,15.35.05,3.74.39,4.05,4.49,3.93a95.5,95.5,0,0,0,11.7-.87c2.75-.44,3.72.7,4.4,3,1.27,4.24,1,8.58,1,12.9a2.18,2.18,0,0,1-1.72,2.26,23.31,23.31,0,0,1-3.59.91c-5.33.54-10.66,1-16,1.45a2.17,2.17,0,0,0-2.47.16c-3.7,0-7.4.06-11.1,0-2.6-.05-4.53-1.46-4.66-4-.46-8.8-1.52-17.57-1.25-26.4a9.63,9.63,0,0,1,.73-2.34c4.31,1.73,4.6,1.53,5.09-3.45.91-.17,2,.1,2.48-1.11,4.45-.07,1.27,4.53,3.46,5.84,3.8-1.95,4.23-3.33,2.17-6.05C250.35,251,248.56,251,247.19,250.16ZM244.44,236c-.79-1.24-.65-3.26-2.83-3a1.36,1.36,0,0,0-1.21,1.5,2,2,0,0,0,0,.24C241.17,236.53,242.59,236.9,244.44,236Z"/></g></g></svg>