<?xml version="1.0" encoding="UTF-8"?><svg xmlns="http://www.w3.org/2000/svg" viewBox="0 0 2251.14 1071.81"><defs><style type="text/css">.cls-1{fill:#683029;}</style></defs><g id="Camada_2"><g id="cara_de_pau_Imagem"><path class="cls-1" d="M885,1023.13c-7.88,7.23-13,13.71-23.23,10.83-3.73-1-8.7,2.3-13.17,3.67-6.19-5-8.16-11.42-9.15-18.57q-9.36-67.81-19-135.6c-4.29-30.38-9-60.7-12.86-91.13-4.6-36-8.52-72.12-12.77-108.18A50.9,50.9,0,0,0,793.5,679c-43.21,8.46-85.75-2.89-129.64-5.12-1.6,21.33-3,41.22-4.59,61.1-3.29,42.25-6.72,84.49-9.91,126.75-1.4,18.59-2.18,37.22-3.54,55.81-2.09,28.34-7.61,56.38-6.54,85,.45,11.94-1.2,24-1.93,36.46-10.27,4.75-23.83-5.3-30.26,8-12.78-5.12-17.15-15-19.07-27.28,4.67-3.12,8.23-7,7.82-14.13-1.69-28.57,3.22-56.66,6.82-84.87,1.89-14.76,2-29.75,3.3-44.59,1.71-19,4.36-38,5.74-57,1.68-23.24,2-46.58,3.71-69.83,3.78-52.47,6.48-105,15.15-157.06,6.8-40.85,10.94-82.16,15.62-123.34Q657.31,371,667.51,273.09c4.55-44,8.13-88.12,12.37-132.17,1.56-16.18,4.14-32.26,5.58-48.46,1.39-15.76,2-31.59,2.75-47.4.35-7.33,0-14.69.42-22,.12-2.13,1.69-4.19,1.93-4.72,4.33.88,7.81,2.44,11.1,2.09,9-.95,18-2.7,27.78-4.27.68,6.75,2.15,12.29,1.62,17.64-1.8,18.21,1.12,35.51,7.05,52.74,3.08,9,6,17.94,5.4,28.26-.4,7.19,5.21,14.7,6.73,22.64,4.09,21.32,9,42.49,12.94,63.84,3.46,18.73,6.19,37.59,9,56.44,2.83,19.35,4.79,38.84,8.07,58.1,6.86,40.39,14.5,80.64,21.51,121,3.34,19.27,5.82,38.68,9,58,4.13,25.29,9.21,50.44,12.67,75.82,6,43.82,10,87.92,16.77,131.62,7.8,50.63,10.88,101.82,20.08,152.32,7.92,43.49,12.52,87.58,18.73,131.39C880.72,998.51,883,1011,885,1023.13ZM750.94,315.7c-8.28-1.69-13.19-5.09-14.31-15.08-2.2-19.72-6.54-39.19-9.91-58.78-2.23-12.94-4.31-25.9-6.46-38.85l-3,.2c-15,142.08-26.39,284.57-49.09,427.73l120.33,2.48C776,527.86,752.44,425.36,738,321.85c4.9-2.38,8.85-4.31,12.78-6.27,5.3-6,5.3-6-2.1-11C749.59,309.08,750.27,312.39,750.94,315.7Zm10.9,3.48-.49-1.93-8,1.66.66,2.72Z"/><path class="cls-1" d="M2194.06,1006.85c-7-4.55-10.11-10.51-7.61-17.28,2.18-5.88,5.8-11.23,8.91-17.07-6.68-9.86.16-19.2,2.24-29.66l9.16,6.8,2.34-1.85c-1.24-3.06-2.48-6.12-4.26-10.54l11.47-6.51c-1.08-8.78-10.92-4.71-16.28-9.62,1-15.77,2-32.38,3.08-49.62l5.91-2.35c-1.05-5.76-2.51-10.94-2.87-16.19-2.19-31.92-.38-63.73,1.9-95.61,1.14-16-1-32.29-1.29-48.46-.25-12.48.16-25,0-37.45-.29-20.39-1-40.78-1.22-61.17-.19-15.23.17-30.48,0-45.72a163,163,0,0,0-1.35-22.22c-4.37-29.13.6-58.34-1.24-87.5-1.34-21.38-1.21-42.85-2.12-64.27-.87-20.46-2.57-40.89-3.25-61.35-.48-14.42.2-28.88.24-43.33,0-9.79-.31-19.58-.21-29.37.3-28.37,3.74-56.55.22-85.15-3.56-29-3.73-58.48-5.23-87.75a44.33,44.33,0,0,1,1-11.06c.92-4.52,3.58-7.66,8.71-7.37,10.92.62,21.83,1.36,34,2.13,0,10.11-.14,18.76,0,27.4.26,12.93.37,25.88,1.2,38.79,1.43,22.27,4.27,44.5,4.81,66.79.49,20.45-1.69,41-1.92,61.45-.2,17.23.67,34.48,1.14,51.72.42,15.25,1,30.51,1.42,45.76.94,31.09,2.18,62.17,2.67,93.26.33,20.5-.81,41-.57,61.54.14,12.06,2.2,24.09,2.5,36.16.74,29.33.81,58.68,1.43,88,.6,28.83,2.24,57.66,2.11,86.48-.11,24.17-2.21,48.33-3.2,72.5-.35,8.39.27,16.82-.07,25.21-1,24.66-2.67,49.31-3.09,74-.08,5.27-4.16,7.82-4.48,11.86-.32,3.87,3.08,8.39,2.05,11.77-1.61,5.27,1.83,13.61-7.4,15.3a1.35,1.35,0,0,0-.81,1.06c.66,3.65,2.93,7.89,1.77,10.75-1.54,3.81-3.59,6.43-2.5,11.34,3.61,16.27-4.73,30.79-8.64,45.88-.72,2.79-6.11,4.38-9.36,6.53,2.89,14,1.9,17.56-10.08,35.39-2.53-.9-5.63-3.19-7.72-2.49a17.18,17.18,0,0,0-8.4,6.57c-11.76,18.42-24.55,23.74-45.32,20.67-16.79-2.49-30.91-10.59-44.45-19.41-7-4.59-12-12.78-16.82-20-1.43-2.13.4-6.63,1.1-10,.66-3.12,1.8-6.13,2.72-9.19l-2.75-2.09-3.47,7.27c-7.06-6.6-16.72-9.87-15.58-21.21-14.63-15.81-11.09-37.22-17-55.74-6.1-19.18-7.06-39.18-7.85-59.35-1.06-26.88-5.09-53.63-7.36-80.48-1.33-15.71-1.65-31.5-2.58-47.24-.89-15.22-2.29-30.41-2.87-45.64-.68-17.58-.59-35.18-1-52.77-.81-31.09-2.3-62.17-2.54-93.26-.28-37.81.2-75.64.8-113.46.62-38.7,1.91-77.38,2.69-116.07,1-48.4,2-96.79,2.46-145.19.15-17.19-1.75-34.39-2.17-51.59s-.73-34.31,0-51.42c.54-12.61,3.65-14.2,15.86-12.44,8.23,1.18,16.55,1.73,25.08,2.58,3.11,50.51,4.75,100.26,2.92,150.1-.37,10.25.56,20.53.52,30.79-.12,27.54-.25,55.08-.74,82.62-.76,42.29-2,84.58-2.69,126.88-.37,21.69.15,43.4-.13,65.1-.33,24.71-1.74,49.43-1.53,74.13q.45,51.74,2.69,103.44c1.21,28.31,2.14,56.78,5.91,84.81,3.65,27.12,4.67,54.35,7.09,81.5.53,6,0,12.09.11,18.14.17,11.54,1.43,22.88,5.15,33.93,7.28,21.58,8.57,44.74,18.65,65.73,8.9,18.52,23.84,29.28,41.55,37.19,2.73,1.22,7.2-.15,10.37-1.5,4.19-1.79,7.89-4.73,12.28-7.48l6.92,10.51-4.82,8,9.14,2.88c1.17-1.25,2.11-1.79,2.28-2.52,1.83-7.5,3.52-15,5.67-24.35l8.33-.45c-1.37-2.43-2.74-4.84-4.07-7.22,9.75,3.58,6.57-5.11,9.47-8.27L2190,993.07C2189.53,999.67,2200.72,1000.19,2194.06,1006.85Zm7.5,28.13,4.36.06c.59-3.15,2.55-7,1.4-9.26s-5.4-3.13-8.28-4.59l-2.49,2.42Zm-.63-73-1.69,2.43c9.07,9,9.07,9,14.35,8.12Zm-52.64,101.77,2.46-2.9a72.65,72.65,0,0,0-5.79-4.61c-.18-.12-1.65,1.69-2.51,2.6Zm-69.78-61c-1.44-1.32-2.65-2.81-3-2.64a9,9,0,0,0-3.35,3c-.23.37,1.61,2.67,1.87,2.57A27.31,27.31,0,0,0,2078.51,1002.76Z"/><path class="cls-1" d="M1723.36,730.9c0,16.5.06,33.2,0,49.9-.14,31.3,0,62.61-.63,93.9-.7,32.52-.48,64.9,2.42,97.39,1.51,16.82,4.07,34.32-1.45,52h-38.84c-1.31-4.53-3.49-8.78-3.63-13.08-1-32.16-2.18-64.34-2.14-96.51.06-46.59,1.74-93.19,1.55-139.78-.21-53.2-1.58-106.39-2.69-159.58-.69-33.12-2-66.22-2.71-99.34-1.1-51.31-1.51-102.63-3-153.92-.7-23.71-3.42-47.36-5-71.06a91.83,91.83,0,0,1,.49-16.74c.3-2.52,2.43-7,3.54-6.91,11.23.59,9.84-9.3,13.76-16,15.52-2.68,29.36,5.05,42.88,11,26.74,11.72,50.07,28.92,70,50.38,16.53,17.79,31.39,36.66,39.76,60,3.45,9.6,8.85,18.49,12.63,28,8,20.08,12.3,40.74,9.26,62.6-1,7.06-1.65,14.81.28,21.44,2.29,7.8.7,15.14.64,22.6-.27,35.65-6.66,70.1-22.44,102.31-7.59,15.49-17.12,29.75-29.73,41.89-8,7.72-15,16.49-22.76,24.52-1.77,1.85-4.67,2.62-7,3.9-2,1.08-5.17,1.72-5.84,3.36-9.3,22.61-30.5,32.75-48.2,46.54A10.64,10.64,0,0,0,1723.36,730.9ZM1721,674.83l3.19,1.25c8.47-8,17.25-15.61,25.33-23.93,11-11.33,21.81-22.88,32-34.89,6.88-8.07,13.79-16.49,18.66-25.82,16.17-31,18.1-65.71,20.55-99.31,1.85-25.42-.28-52-9.71-76.77,3.94-4.2-6.79-9.07.53-13.25.12-.06-.75-2.68-1.12-2.67-8.78.21-8.66-7.93-11.46-12.75-13.49-23.16-28.5-45-50.13-61.45-11-8.37-22.21-16.72-37.25-22.42,1,12,2.52,22.48,2.69,33,.6,36.27.57,72.55,1.12,108.82.32,21.45,1.47,42.89,1.87,64.34.32,17.26-.31,34.54.15,51.79.94,34.93,2.33,69.85,3.51,104.78C1721.11,668.61,1721,671.72,1721,674.83Z"/><path class="cls-1" d="M1255.61,400c6.05,3.45,5.51,10.33,4.67,16.3-6,42.59-16.11,84.38-33.06,123.82-11.52,26.83-26.65,52.22-41.59,77.42-6.22,10.48-16.15,18.77-24.37,28.08-6.75,7.64-13,15.77-20.31,22.86-7.87,7.65-9.7,7.75-17.12.24-7.82-7.92-17.07-5.44-26.88-5.21-2.13-6.25-4.44-12.31-6.21-18.52-.72-2.56-1.47-6.78-.16-8,6.8-6.08,4.71-13.83,4.52-20.94-1-37.31-2.41-74.62-3.65-111.92-.64-19.11-1.59-38.21-1.78-57.32-.51-53.29-.09-106.59-1.19-159.86-.93-44.75-3.38-89.46-5.32-134.18-1.14-26.06-2.67-52.11-3.81-78.18-.14-3.14.11-7.08,1.85-9.4,8.6-11.43,8.21-25.52,12.36-39,8.08-2.44,16-2.36,23.09,3.73,17.67,15.21,35.6,30.13,52.85,45.81,26.76,24.33,43.72,55.67,59.94,87.27,10,19.48,20.36,39,24.73,60.77,1.14,5.69.66,11.69,1.23,17.51.29,3,.46,6.47,2.1,8.65,6.94,9.21,6.43,19.95,7.24,30.48,1,12.39,2.7,24.78,2.68,37.18,0,19.92-.46,39.91-2.3,59.72C1264.44,384.64,1259.31,391.54,1255.61,400ZM1126.74,94.63l-3.2,2c0,6-.35,12,.06,18,1.29,18.56,3.33,37.08,4.22,55.65,1.35,27.94,2.14,55.9,2.87,83.85,1.09,42,2.49,84,2.73,126,.34,62.56-.53,125.13,3.89,187.6.84,11.76,1.92,23.5,3,37.08,12.41-10.77,17.71-23.72,24.91-35.46,6-9.85,8.31-22.48,19.75-28.7.81-.44,1.11-2.05,1.39-3.17,2.45-9.89,4.45-19.9,7.32-29.66,5.78-19.65,12.3-39.08,17.89-58.78,1.87-6.56,2.6-12.75,6.88-19,3.28-4.82-1.07-14.19.25-21.09,5.92-30.89,6.38-62,5.51-93.25-.34-12.1-.69-24.26-2.16-36.26-7.22-58.63-33.17-109.39-67.49-156.26C1146.83,112.5,1136.11,104.07,1126.74,94.63Z"/><path class="cls-1" d="M127.71,21.11c14,2.23,23.57,17.72,26.44,30.37,3.6,15.85,5.73,32,8.42,48.09,1.6,9.54,3.45,19.07,4.49,28.68,1.1,10.16,1.53,20.41,1.93,30.63.27,6.73-3.17,9.74-10.09,10.54-11,1.26-21.81,2.79-33-6.24,0-12.49,0-26.29,0-40.08a13.25,13.25,0,0,0-.62-2.71c-4.42-19.89-8.2-39.95-13.46-59.61C107.87,46.17,93.1,37.6,80.64,43.46,72.26,47.4,64.39,54.69,59.11,62.41c-8.45,12.34-12.64,26.84-14.36,42-4.7,41.38-1.56,82.86-1.73,124.28-.14,37.76,1.41,75.52,2,113.28.39,24.75-.66,49.58.88,74.25,1.87,29.71,5.76,59.3,8.86,88.93,2.41,23.16,4.64,46.34,7.53,69.45C64.22,590,70.52,595,86.11,596.25c6.7.53,11.28-1.86,15.56-7,7.76-9.23,9.81-20.53,10-31.44.52-27.91-.44-55.86-1.13-83.78-.19-7.25,2.84-12.89,10.1-16.16,6.65-3,13.23-6.18,20.21-9.45,9.67,6.85,14.12,15.86,13.63,29-.92,24.25.25,48.57.58,72.87.39,28.69-7.45,54.27-28.12,75.1-8.45,8.51-17.63,15-30.49,14.06-7.44-.52-15,.52-22.38-.44-28.2-3.66-51-27.28-53.69-53-2.7-25.45-5.65-50.88-8.42-76.33C9.16,483.81,6.34,457.9,3.73,432c-.75-7.42-1-14.92-1.07-22.38-.12-31.31.28-62.62-.13-93.93C1.89,267.11.22,218.58,0,170c-.1-25.58.39-51.37,3.45-76.73C8,55.87,25.59,25.35,58.39,5,61.86,2.8,65.88,0,69.58.06c15.68.4,31.56-1.84,46.83,4.72C127.39,9.49,127.7,8.77,127.71,21.11ZM30.65,135.81c-4.57,2.94-8.12,4.9-11.29,7.36s-6.13,5.53-9.17,8.33c.5,1,1,2.05,1.49,3.08H26.75C28.23,147.44,29.31,142.23,30.65,135.81Z"/><path class="cls-1" d="M440.81,248.5c.3-4.8.58-9.39.88-14.11,5.58-5.21,12.37-4.39,18.41-2.46,25.9,8.29,50.51,19.11,70,39.05,8.93,9.14,14.5,20.19,20.48,31.39,18.5,34.61,15.22,71.57,12.95,108.23-1.2,19.48-11.89,36.1-23.3,51.63-5.19,7.07-11.25,13.5-17.5,20.91,6.54,12.61,13.62,25.19,19.7,38.24,11.41,24.5,22.16,49.32,33.36,73.92,4.64,10.19,10,20.05,14.54,30.3,4.61,10.47,2.27,15.94-7.74,19.93-7.3,2.91-14.65,5.7-24.12,9.38-2.76-3.73-7-8-9.49-13.09-6.46-13.44-12.78-27-18-41-10.8-28.94-24.92-56.28-39-83.63-1.94-3.76-2.33-9.35-10.37-9.57,1.55,47.77,3.09,95.1,4.64,143.1l-36.9,5.52c-5.66-5.22-6.59-11.81-8.43-18.68-3.69-13.78,1.3-26.89.69-40.33-1-21.78-1.27-43.59-1.95-65.38-.14-4.18-.89-8.33-1.12-12.5q-3.34-61.39-6.58-122.8c-.91-17.21-1.51-34.44-2.66-51.64-1.59-23.69-3.57-47.35-5.36-71-.18-2.33-.31-4.67-.34-7-.17-13.2.19-13.64,13.12-17C438,249.56,439.18,249.06,440.81,248.5Zm27.63,32.81c3.28,58.75,6.47,115.84,9.67,173.22,19.93-5,42.34-29.37,43.06-50.46,1-28,4.12-56.36-9.31-83.62C502.54,301.54,489.36,289.52,468.44,281.31Z"/><path class="cls-1" d="M2014.27,1044.77l-38.36,4.94c-1.84-7.6-3.72-14.6-5.21-21.69q-12.24-58.17-24.38-116.36c-.27-1.29-1.32-2.42-2.48-4.46a333.13,333.13,0,0,0-69.42-5c-13.68,47-18.58,93.88-32.9,139.61l-37.58-4.14c-5.75-9.74-3.48-18.14,0-27.24,4-10.38,6.54-21.35,9-32.24,8.12-36.41,15.91-72.89,23.8-109.35,7.09-32.82,13.68-65.75,21.36-98.42,4.91-20.88,11.39-41.39,17.17-62.06,1-3.59,2.47-7.12,3-10.79,2.16-15.9,5.34-31.11,21.08-39.9,1.21-.68,1.32-3.35,1.31-3.32-2.66-3.49-4.7-6.18-7.59-10,17.08-1,25.64,8.64,22.63,25.45,3-2.27,5.93-4,5.75-4.46-2.08-4.77-.83-8.09,4.56-11.06,5.4,17.56,11.47,34.64,15.88,52.14,12.43,49.31,24.73,98.65,36,148.23,11.16,49.06,21,98.42,31.5,147.63C2012.13,1015.39,2018.09,1028.05,2014.27,1044.77ZM1883,856.62c10.41-2.33,17.92-4.87,25.58-5.49s15.18.73,24.32,1.31c-8.19-33.3-15.92-64.7-23.64-96.11l-3.62,0Z"/><path class="cls-1" d="M338.84,646c-4.5-7.7-8.71-14.91-13.43-23,6.54-4.67,8.7-10.29,6.69-18.7-4.11-17.19-6.59-34.78-10.07-54.08h-56.9c-2.11,11.86-4.59,25.48-7,39.13-2,11.48-3.46,23.07-5.92,34.44-1.61,7.44-2.38,16-14.32,15-3.75-.28-7.9,4.8-11.25,7l-18.31-20.19c2.68-16.34,5.89-36,9.13-55.58,1.29-7.81,2.91-15.57,3.88-23.42.36-3,.34-7-1.3-9.15-4.81-6.4-3-12.23.42-17.91,7.9-13.08,10.87-27.5,13.25-42.35,5.3-33.14,11.23-66.17,17-99.22Q261.3,318.09,272,258.23c1.94-10.91,4.28-13.62,15.45-13.87,25-.56,27.13-4.86,29.71,26.43,1.75,21.32,6.35,42.38,8.88,63.66,6.51,54.67,17.17,108.62,27.77,162.59,7.9,40.24,16.07,80.44,23.68,120.74,4.6,24.33,2.21,26.85-22.1,27.31C350.29,645.18,345.18,645.62,338.84,646ZM292.16,406.47l-2.65.14c-5.45,32.23-10.89,64.47-16.51,97.73h38.32C304.77,470.9,298.47,438.68,292.16,406.47Z"/><path class="cls-1" d="M1342.87,498c-2.52-7.8-10.15-8.88-16.08-12.15-2.31-1.27-5-1.77-7.32-3.08-8.26-4.76-12.46-11.29-11.17-21.55,1.21-9.63.09-19.57,1.39-29.19.58-4.26-1.11-11.73,7.52-12,.84,0,2.75-4.77,2.11-5.49-2-2.23-5-3.59-10.57-7.25l5.43-1.52c-6.61-13.21-1.64-27.09-2.12-40.63-.73-20.72-.38-41.49-.56-62.23,0-2.86-.25-2.85,6.33-6.87,3.69-2.27,2.5-6.71-3.27-11.49,12.13-4.79,5.09-16.79,9.34-24.55,22-6.15,95.59.49,112.35,10.61-7.49,7.66-1,16.58-2.25,25.2-1.68,11.77-3,14.07-14.81,13.32-17.62-1.13-35.18-3.25-52.77-4.92-3.59-.35-7.19-.61-11.18-.94-1.76,6.31-4,10.06-1.32,17.33,3.6,9.8,1.43,21.83,1.14,32.88-.22,8.23-1.32,16.44-2.13,24.64-1,10.35-2.15,20.7-3.45,33.1,2.84,2.81,8.58,3.7,14.77,3.66,9.8-.05,19.63-.25,29.41.32,5.47.32,10.86,2.07,16,3.12.84,12.67,1.62,24.43,2.43,36.71-7.21,5.59-14.74,8.85-25.23,6.6-11.6-2.49-23.8-2.15-36.11-3.07v37.22c-3.73.88-6,1.42-8.26,1.91Zm-12.63-93.89c3.37.73,6.82,2.31,10.09,2,4.56-.43,2.8-3.53,1.28-6l-8.72-4.21-13.55,2.35-.36,3,11.56,3.24Zm-7.89-41,4.43.83c.2-2.59.47-5.19.49-7.79,0-.24-2.28-.76-2.3-.7C1324,357.94,1323.19,360.52,1322.35,363.08Zm-2.74-46.44,1.2,2.2,6.28-3.4-1.26-2.34Z"/><path class="cls-1" d="M1348,507.72c2.32,11.86,1.79,22.78-11.62,29.93,8.82,2.32,13.58,4.92,12.41,14.47-2.11,17.39-2.42,35-3.33,52.53-.28,5.44,0,10.91,0,16.84l80.3,6.75c-1.58,14.83-3,27.89-4.51,42.41-8.29.35-15.08,1.15-21.81.82-17.6-.87-35.16-2.43-52.76-3.2-2.72-.12-5.77,2.19-8.29,3.93s-4.76,4.28-7.46,6.78c-8-4.21-16.37-7.32-23-12.66-3.61-2.93-5.48-9.53-5.8-14.63-.62-9.69.33-19.48.8-29.23q2.28-47.36,4.68-94.72c.07-1.4-.38-3.45.37-4.08,6.66-5.64,1.55-11.66.84-17.53h13.11c2.26-3.34-1.46-13.29,8.63-14.25,4,2,8.13,4,12.31,6.06l-.33-.31c.06,1.63.09,3.21.11,4.8l-7.4,8.37Zm-5.81,13.09c-2.56-.68-4.12-1.5-5.57-1.33-.83.09-1.48,1.79-2.2,2.76,1.44.76,2.83,1.91,4.35,2.12C1339.44,524.45,1340.39,522.72,1342.16,520.81Z"/><path class="cls-1" d="M1308.79,506.13c1.52-4.12,3-8.25,5.59-15.15,4.14,10.42-1.07,12.63-5.85,15.14C1308.45,506.13,1308.79,506.13,1308.79,506.13Z"/><path class="cls-1" d="M1330.54,404.45c.78-2.86,1.57-5.72,2.35-8.58l8.72,4.21-11.37,4Z"/></g></g></svg>