<?xml version="1.0" encoding="UTF-8"?><svg xmlns="http://www.w3.org/2000/svg" viewBox="0 0 2761.74 948.14"><defs><style type="text/css">.cls-1{fill:#683029;}</style></defs><g id="Camada_2"><g id="cara_de_pau_Imagem"><path class="cls-1" d="M2729.39,946.23c-9.47-5.56-11.89-14.58-13-26.27-2.14-23.14-7.1-46-10.75-69q-7.32-46.22-14.41-92.48c-4.5-29.42-9-58.84-13.23-88.3-1.56-10.87-2.41-21.84-3.57-32.63h-96.33c-1,4.74-2,8.24-2.37,11.81q-6.63,70.23-13.05,140.46c-2.16,24.12-3.6,48.3-5.87,72.41-2.09,22.26-5.17,44.43-7.07,66.7-.53,6.11-2.09,10.72-6.77,14.46-4.34,3.47-8.32,4-14,1.92-3.57-1.34-8.74,1.61-14.07,2.84-9-6.79-10.2-16.61-8.79-27.88,4.66-37.28,9.22-74.59,13.18-112,2.79-26.4,4.49-52.91,6.75-79.37,3.36-39.43,7.13-78.82,10.06-118.28,1.93-26,2.36-52.17,4.07-78.22,2-29.73,4.6-59.41,6.89-89.12.57-7.44.9-14.9,1.41-22.35,2.83-41.82,5.38-83.67,8.6-125.47,3.37-43.64,7.58-87.21,11-130.84,1.39-17.64,1.67-35.37,2.58-53.06.15-2.72,1-5.4,1.69-8.85,12.63-.22,17.55-10.64,24.66-18.88,10.15,2.49,16.51,8.22,21.05,18,10.74,23.08,17,47.4,21.73,72.16,12.08,63.62,24.2,127.25,35.27,191.05,5.64,32.48,8.93,65.36,13.49,98,3.81,27.21,7.54,54.44,12,81.55,3.86,23.3,9.36,46.34,13,69.66,4,25.61,6.57,51.43,10.11,77.11,2.08,15.06,5.36,30,7.19,45,6.42,53,17.64,105.15,25.52,157.87,1.58,10.57,3.38,21.1,5.09,31.64,1.25,7.68-4.06,11-9.68,13.3C2745.23,941.93,2738.14,943.57,2729.39,946.23ZM2607,238.51c-6.45,37.82-7,76.2-10.63,114.26s-6.29,76-8.43,114.09c-2.16,38.32-7.31,76.55-6.09,116.49l82.24,6.31C2645.47,471.2,2632.74,353.94,2607,238.51Z"/><path class="cls-1" d="M1495.5,523.26c6,15.42,9.77,29.64,16.73,42.07,11.43,20.39,15.32,43.06,22.91,64.59,3.39,9.61,8.35,18.68,11.74,28.3s5.45,19.5,8.41,29.19,6.2,19.32,9.54,28.9c7.14,20.49,13.84,41.16,22,61.25,2.78,6.86.66,14.49,6.3,21.09,4.87,5.72,6.49,14.23,9.38,21.58a91.94,91.94,0,0,1,3.44,10.62c2.94,11.38,0,17.07-10.83,20.15-7.5,2.13-15.22,3.45-23.76,5.33-4.21-15.56-15.94-27.9-14.29-45.28.35-3.74-5.48-7.68-7.07-12-9.65-26.26-20.68-52.2-27.86-79.14-12.44-46.68-30.91-91.16-46.72-136.59-4.69-13.47-12.08-26-20.05-38.4,0,11,.12,22,0,33-.12,8.35-1,16.7-.82,25,.32,15.36,1,30.71,1.79,46,1.68,33.87,4.52,67.72,5,101.61.47,35.65-1.31,71.34-2.11,107.29-10.54,9.44-24.38,1.71-35.79,7.45-6.32-7.38-8.25-14.45-7.36-23.55a384.38,384.38,0,0,0,1.45-46.16c-.62-26.06,1.91-52.09-.6-78.17-1.73-18.06-2.35-36.26-2.87-54.41-1.17-41-2.59-82.07-2.79-123.11-.27-58.29.83-116.58.66-174.86-.1-35-1.28-69.92-2.35-104.87-.65-20.83-2.17-41.64-3-62.47-.6-14.81-.38-29.64-1.07-44.44-1.38-29.26-3.44-58.48-4.58-87.75-.41-10.56,1-21.19,1.62-32.07,4.32-1.5,8.46-1.82,11-4,10.49-9.11,20.6-5.49,31.18-.43,32.31,15.46,57.57,38.74,78.82,67.42a490.12,490.12,0,0,1,60.8,108c9.46,23.31,11.93,47.9,12.73,72.59.85,26.49,1.39,53.12-.29,79.54-.92,14.55-6.11,29-10.43,43.14-3.12,10.22-8.26,19.8-12,29.84-5,13.41-13.25,24.38-23.17,34.58C1532.23,483.56,1514,503.53,1495.5,523.26ZM1444.61,80c1.05,11.56,2.36,21.56,2.81,31.6,1.4,31.63,2.5,63.27,3.68,94.9.71,19,1.23,38.11,2.1,57.15.66,14.39,2,28.76,2.54,43.15.26,6.48-.7,13-.89,19.49-.28,9.31-.62,18.63-.43,27.94.22,11.15,1.46,22.3,1.35,33.44-.18,17.69-1.16,35.37-1.71,53.06-.21,7-.31,14-.22,21,.11,8.12.48,16.24.75,24.69,4.74-1.92,9-5.22,11-4.17,6.76,3.58,9.55-1.19,12.89-4.7,10-10.47,19.67-21.16,29.5-31.74,10.41-11.21,21.47-21.52,27.83-36.29,10.39-24.11,21.07-47.8,18.4-75-.31-3.21.3-6.51.56-9.77,2.21-27.53-.73-54.9-4-82.11-3-25.48-18.16-46.66-28.32-69.56a177.53,177.53,0,0,0-18.18-32c-10.57-14.59-22.24-28.44-34.08-42C1463.65,91.47,1456.12,84.52,1444.61,80Zm119.64,675.83c-2.27.83-2.87.87-3.07,1.18a1.31,1.31,0,0,0,.23,1.23c1.92,2,3.89,3.89,5.85,5.82l1.8-1.64Z"/><path class="cls-1" d="M346.8,529.43c-1.3,6.25.12,9.58,7.18,6.49,4.41-1.92,8.73-4,13.46-6.27-1.8,13.7-2.45,27.19-5.56,40.08-3.25,13.48-9,26.34-13.38,39.56-7.84,23.64-43.08,39.62-69.7,30.85C252,631.31,234.92,615.26,224.94,590c-9.87-25-13.73-51-14.58-77.79-.47-14.83-2.81-29.59-4-44.41-1.72-21.27-4.87-42.62-4.12-63.82.48-13.75-2.65-27.25-.71-40.91,1.87-13.16.12-26.35,0-39.53-.15-15.85,0-31.71,0-47.56,0-5.06.22-9.84-3.77-14.34-1.86-2.09-.95-7-.58-10.62,2.59-25.44,5.44-50.85,8.08-76.28,3.55-34.24,5.85-68.65,10.92-102.66,3.14-21.07,13.17-40.47,32.07-52C265.5,9.48,284.43,4,304.05,16.39c3.25,2.05,8.35,1.33,11.37,3.56C325.06,27.05,338,32,336.53,47.69c6.68,4.25,8.51,12,11.26,18.29,12.51,28.82,18.2,59.57,22.54,90.48,6.11,43.43,8.44,87.16,8.84,131,.17,18.44-1.66,37.05.4,55.25,1,8.58-.22,17.06.67,25.62,1.73,16.73-1,33.95-2.17,50.94-.09,1.39-2.29,2.63-3.53,3.95,1.55,3.48,4.32,6.93,4.41,10.45a240.08,240.08,0,0,1-1.13,30.57c-.25,2.52-3.8,4.71-5.83,7,1.95-15.86,0-18.37-12-16.41.83,3.11.82,7,2.71,9.2,2.21,2.63,6.08,3.85,9.19,5.75.23.14.09.88.12,1.34l-2.46,3.08c6.94,1.56,5.86,6.62,5.32,11.69-.88,8.28-1.47,16.59-2.16,24.89-.43,5.18-.62,10.24-8.3,9.42-1.37-.15-2.83,3.4-4.7,4.31-4.19,2-8.67,3.47-13.07,5.21C336.27,528,341,518,338.18,512.38c-6.82,1-9.14,5-6.83,9.8,1.75,3.65,5.73,6.5,9.27,8.88C341.78,531.85,344.69,530.05,346.8,529.43ZM350,394.2a59.09,59.09,0,0,1-1.09-6.51c-.32-10,3.1-21.17-8.62-27.74-.77-.43-.79-2.53-.84-3.87-1.11-27.95-1.94-55.92-3.31-83.87-1.21-24.64-2.81-49.27-4.61-73.88-3-41-10.16-81.26-23.17-120.32a51.59,51.59,0,0,0-9.19-16.77c-10.53-12.41-27-10.79-34.75,3.39a56.93,56.93,0,0,0-6.65,19.56q-4.78,37.36-8.08,74.93c-1.42,15.77-1.69,31.64-2.59,47.45-.88,15.34-2.6,30.67-2.7,46s-1.45,30.89-1,46.41c1.32,41.44,1,82.94,3.18,124.32,2.18,42.19,6.6,84.26,9.83,126.39,1.15,15.07,8.67,27.44,17,39,3.46,4.82,10.41,7.93,16.41,9.93s14.18,2.15,17.7-4.37c6.52-12.09,13.29-24.27,14.81-38.46,1.08-10.15,2.9-20.23,4.44-30.34,1.4-9.19,3.15-18.33,4.21-27.56,1-8.57.8-16.92,5.66-25.08,4.21-7.07-1.4-15.68-.63-23.84,1.6-16.77,2.34-33.62,3.44-50.43Zm7.62-34.57-3.94,1.18,3,8.54,2.73-.77Zm-6.29,95.44-3.55.46c.53,2.44,1.06,4.87,1.58,7.31l3.71-.87Zm13-47.69-.81-1.78c-1.44.33-3.12.31-4.24,1.09s-1.35,2.28-2,3.47l1.56,1.18Zm-16,66.65,1.52-2.71L344,467.54l-1.94,3.18Z"/><path class="cls-1" d="M1855.27,524.19c-6.1-2.8-3.75-9.54-3.4-14.93.69-10.49,2.82-20.86-3.09-30.75-.86-1.42.59-4.25,1-6.42,1.55-7.65,3.86-15.22,4.54-22.93,1.67-19,1.44-38.28,4.1-57.14,3.85-27.25,9.76-53.81,31-74.42,28.79-27.91,65.29-12.91,80.7,10.2,11.85,17.78,17.49,38.29,21.65,58.7,6,29.56,9.84,59.61,14,89.53,1.76,12.82,1.57,25.89,2.89,38.78,1.54,15,4.46,30,5.47,45s.81,30.47.44,45.7c-.75,30.3-1.33,60.64-3.21,90.88-2,32.43-5,64.83-8.4,97.15-2.77,26.54-12.57,49.75-36.53,64.36a31.67,31.67,0,0,1-14.25,4c-16.41.89-32.6.3-47.5-8.41-9-5.27-17.27-10.87-22.43-20.38-5.31-9.81-11.33-19.24-16.74-29-2-3.64-4.07-7.64-4.6-11.67-4.18-31.72-13-62.75-12.1-95.27.68-23.58-1.85-47.23-1.69-70.85.21-29.83,1.54-59.67,2.85-89.48C1850.13,533,1853.05,529.29,1855.27,524.19Zm123.45,51.52q-11.78-21.13-8.66-43.65c.79-5.68.6-10.39-1.62-15.56-2.36-5.5-4.28-11.34,2.92-15.47.64-.37-.4-3.65-.66-5.58-6.48,1.06-4.63-4.8-5.39-7.43-2-7.11-3-14.53-4.38-21.83-1.45-7.71-5.43-16.06-3.67-22.95,2-7.79-1.21-13.51-2.4-20-2.83-15.42-5.86-30.84-9.72-46a112.16,112.16,0,0,0-9.19-23.38c-5.43-10.55-13.41-11.17-20.5-1.82a47.39,47.39,0,0,0-7.89,14.62c-7,23.49-10.92,47.5-10,72.12.14,4.14,1.48,8.32,1.14,12.39-1.22,14.35-3.08,28.65-4.4,43-.9,9.65.94,20.26-2.52,28.79-4.11,10.15.48,18.76.17,28-.64,19.44-.78,38.89-1.3,58.33-.11,4.14-1.43,8.28-1.33,12.4.4,15.31,1.94,30.61,1.65,45.89-.71,36.52,3.52,72.36,10.87,108.12,2.9,14.09,10.06,25.13,18.22,35.57,10.53,13.47,30.73,9.14,36.66-6.88a33.41,33.41,0,0,0,2.17-8.09c2.08-20.25,4.2-40.51,5.92-60.8,1.79-21.18,3.27-42.39,4.67-63.61,1-15.73,2.25-31.49,2.47-47.25.22-15.55-.71-31.12-1.1-46.69,0-.35.53-.72.81-1.08a10,10,0,0,1,2.46-1.11A34.91,34.91,0,0,1,1978.72,575.71Zm13.54-45.42c-5.55,0-9.57,3.18-6.92,6.88,3.32,4.64,7.46,8.71,11.9,13.77C1995.49,543.67,1993.92,537.16,1992.26,530.29Zm-13.93-98.59-1.94-2.42-13.66,11.31C1973.53,444.23,1973.2,434.36,1978.33,431.7Zm2.66,82.2c1.07-1.67,2.19-2.66,2.18-3.63s-1.22-1.78-1.91-2.66c-.74.91-2,1.75-2.09,2.74S1980.09,512.27,1981,513.9Z"/><path class="cls-1" d="M2097.2,475.92c1.34,29.52,2.7,56.33,3.73,83.14.69,18.11.62,36.26,1.48,54.36.72,15.34,2.45,30.62,3.44,46,.89,13.74,1.89,27.49,1.87,41.24,0,9.84-4.22,13.26-13.92,13.56-3.71.11-7.43-.25-11.14-.07-9.51.47-17-6-17.74-15.58-1.65-21.35-3.57-42.69-4.87-64.06-.7-11.61-.14-23.29-.54-34.93-.88-26.1-2.17-52.2-3-78.3-1.1-35-1.92-70-2.86-104.93-.84-31.25-1.73-62.51-2.49-93.77-.23-9.43,1.72-12.38,11-15.12,7.42-2.19,15.12-3.45,24.71-5.56,2,3.43,5.43,7.27,6.8,11.74,8.78,28.52,14.91,58.08,26.09,85.6,18,44.26,25.52,91.7,43.85,135.71,6.55,15.74,12.85,31.58,19.27,47.37l2.82-.44c.27-2.93.77-5.87.79-8.81.07-18.7,0-37.41.06-56.11.05-11.87-1.89-24.16,7.95-34.84l-8.08-.77c0-19.26.3-38.74-.09-58.2-.39-19.21-5.45-39.35-1.18-57.35,4.6-19.37-6.3-37.95,2.44-57.09l27.33-4.36c.3,3.68.51,6.27.83,10.13,2.88-3.92,5-6.78,9.26-12.56,1.07,10.78,2.42,18.28,2.39,25.78,0,7-3.16,13.64-2.13,21.07s.23,15.27.23,23.48l-9.12,3.22,7.24,2.12c5.58,28.31,5,57.37,4.87,86.44q-.29,87.57.22,175.15c.13,20,1.58,40,2.22,60.07.28,9,0,18,0,26.56l-35.16,7c-7.59-6.15-12.18-15.79-10.61-28.42a19.72,19.72,0,0,0-1.41-9.32c-12.18-30.74-24.34-61.49-37-92.06-8.17-19.8-17.79-39-25.49-59-7.38-19.12-13.09-38.88-19.63-58.33C2100.86,483.06,2099.46,480.71,2097.2,475.92Z"/><path class="cls-1" d="M648.91,652.47c-12.35,1.7-23.24,3.66-34.22,4.37-2.55.17-7-3.43-7.77-6.09-2.6-9.35-5-19-5.55-28.62-1.16-20.35-.57-40.8-1.71-61.15-1-17.64-4-35.17-5-52.81-1.3-23.74-1.83-47.54-2.07-71.32-.33-33.08-.08-66.16-1.44-99.54-23.31,19.52-26.39,50.32-43.58,73.47-2.09.12-4.84-.23-7.28.49-11.5,3.41-19.65,1.18-25.65-8.65-4.84-7.92-8.42-16.6-12.83-24.8-7.67-14.26-15.55-28.41-23.35-42.61l-3.16.76c-.19,4.25-.72,8.51-.51,12.73.75,14.89,2.31,29.75,2.55,44.63,1.15,73.78,1.7,147.58,3.18,221.35.24,11.88,4.13,23.68,6.4,35.89-7,17.52-21.77,15.72-37.62,13-7.93-9.78-11-22.19-11.12-35.54-.35-52.81-.38-105.62-1.06-158.43-.42-32.63-.32-65.38-3.14-97.85-3.64-42-1.82-84-1.81-125.94,0-.43.34-.85,1.09-2.67,12-2.7,24.82-5.91,37.8-8.25,2.47-.44,6.57,1.86,8.19,4.13,4.28,6,8.72,12.33,11.11,19.21,10.17,29.24,23,57,43,83,6.17-9.25,13-17.89,18.09-27.46,11-20.57,21.2-41.51,31.32-62.5,4-8.22,9.2-14.91,16.54-19.8l31,15.29a102.33,102.33,0,0,1,1.37,12.12c1,50.89,1.22,101.81,3.09,152.67,2,54.92,2.08,110,9.61,164.63C647.74,600.56,647.43,625.4,648.91,652.47Z"/><path class="cls-1" d="M2309,333.44c1.8-10.41,10.2-10.28,18-11.92,7,11.39,5.9,23.89,7,35.69,1,10.4.21,21,.75,31.52,1.36,27,.39,54.2.37,81.32,0,10.56,0,21.13,0,32.32,27.36,3.56,53.37,5.1,80.74-.33,3.34-62.75-4.59-125.72-.59-189,7-.88,12.15,2.94,18.07-2,3.49-2.93,12.82-.69,18.6,1.59,3,1.17,5,7.35,5.57,11.53.91,6.36.2,12.95.26,19.44.3,35.52.43,71,1,106.55.76,48.79,1.55,97.58,2.86,146.36,1.14,42.4,3,84.77,4.55,127.15.17,4.6,0,9.2,0,15.13l-38.69,3.47c-1.85-3.21-4.51-5.84-4.81-8.71-1.4-13.41-4.85-27.37-2.54-40.22,4-22.53.06-44.67.74-66.94.43-13.91-1.6-27.88-2.36-41.83-.64-11.59-1.05-23.19-1.62-36-26.49-4-52,1.78-79.27.09-1.46,60.9-.64,120.61,7,179.79l-34.36,11.27c-12.66-6.56-11.63-18.17-12-28.48-1.44-37.74-2.14-75.51-3.28-113.27-.31-10.16-3.31-20.75-1.32-30.37,3.16-15.26-.49-29.87-.49-44.75,0-35.47.39-70.94-.12-106.4-.39-26.56-1.94-53.1-3-79.65-.09-2.29,0-4.58,0-7l11.49-4.69,7.35,8.94c-2.26,4.61-2.87,8.73,3.06,11.17C2317.57,334.83,2317.57,334.83,2309,333.44Z"/><path class="cls-1" d="M1215.29,106.59c-9.86-5.85-9.14-15-9.69-23.73-1.1-17.14-2-34.28-2.89-49.75,8.23-7.46,12.25,0,17,1.84,5.73-10.22,13.69-13.39,24.26-12.55,7.17.56,14.48-.53,21.71-1.06,5.21-.39,10.49-1.3,12.93,7,5.55-10.4,14.72-6.29,22.44-7.06,8.64-.87,17.43-.31,26.16-.2,11.9.15,12.74.84,13.68,12.41.57,7,.7,14,.86,20.94.16,6.79-3.68,10.45-10,11.14-4.13.45-8.88,1.06-12.46-.47-9.35-4-18.31-.64-27.46-.19-12.52.61-25.06.67-37.59,1.08a44.16,44.16,0,0,0-5.94.9c.31,27.72.41,54.69,1,81.64.72,34.45,2.12,68.89,2.65,103.34.44,28.32,0,56.65,0,85,0,6.93,0,13.85,0,22.19h67.4c7.84,11,7.46,22.89,8.72,34.26.75,6.77-4.77,9.12-9.71,9.54-12,1-24.13,1.33-36.19,1.23-9.7-.08-19.4-1.17-30.08-1.88,0,42.65-.68,83.95.19,125.23.86,40.87,3.27,81.71,5,123.5l89.75,6.85c.12,6.32.29,12.64.35,19s0,12.67,0,19.29c-6.33,4.41-13.33,5.31-21.77,4.52-28.74-2.7-57.63-3.74-86.39-6.26a36.24,36.24,0,0,1-18.31-7.4c-3.38-2.68-5-9-5.35-13.87q-2.49-31.83-3.72-63.75-1.68-42.64-2.51-85.32c-.43-21-.08-42-.44-63-.18-10.23-1.72-20.45-1.66-30.66.1-14.43,1.48-28.85,1.66-43.28q.78-61.62.95-123.24c0-26.12-.48-52.25-.95-78.37-.1-5.07-2.67-10.55-1.42-15.1,2.21-8.07,3.57-14.9.25-23.54-2.85-7.41-1.22-16.59-1.3-25,0-3.7-.05-7.64,1.19-11C1208.24,109.07,1211.7,108.43,1215.29,106.59Zm5.72,26-3-1.53c-.92,2.65-1.87,5.3-2.71,8-.09.26.44.72.68,1.09Z"/><path class="cls-1" d="M1038.41,690.93c-9.58-6.95-13.24-15.93-14.75-26.62-2-14.27-5.25-28.36-7.82-42.56q-8.36-46.05-16.56-92.14c-13.46-74.81-30.46-148.88-46.94-223-1.82-8.19-4-16.3-5.79-24.49s-2.55-16.5.88-25.19h37.76c24.15,105.91,49,211,65.28,321.29,2.21-5.47,3.73-8,4.25-10.69,6.33-33,12.14-66,18.83-98.92,8-39.29,16.52-78.48,25.17-117.63,6.23-28.21,13.12-56.27,19.55-84.44,1-4.52,1.12-9.24,1.67-13.87.67-5.61,3.88-8.4,9.48-7.9,8.73.79,17.56,1.29,26.09,3.11,2.61.56,5.93,4.91,6.21,7.78a63.49,63.49,0,0,1-1,19.45c-8.81,39.58-18.71,78.92-27,118.62-13,62.53-24.54,125.35-37.48,187.88-5.46,26.43-12.86,52.46-19.42,78.66-2.9,11.57-9.14,19.52-21.61,22.37C1049.54,683.89,1044.45,687.84,1038.41,690.93Z"/><path class="cls-1" d="M125.75,162.76c-3.55-.54-6.32-.79-9-1.43-2.35-.57-5.29-.92-6.78-2.5-8.36-8.87-8.9-9.8-9.39-13.94-2.6-22.18-5-44.38-7.76-66.55-.73-6-2.29-11.91-3.41-17.87C87.6,50.85,82.88,44.14,71.75,43,61.93,53.65,59,67.5,56.7,81.11,49.22,125.73,42,170.38,44.16,216c1.49,32.16,0,64.52,2.65,96.55,2.06,24.85,3.71,50.15,12.57,74.07,3,8.23,6.41,16.1,16,17.41,6.57.89,14.6-8.4,16.24-18.81a286.84,286.84,0,0,0,3.12-33.37c.52-13.55.09-27.12.13-40.69.08-22.36,3.34-27.23,23.67-35.76,6.32,6,13,11.71,18.7,18.24,2,2.33,2.39,6.77,2.28,10.21-.41,13.46-1,26.93-2.11,40.35-1.56,19-2.11,38.24-5.89,56.81-4.64,22.82-21.33,37.49-42.15,45.19C78,450.38,65,448.84,52.83,442.38,33,431.88,22,415.3,17.1,394.64c-5-21.25-8.75-42.88-11.64-64.53-6.36-47.8-5.93-96-4.76-144,.56-22.71,4.48-45.35,7.17-68C9.47,104.7,11.93,91.4,13.53,78A132.9,132.9,0,0,1,31.25,25.3c4.63-7.79,11.86-14.13,18.4-20.63,2.12-2.1,5.84-2.56,8.78-3.87,5.79-2.56,11.18,2,17.68.25C82-.51,89.61,2.84,95.91,5.39A52.33,52.33,0,0,1,112.46,15.6c4.92,4.74,8.81,10.87,12.06,17a60.22,60.22,0,0,1,6.65,18.29c3.31,20.6,6.39,41.27,8.34,62,.91,9.65-.36,19.48,2.22,29.12,1.15,4.29.18,7.82-5.09,9.57C129.36,154,129.49,154.38,125.75,162.76Z"/><path class="cls-1" d="M1752.42,590.17c-3.49-6.55-16-6.49-11.19-18.07-9.7-10.18-1.65-22.32-3.59-33.41-2.21-12.66-4.83-24.7-17.15-31.68-11.52-6.52-19.18-4.43-22.31,8.34-4.2,17.13-8.06,34.68-9,52.21-2.06,40.54-3.4,81.18-2.86,121.75.48,35.8,2.23,71.71,8.83,107.11,1.81,9.73,6.36,16.93,15.22,22.14,11.91,7,18.09,3.52,25.67-9.17,2.06-3.46,2.94-8,3.2-12.1,1.47-24.11,2.6-48.24,3.86-72.57-12.13-4-24.69.24-34.28-10.45,2.08-11,4.37-23.19,6.93-36.75,23.28,3.5,46.88-1.15,68.45,15.26a56.12,56.12,0,0,1,.88,8.37c-.21,29,0,58-1.15,86.9-.47,12-3.07,24.06-6.16,35.71-1.6,6-5.86,11.64-9.89,16.67-3.75,4.67-8.73,8.37-13.27,12.39-6.21,5.48-11.38,12.55-20.91,12.82-14.06.41-27.47-.68-40.74-6.9-27.77-13-38.82-36.67-42.21-64.67-3.35-27.71-5-55.66-6.72-83.55-1.25-20.79-2.26-41.67-1.69-62.47,1.28-47.46.74-95.16,13-141.64,4.59-17.36,14.07-31.31,28.81-41.61,1.53-1.06,3.11-2.77,4.74-2.86,16.55-.88,32.8-4,49.21,4.11,24.84,12.21,35.26,34.52,41.93,58.31,4.31,15.39,3.24,32.62-1.92,48.37-1.51,4.6-7,8.35-11.34,11.43C1763.18,586.74,1758.42,587.76,1752.42,590.17Z"/></g></g></svg>