<?xml version="1.0" encoding="UTF-8"?><svg xmlns="http://www.w3.org/2000/svg" viewBox="0 0 1331.1 1314.94"><defs><style type="text/css">.cls-1{fill:#030303;}</style></defs><g id="Camada_2"><g id="titulo_Imagem"><path class="cls-1" d="M523.09,514.21c14-.87,28.15-.47,42.16-2.1,5.52-.64,5.79-.25,6.66,5.22,3.79,23.59,7.33,47.21,11.31,70.76,3.28,19.42,7.47,38.68,10.53,58.13,5.11,32.45,12,64.54,19.69,96.43,8.3,34.2,16.78,68.35,23.76,102.86,1.47,7.31,2.35,14.63,6.12,21.36,2.94,5.25,3.44,6,9.1,3.16,3.9-1.92,8-3.93,12-2.08,3.59,1.63,5.24,0,7.16-2.12a12.61,12.61,0,0,1,3-2.89c4.73-2.8,5.24-3.65,3.59-8.74-2.38-7.31-3.71-14.89-5.58-22.29-7.41-29.32-13.23-59-20.88-88.31C643.64,712.72,637.38,681.46,632,650c-5.9-34.18-12.6-68.23-17.79-102.53-2.84-18.77-5.79-37.52-8.55-56.3-2.26-15.3-4-30.67-6.65-45.91-4.16-23.54-8-47.14-12.25-70.67-2.17-12-3.41-24.13-6.19-36-5.5-23.54-9.11-47.42-11.87-71.42-2.14-18.61-3.76-37.28-5.83-55.9-2.06-18.4-4.87-36.69-8.06-54.93-2.62-15-4.74-30.09-7.21-45.12-2.09-12.71-4.85-25.3-6.13-38.18-.57-5.84-.11-11.72-1.21-17.53-1.25-6.62-3.52-13.2-1.54-20.1a3.91,3.91,0,0,0-.89-3.31c-3.69-5.29-6.5-11.3-12.38-15.23-4.41,4.33-9.89,5.53-16,5a54.29,54.29,0,0,0-8.43.41c-4.58.32-5.07.78-5.36,5.48a43.67,43.67,0,0,0,0,7.05,54.23,54.23,0,0,1-1.15,18.73c-7.28,29.35-14.37,58.76-21.52,88.14-4.05,16.66-6.17,33.66-9.17,50.5-3.4,19.16-7.6,38.18-11,57.35-4.65,26.54-8.17,53.27-13.75,79.67-4.36,20.64-7.39,41.56-12.42,62.06-7.43,30.31-15.17,60.55-23.52,90.62-7.48,26.92-11.93,54.54-18.57,81.66-6.92,28.26-15.09,56.19-22.55,84.31-6.13,23.08-11.16,46.43-17.37,69.5-11.71,43.48-25.27,86.47-35.43,130.38-.36,1.56-.28,3.53-2.38,3.86-2.77.43-2.54,2.53-3.35,4.49-2.36,5.71.82,10.5,2,15.55.46,2,2.62,3.85,4.41,5.28s3.52-.53,5.29-.9c3.54-.74,7-.26,10.5.14q5.93.69,11.84,1.35c2.46.27,4-.56,4.44-3.24.44-3,1-6,1.6-9,4.91-25.6,12.08-50.63,19.23-75.66,12.1-42.42,23.6-85,33.88-127.9,4.54-18.93,10.19-37.58,15.3-56.37,7.51-27.63,13.62-55.58,19.68-83.55,1.3-6,1.39-6,7.78-6,9.4,0,18.81-.08,28.21,0C486.14,516,504.65,515.35,523.09,514.21Zm-74-35.14c-7,.09-6.94,0-5.08-7.14,6.56-25.19,13.53-50.29,19.43-75.64,4.66-20.07,7.56-40.55,12-60.69,6-27.28,9.09-55,14.36-82.41,5.88-30.61,11.65-61.23,16.76-92,1.35-8.1,4-15.88,6.55-25,2.73,5.11,2.19,9.48,2.83,13.52,2.69,16.9,6.42,33.62,8.17,50.66q1.65,16.06,3.49,32.11c2.14,18.85,4.43,37.68,6.49,56.54,2.56,23.35,8.43,46.1,12.46,69.18,4.79,27.46,9.26,55,13.91,82.46q2.28,13.51,4.76,27a23.65,23.65,0,0,1,.33,7.32c-5.37.44-10.67,1-16,1.26q-26.71,1.08-53.45,1.89C480.43,478.58,464.77,478.85,449.11,479.07Z"/><path class="cls-1" d="M1119.27,1288.08s0-.06,0-.09l-.11,0Z"/><path class="cls-1" d="M1209.65,676.68c-2.29-24-8-47.06-16-69.65a36.91,36.91,0,0,0-8.6-13.56c-5.11-5.23-11.35-9.15-16.39-14.38-7.55-7.83-16.71-8.74-26.31-6.13-6.19,1.69-12.76,1.94-18.46,6.09-13.43,9.77-24.26,21.23-28.78,37.69-2.85,10.39-5.84,20.74-8.72,31.12-2.73,9.89-6.45,19.59-5.51,30.18.15,1.75.16,3.52-2.08,4.72-1.63.88.76,1.56,1,2.46.23,0,.61-.07.67,0,1,1.74,5.12-.74,4.36,2.7s-3.39-1.09-4.95.5c-4.32,6.14-3.51,13.19-3.25,20,.34,9.26-1.16,18.21-3.25,27.15-1,4.08-1.25,8.34-2.47,12.32-1.33,4.36,1.46,8.26.64,12.55a8,8,0,0,0,2.59,7c2.37,2.24,2.29,4.88,2.45,7.73.88,15.69-1,31.34-.7,47,.37,20.16-.62,40.35-.71,60.53-.11,25.82.55,51.63,1.14,77.44.58,25.32.54,50.68-.5,76-1,24.7-1.77,49.44-.69,74.19.47,10.55-.16,21.16.65,31.67,1.46,19.13,3.17,38.26,5.62,57.29,1.88,14.59,3.4,29.32,8,43.46,1.85,5.73,3.25,11.61,5,17.34,1.39,4.45,2.26,9.41,3.77,14,2.36,7.2,6.69,12.28,14.94,12.61l2-.09c1.55-.19,3.73-2.41,4.1,1.19l1.41.29c.9,0,2.07-.34,2.39.76.57,2-1.55,1.81-2.46,2.63l-1.37.57-2.48,1.36c.62,3.78,3.88,4.28,6.66,5.09,3.81,1.12,8,1.29,11.55,2.89,8.14,3.69,15.15-.52,21.69-3.46,10.31-4.63,18-13,24.61-22.2a40.51,40.51,0,0,0,6-11.07c7.61-23.1,15.87-45.9,17.45-70.65.88-13.73,2.42-27.49,3-41.23.61-15.65,1-31.33.78-47-.43-30.28-.38-60.57-.08-90.85.05-5-1.69-9.64-1.38-14.61.91-14.72,2-29.46,2.08-44.19,0-7.67-1.17-15.42-1-23.14.28-13.11,1.14-26.22,1.6-39.33.34-9.6,1.91-19.11,1.45-28.79-.49-10.29-.46-20.61-.45-30.91,0-11.74.26-23.48.41-35.22.15-12.64-.63-25.26-1-37.88a387.76,387.76,0,0,1,.82-44.3C1212,703.47,1210.94,690.07,1209.65,676.68ZM1075.7,759c-.44.36-1,.31-1.11-.21-.31-1.48.62-2.37,1.74-3.16C1077.45,757.06,1076.83,758.1,1075.7,759ZM1093,648c-.1-.3.8-1,1.18-1.37,1.47.11,2.35.68,2.3,2.08a1.49,1.49,0,0,1-.72.86C1094.74,649.06,1093.37,649.13,1093,648Zm2.53,116.62c-.73,0-1.38-.35-1.32-1.2,0-.3.47-.57.81-.94.56.33,1.4.55,1.64,1C1097,764.41,1096.14,764.58,1095.48,764.58Zm22.2-115.84c-.17,1,0,2.25-1.45,2.41-.27,0-.86-.42-.84-.61C1115.5,649.15,1116.77,649.17,1117.68,648.74Zm-9-16.23,1.23-.21c-.16.34-.31.68-.46,1-.13.8-.35,2.18-1.13,1.77C1107.09,634.43,1107.83,633.3,1108.69,632.51ZM1105,685.77c.83-.18,1.29.28,1.55,1l.55.81-1-.4a1.36,1.36,0,0,1-1.61-1C1104.43,686.11,1104.75,685.82,1105,685.77Zm-1.83,549-1.58-.67c-.18-1,.35-1.33,1-1.59s1,0,1,.5A7.06,7.06,0,0,1,1103.12,1234.74Zm4.52-410c-1.39,2.24-1.76-.42-2.4-1.11-.39-.42-.44-1.16-.9-2.52C1107,821.86,1108.57,823.2,1107.64,824.69Zm14.11,434.81c-1.6-.87-1-2.44-1.16-3.74-1.11-.32-2.89-.32-3.21-1-2.47-5.23-7.41-7.38-11.89-10.15-.25-.15-.18-.84-.26-1.36,4.56-1.4,7.45,3,11.52,3.37,1.42.14,1.56,2.14,1.7,3.49.22,2.18,1.84,2.41,3.46,2.72C1126.06,1254.58,1126.06,1254.58,1121.75,1259.5Zm-10.2-32c3,1.76,2.88,6.84,7.72,5.75C1112.85,1236.69,1111.94,1235.9,1111.55,1227.46Zm47.85,52c-2.48-1.19-2.87-2.91-1.52-5.3C1159,1275.82,1161.25,1277,1159.4,1279.44Zm14.95-472.33c-.27,5.86-.35,11.73-.36,17.6,0,17.56.34,35.13,0,52.69-.23,11.22-1.73,22.41-2.18,33.64-.4,10.08-.15,20.18-.16,30.27,0,16.14-.25,32.29-.35,48.43-.24,40.65.12,81.3.37,122,.13,19.26-1.3,38.46-1.79,57.69-.33,12.82-1.19,25.63-3.94,38.17a282.53,282.53,0,0,1-12.5,41.74,36.19,36.19,0,0,1-9.78,13.58c-2.72,2.48-5.05,2.09-7.5.43-2.74-1.86-5.07-4.19-5.81-7.67-1.08-5-2.8-10-3.2-15.08-.57-7.13-4.76-13.15-5.41-20.16l-2.42,0c-1.81.43-1.07,4.2-3.62,3.17-2.12-.86-5-1.88-3.61-5.42.14-.38-.65-1.11-1-1.68a6.33,6.33,0,0,1-1.29-.45c-.77-.49-1.67-1.29-1.15-2.12s1.64-.43,2.32.26a15.69,15.69,0,0,1,1.26,1.63c1.35-4,3.23-7.31,8.23-7a202.56,202.56,0,0,1-3.89-28.5c-1.19-15.18-2.93-30.33-3.92-45.52-.69-10.52-.66-21.1-.71-31.65-.09-20.43-1.09-40.94.38-61.26,1-13.86.72-27.67,1.18-41.49.58-17.08,1.1-34.25-1-51.31-.08-.7-.05-1.41-.06-2.12-.17-28.17-.58-56.35-.42-84.52.09-14.79-.53-29.65.37-44.35,2-32.14-.36-64.3,1.53-96.4,1-16.83,2.41-33.66,4.42-50.4.85-7.13,3.7-14,5.69-21,1.59-5.65,3.51-11.22,4.74-16.93.51-2.35,2.78-5.34-.69-7.58-.46-.3-.13-1.77.37-1.67,4.88.95,4.42-3.92,6.56-5.9,1.2-1.11,2.12-2.53,3.35-3.61,6.13-5.36,7.68-4.94,14.38-.2,7.42,5.26,9.42,13.29,11.74,21a240.08,240.08,0,0,1,7.54,36.39c2.51,18.19,3.52,36.38,1.26,54.67a8.18,8.18,0,0,0-.12,1.4c.74,13.53-.39,27.06.63,40.63A323.65,323.65,0,0,1,1174.35,807.11Zm-61.3,396.58a1.23,1.23,0,0,1,1.39,1,1.09,1.09,0,0,1-1.13,1.28c-.58,0-1.62-.25-1.67-.54A1.52,1.52,0,0,1,1113.05,1203.69Zm62.84-11.07c-.66.29-.38-1-.53-1.51-.45-1.65.72-1.86,1.85-2a1.18,1.18,0,0,1,1.44,1.06C1177.78,1191,1177,1192.15,1175.89,1192.62Zm2.13-216c-.45-1-.08-1.13.79-.81l.24,1Zm5.16,1c-.67-.18-1.16-.75-.66-1.4a2.65,2.65,0,0,1,1.58-.93c.81-.12,1.06.55,1.08,1.27A1.45,1.45,0,0,1,1183.18,977.64Zm11.16,220.42c-.47.39-1.13.94-1.57.41s.25-1,.76-1.21l1-.23C1194.49,1197.37,1194.42,1197.72,1194.34,1198.06Zm1.17-169.35a.5.5,0,0,1-.49-.06c-.33-.41-.2-.71.33-.73.13,0,.26.21.39.32C1195.67,1028.4,1195.63,1028.64,1195.51,1028.71Zm5.64,21.86c-.83.18-1.3-.27-1.57-1l-.54-.81,1,.4a1.37,1.37,0,0,1,1.62,1C1201.67,1050.23,1201.35,1050.52,1201.15,1050.57Z"/><path class="cls-1" d="M636.59,1284.44c-7.92-18.31-15.86-36.6-23.16-55.18-9.27-23.58-17.93-47.39-28.5-70.49-9.45-20.67-16.4-42.44-26.2-63-6.35-13.36-10.06-27.8-16.74-41.06-5.7-11.32-10.89-22.9-16.3-34.37-1.28-2.73-3.53-5.5-3.5-8.23,0-3.06,4.12-4.13,6.14-6.39,7.68-8.57,15.53-17,23.26-25.49,15.36-16.93,30-34.28,35.91-57.18a26.14,26.14,0,0,1,1.27-3.28c10.37-25.79,12.44-52.23,6.64-79.4-1.38-6.46-3.67-12.6-5.71-18.82-5.25-16-10.93-31.93-21.07-45.74l-3,1.39c.33.86.67,1.72,1,2.59a1.31,1.31,0,0,1-.62,1.76c-1.52.72-1.33-.77-1.47-1.42a11.58,11.58,0,0,1,0-2.7c-3.88,0-6.93-1.79-10.53-4.63,4.34-.93,7.76,3.21,11.15.15,1.66-2.88-.94-4.44-2.24-6-9.15-11.31-18.48-22.47-27.77-33.67-3.29-4-6.24-8.33-10-11.75-8-7.24-16.39-14-25.81-19.47-9.21-5.33-18.08-10.7-29.54-6-3.45,1.43-7,1.2-5.68,6.34a1.9,1.9,0,0,1-1.36,2.19c-2.5,1-2.55,3.09-2.52,5.26q.06,6.33.13,12.66c.13,13.15.8,26.32.64,39.42-.17,14,.18,28-.45,42.05-.85,19.14.07,38.33-.1,57.51-.14,16.44-1.13,32.86-1.29,49.27-.22,21.81-1.29,43.62.53,65.48,1.28,15.4.72,31,.65,46.45-.12,27.94.38,55.87-1.19,83.81-.72,12.85.37,25.83.47,38.71.23,30.54,2,61,1.71,91.6-.08,7.53-.43,15.09.11,22.57a73.15,73.15,0,0,1-2.09,23.69c-1.3,5.1,2.55,9.1,3.52,13.75.22,1.1,2,.91,3.18.91,8,0,16,.3,24-.18,8.44-.51,8.51-.85,8.46-9.29-.09-14.34-.2-28.68-.48-43-.34-17.61.18-35.21-.71-52.84-1.26-25.09-1.23-50.24-1.56-75.38-.08-6.54.73-13.1.85-19.65.26-14.81.34-29.62.54-44.43,0-1-.54-2.33,1.38-3.44,4.06,8.4,8.28,16.65,12.06,25.09,5.77,12.85,9.56,26.5,15.74,39.2,4.41,9.08,8.17,18.44,11.73,27.9,4.55,12.07,9.16,24.17,14.65,35.83,5.41,11.5,9.8,23.37,14.56,35.11,6.35,15.65,12.69,31.32,18.45,47.2,5.5,15.17,14.58,29,17.08,45.33.63,4.17,4.69,7,8,9.41,2.19,1.59,4.38-2,6.87-2.6a57.67,57.67,0,0,0,8-2.62A96.55,96.55,0,0,0,637,1304c4.61-2.67,5.21-4.73,3.47-9.81C639.37,1290.91,638,1287.67,636.59,1284.44ZM563.5,817.63c.42,1.21-.39,2.19-1.35,2.9-1.37,1-2.82,1.63-4.4.42-1.4-1.08-1.52-2.69-1.68-4.27,1.34-.18,2.68-.33,4-.54S563,816.07,563.5,817.63Zm-9.27-1.32,1.15-1.27.59,1.59c-.36.12-.72.23-1.09.32C554,817.42,553.82,817.17,554.23,816.31Zm.84,12.62c-.12,0-.31.14-.37.09-.3-.27-.58-.57-.86-.86ZM506.31,975.1c-1.51,1.67-3,4.91-5.16,3.89a8,8,0,0,1-4.56-7.37c.11-3.78-.89-7.46-.93-11.17-.16-16-.61-32,.08-47.92.81-18.71,2.25-37.42,2.06-56.15-.11-10.27-.7-20.52.12-30.79.41-5.17-1.1-10.32-.81-15.39,1.14-19.94.62-39.88.9-59.81a8.54,8.54,0,0,1,.71-2c5.08,5.81,10.07,11.21,14.73,16.89,9.51,11.59,19.95,22.42,27.7,35.42,3.87,6.5,6.18,13.64,9.43,20.38,1.11,2.31,2.12,4.68,3.18,7l0,0c1.69,6.5,3.38,13.07,5.12,19.62,1.93,7.27,2.07,14.57,2.19,22.11a92.46,92.46,0,0,1-3.8,27.58c-2.47,8.54-4.91,17.29-8.93,25.15a124.66,124.66,0,0,1-18,25.92C522.41,957.43,514.35,966.26,506.31,975.1Z"/><path class="cls-1" d="M335.47,605.52c7.79-9.81,12.5-21.43,17.08-33,5.37-13.66,7.52-28,9.93-42.35a196,196,0,0,0,2.83-34.84A280.41,280.41,0,0,0,361,447.76c-1.44-7.83-2.41-15.71-4.17-23.51-2.43-10.76-6.11-21.15-8.77-31.83-2.78-11.14-5.71-22.29-9.57-33.08-7.34-20.54-15.7-40.71-23-61.24C306.84,274,299,249.75,293.06,224.8c-5.57-23.38-10.65-46.64-9.67-70.83.26-6.57.43-13.15.47-19.73a334.24,334.24,0,0,1,4.24-51.81c2-12.23,5.74-23.69,13-33.85a29.29,29.29,0,0,1,11-9.63c4.42-2.14,6.35-1.66,8.73,2.59a67.65,67.65,0,0,1,6,12.71c5.13,16.37,8.4,33.07,8.23,50.37-.09,8.42.6,16.84,1,25.26.16,3.26,1.29,4.7,5.26,4.62,4.6-.1,9.37-.26,14,.95,5,1.31,10.07.61,15.1-.09a24.83,24.83,0,0,0,3-17.67,60.09,60.09,0,0,1-1.08-12.58c.76-23.84-4.3-46.65-12.54-68.79-4.39-11.78-11.19-22.22-21.24-30.18a20.06,20.06,0,0,0-9.42-4.29c-6.07-1-12.29,0-18.19-1.55a10.28,10.28,0,0,0-7.43,1.06C287,9.42,272.93,20,264.52,37.21c-5.2,10.62-10.2,21.28-12,32.94-2.83,18.52-5.42,37.11-5.66,55.89-.23,17.33-.82,34.71.07,52,1.42,27.57,9.92,53.84,16.64,80.4,4.21,16.63,10,32.76,16.05,48.79,4.93,13.18,8.14,27,14.4,39.65,3.91,7.88,7.63,15.71,9.82,24.25a40.74,40.74,0,0,0,2.49,7.32c2.1,4.42,1.53,9.82,4.21,13.71s2,8.14,2.95,12.18c3.61.9,5.06,4.12,7.49,6.43-2.47,1.88-4.09-1-6.11-.43.44,4.51,2.5,8.55,4.11,12.65,1.67,4.27,1.42,8.9,4.17,13.16,2,3.08-.41,8.17.56,12.53,1.67,7.49,3.42,15.14,3.6,22.75.48,20.38.76,40.77-2.76,61-2.88,16.59-7.63,32.38-16.34,46.86-5.24,8.71-13,14-22.89,16.19-7.19,1.6-16.25-2.73-19.61-9-6.6-12.41-9.8-25.72-10.91-39.64-.64-8,2.27-16.69-4.75-23.46-.66-.64-.33-2.27-.56-3.41-1.51-7.38-.9-15-2.58-22.35-.52-2.28-1-4.11-4-3.75-7.18.9-14.37,1.67-21.57.05-.92-.21-2.15.14-2.21,1.2-.4,7.37-4.13,2-6.81,1.73-2.28,4.32-1.69,8.76-.36,13.24,5.39-.79,5.39-.79,6.4,4.52-2,.73-4-1.57-6-.05,2.73,2.54-.51,4.81-.31,7.15a91.4,91.4,0,0,0,2,13.19c3.36,13.88,4.87,28.09,8.23,42A112.8,112.8,0,0,0,237,610.81c9.56,15.14,25.33,21.8,42.57,22.33C302.62,633.85,321.27,623.4,335.47,605.52ZM323.39,390.34,322.11,389c0-.69.27-1,.72-.81a1.72,1.72,0,0,1,.74,1A3.1,3.1,0,0,1,323.39,390.34ZM215.91,505.62a.88.88,0,0,1-.85-1.33,1.24,1.24,0,0,1,1.13-.43c.28.08.42.66.63,1C216.52,505.14,216.21,505.63,215.91,505.62ZM327,407.73c-.92,0-1.88,0-2.5-.89.17-1.08,1.23-1.22,1.94-1.58a1.72,1.72,0,0,1,2.68,1.23C329.21,407.5,327.92,407.72,327,407.73Z"/><path class="cls-1" d="M1046.71,1254.78c-.7-8.91-.73-17.82-1-26.71-.78-21.83.54-43.68-.94-65.53-1.34-19.88-1.21-39.85-3.34-59.7-1.25-11.64-1.85-23.36-3.12-35-1.24-11.43-3-22.8-2.58-34.34.84-25.12-.16-50.22-1-75.33-.13-4.22-.39-8.44-.73-12.65q-1.7-20.65-3.49-41.3c-1.17-13.11.28-26.28-1.24-39.41a85,85,0,0,1-.18-16.82,32.38,32.38,0,0,0-4.34-18.92c-1-1.74-2-2.55-3.87-1.86-5,1.85-9.72,1-14.38-.93-3.31-1.36-7-.5-10.27-2.14a1.91,1.91,0,0,0-2.48.72c-2.5,4.08-5.89,7.4-6.37,12.86-1.25,14.31-5.69,28-9.73,41.7-5.12,17.37-13.69,33.4-20.63,50.07-.48,1.17-.82,2.69-2.7,2.76a13.09,13.09,0,0,1-1.18-1.66c-7.3-15-14.68-29.91-22.69-44.55-9.69-17.7-17.09-36.44-23.3-55.65-1.19-3.69-3.62-4.79-7.63-5.28-7.69-.92-15.29-.33-22.93.19-7.38.5-7.86.75-8.36,7.93a32.08,32.08,0,0,0,.11,5.63,221.91,221.91,0,0,1,1,37.15c-.91,14.69-.66,29.37-1.14,44-.22,6.73.45,13.43.06,20.19-.29,5-2.23,10.51-1,14.88,2.88,10-.28,19.83.1,29.7s-1.1,19.83-2.1,29.73c-.56,5.58.55,11.28-1.26,16.76,4.28,2.79,4.3,3.26.24,5.56a65.26,65.26,0,0,1,.3,6.83c-.6,10.82-1.32,21.64-2,32.45a13.94,13.94,0,0,1,4.15,4.26l1.38-1.28c0-.87-.2-2.17.63-2.33a2.12,2.12,0,0,1,2.66,2.15c1.08,4.21,1,4.3-2.63,3.75a4.05,4.05,0,0,1-2.87-1.48,3.68,3.68,0,0,0-3.06-.25c-.7,5,.24,10,.07,15,.59,3.13-1.07,6.81,2.33,9.28a1.79,1.79,0,0,1,.33,2.51c-4.56,3.94-2.38,9.17-2.83,13.88v9.66l-.3,3c0,6.38,6,6.72,10.79,9.85-3,1.36-5.39,2.54-5.06,5.61.12,1.09.15,2.63-1.39,2.75a2.79,2.79,0,0,1-3.13-1.94,138.31,138.31,0,0,0-2.39,26.69c0,11.47.09,23,.38,34.45.19,7.26-.45,14.8-.29,22.14.33,15.21-2.24,30.36-.75,45.57-3,5.86.56,11.59.39,17.4-.05,1.84.3,3.6,3.14,3.59,7.4,0,14.8.32,22.2.49,8.63.2,10.46-1.71,11.14-10,.76-9.18-.72-18.34,0-27.46,1.14-14-.4-27.93.23-41.9a299.9,299.9,0,0,0,.25-30.28c-.35-6,2.25-12.62-2.65-18-.33-.36-.23-1.8.09-2,5.67-3.06,1.83-8.49,3.1-12.64.49-1.59-1.05-3.76-.69-5.45,2.16-10.17-.07-20.49,1.36-30.67.18-1.3.42-3-1.34-3.57s-2.46.41-3,1.94c-.5,1.29-2.14,3-3,1.39-1.74-3.27-3.59-.52-5.32-.74a8.49,8.49,0,0,0-4.39-4.08l-1.37-.07h0a1.58,1.58,0,0,1,1.05-1.75c1.09-3.86-2.59-4.82-4.25-7l.51-4.71h0l2.58-.73c2.12-6.23,3.84-7.78,10.1-7.18,2,.19-.77,1.83-.56,3a3.62,3.62,0,0,0-3.64,1.46,6.35,6.35,0,0,1-5.84,2.82c.43,1.45-.15,3.14,1,4.42,2.87-2.49,6.89-.64,10.09-3.06,3-2.25,5.7-.29,5.81,3.62.06,2.16-1,4.41.88,6.82,2.06-5.91-.95-9.6-4.34-13.16.62-2.66,4.94-1.82,4.85-4.32-.13-3.54,1.1-7.66-2.51-10.45-2.41-.6-3.61-2.06-3.6-4.77,3.23.33,2.16,3.41,3.64,4.62,3.11-1.77,2.69-4.57,2.18-7.4a1.86,1.86,0,0,1-1.22-2,7.07,7.07,0,0,1,1,0c1.17-2.62.72-5.41.88-8.14,1.37-2.41.77-5.06.84-7.61.19-7,.53-14,.37-21-.23-10.78,1.55-21.44,1.51-32.23,0-11.87.33-23.81,1.09-35.63.81-12.58.77-25.14,1.24-37.71.19-5.09.58-10.18.88-15.27a4.48,4.48,0,0,1,2.53,2.29q6.5,13.29,13,26.6c3.48,7.19,8.42,13.55,11.65,20.91s6.94,14.21,10.56,21.24c.84,1.63,1.89,3.46,4,3.52,5.83.17,11.66.2,17.5.23,1.37,0,2.93.11,3.53-1.59,2.57-7.22,9.22-12.37,9.53-20.93.18-5.3,3.72-10,6.36-14.72,3.84-6.86,7.36-13.89,11.78-22.3.72,7,1.59,12.48,1.77,18,.62,19.25,1.9,38.47,1.53,57.74a101.62,101.62,0,0,0,.84,14.05c2.32,19.32,3.47,38.73,4.65,58.13,1.12,18.51,1.1,37.07,2.08,55.59.94,18,1.77,36,1.46,54-.29,17.13.57,34.27,1,51.41,0,.7.25,1.4.24,2.1-.09,6.33,1.35,12.93-.59,18.93s-1.43,12-.85,17.94c.37,3.84,1.21,8.1,4,11.11,2.62,2.84,6.26.21,9.41.74a19.19,19.19,0,0,0,4.22,0,136.21,136.21,0,0,0,17.44-1.93c2.65-.49,4.19-1.42,4.15-4.49C1046.87,1277.23,1047.59,1265.94,1046.71,1254.78Zm-150-296a1.23,1.23,0,0,1,1.13-.44c.3.09.43.68.64,1-.31.27-.61.78-.91.78A.91.91,0,0,1,896.76,958.8Zm-3.17,59.41c2.19,3.15,1.4,4.85-.13,6.36-.12.12-1-.19-1.17-.51C890.6,1021.48,893.94,1021,893.59,1018.21Zm-2.69-10.6c-.6.7-1.51,1.18-2.13.48-.81-.91.35-1.28.92-1.75.45-.67.92-1.75,1.84-.85C892.24,1006.2,891.73,1007.08,890.9,1007.61Zm.44-20.78c.93-.59,1.66-1.65,3.3-1.49a4.83,4.83,0,0,1-.28,3.71c-.55,1.42-1.43,2.39-3.13,1.82-.88-.29-1.84-.71-2-1.68C889,987.68,890.44,987.4,891.34,986.83Zm-1.84-27.41c.29.09.41.69.61,1.05-.22.75-.74,1.2-1.48,1-.28-.08-.59-.74-.56-1.11A1,1,0,0,1,889.5,959.42Zm-5.26-6.64c-1.24.93-2.43,1.14-3.58-.14A2.35,2.35,0,0,1,884.24,952.78Zm-4.35-83a1.21,1.21,0,0,1,1.14-.38c.29.13.38.72.56,1.1-.33.24-.69.7-1,.66A.86.86,0,0,1,879.89,869.79ZM879,920.21c.84.23,1.87.33,2.1,1.3s-.67,1-1.26,1a1.84,1.84,0,0,1-2-1.34C877.57,920.23,878.31,920.2,879,920.21Zm-4.85,40c.15,0,.23.33.34.51,0,.53-.3.77-.81.61a.67.67,0,0,1-.33-.49C873.28,960.31,873.6,960.06,874.11,960.21Zm-2,29.93a19.4,19.4,0,0,1,.5-2c.32-.88.83-2,1.89-1.57,1.62.73.67,1.8-.06,2.7l-.9,1.07c.13,1.17.09,2.29-1.39,2.51-.37.06-1.07-.16-1.14-.39C870.71,991.42,871.64,990.87,872.1,990.14Zm-.37,20.81,1-.22c-.07.34-.15.68-.23,1-.47.38-1.13.94-1.57.41S871.22,1011.21,871.73,1011Zm-2.88,46.57a11.5,11.5,0,0,1-.77,1.33c-1.39-.28-1.7-.76-1.51-1.48a1.26,1.26,0,0,1,1.38-1.09C868.6,1056.35,869.25,1056.64,868.85,1057.52Zm2.38-6.8c-.74-.06-1.06,0-1.14-.1-1-1.29-3.19-1.82-2.73-4,.08-.38,1.15-.86,1.68-.78C871.92,1046.28,871.44,1048.45,871.23,1050.72Zm-.58-21.31c-.2,0-.52-.34-.49-.44a1.39,1.39,0,0,1,1.6-1l1-.4-.54.82C872,1029.13,871.48,1029.59,870.65,1029.41Zm0,96.6c-1.09-3.11-3-4.42-5.63-4.44.39-1.08.8-2.15,1.15-3.24.93-2.84,1.91-4.5,4.3-.84.79,1.21,2.53,1.8,3.83,2.68h0Zm7.16,28c-.8.26-1.9,1-2.33.67-.83-.55-.37-1.54.32-2.19s.72-2.12,2-2.46Zm-4.23,7.17a5.17,5.17,0,0,1-2.69,3.57c-.48-4.08-.48-4.08,2.63-5.14.59-1.28,1.75-1.07,2.82-1.09,1.21-1.68,2.85-1.54,4.47-1.43-1.62-.11-3.26-.25-4.47,1.43,0,.84,0,1.69,0,2.53Zm8.56-.14c.64-1.26,1.65-2.51.28-3.92l.06-.08h0c1.41-1.22.77-2.92,1-4.41,2.5.33,1.41,3.14,2.89,4.17l-.06,4.29C884.92,1162.58,883.52,1162.8,882.15,1161Zm9.66-18.33c1.92-.23,2,1.15,2.43,2.09,1,2.07-.37,2.93-2,3.34a2.13,2.13,0,0,1-2.53-1.75C889.39,1144.6,890.84,1143.59,891.81,1142.67Zm-11.17-25.38c.56,1.56-.5,2.35-1.5,3.16A4,4,0,0,1,878,1120C878,1118.24,878.54,1117,880.64,1117.29Zm-8.53-17c-2-.54-5.4,1.62-5.57-2.73l2.8.13,2.77,2.59a6.37,6.37,0,0,0,4.38-.71c1.28.25,1.54,1.12,1.39,2.26C875.88,1101.6,873.61,1102.42,872.11,1100.31Zm7.12-51.16c-4.83-4.15-4.83-4.15,1.19-6.87C878.76,1045.08,879.74,1047.13,879.23,1049.15ZM881.1,1032a2.16,2.16,0,0,1-2-1.56c0-.15.6-.48.93-.72,1,0,1.89.2,1.79,1.46C881.78,1031.46,881.3,1032,881.1,1032Zm-.86-10.53c-4.79-.31-2.62-3.49-2.43-5.86-1.58.4-3.16.71-4.66-.37,1.29-1.53,3-.79,4.48-.82,4.89-1.14,4.24,2.46,4.52,5.27,2.26.69,1.94,2.83,2.54,4.46C882.67,1024.14,880.77,1024,880.24,1021.45Zm4.9,3.13a1.3,1.3,0,0,1-.18-.23l.53.25C885.37,1024.6,885.2,1024.64,885.14,1024.58Zm2.9-5.06c.1-1.11.6-1.7,1.28-1.72,1.71,0,1.43,1.49,1.52,2.47.07.66-.63,1.11-1.43.89C888.39,1020.9,887.81,1020.32,888,1019.52Zm2.16,20.27c-1.51-1.09,0-1.93.65-2.68s.48-2.28,2-2.39c1.37,1.07,1.11,2.53.58,3.74S891.69,1040.86,890.2,1039.79Zm7.41,37.12h0l-3.52-.46v0l0,0h0c-1.8.2-2.93-.3-3.2-2.37s1.56-1.75,2.48-2.46l.71,4.79Q896.41,1072.39,897.61,1076.91Zm123.45-71.4c.55.11,1,.79,1.46,1.2l-.71,1.13c-.55-.35-1.29-.58-1.58-1.07C1019.83,1006.1,1020.23,1005.35,1021.06,1005.51Zm-8.71,56.55a1.07,1.07,0,0,1-1.46-.88c.21-.37.34-1,.65-1.07a1,1,0,0,1,1.4.94A1.25,1.25,0,0,1,1012.35,1062.06Zm3.22-8.6c-1,.18-1.63-.57-1.71-1.56s.34-1.24,1.24-.88c.71.29,1.84-.12,1.94,1.36C1016.6,1052.72,1016.13,1053.37,1015.57,1053.46Zm3.29-3.47c-1,.35-1.58-.24-1.75-1.13a4.68,4.68,0,0,1,1.67-.64,1.25,1.25,0,0,1,1.63.83A8.11,8.11,0,0,1,1018.86,1050Zm1.72-35.88c-1.31-.16-.89-1.24-1-2.09-.1-1.1,0-2,1.37-1.57a2.24,2.24,0,0,1,1.56,2C1022.17,1013.37,1021.7,1014.25,1020.58,1014.11Z"/><path class="cls-1" d="M880.55,1103.07l0,.06h.08a.25.25,0,0,0,0-.08Z"/><path class="cls-1" d="M114.86,307.29c-1.71-11-4.65-21.82-6.62-32.72a266.91,266.91,0,0,0-12.85-46.49c-1.8-4.82-3.58-9.64-5.29-14.49-7.79-22-19.27-41.6-35.8-58.22-2.54-2.56-5.95-4.75-6.68-8.81s-4.28-6.43-6.49-9.51c-1.84-2.57-5.2.46-7.92.44a12.4,12.4,0,0,1-3.51-.12C24,135.6,18,136.57,12.21,136c-5.4-.51-6.06.48-6.79,5.47a145.82,145.82,0,0,0-1.63,20.8c-.06,19-1.1,38-1.18,57-.09,21.59.23,43.18,1.45,64.75a280.34,280.34,0,0,1-.89,40.77c-.72,8.18.27,16.38.61,24.58a289.45,289.45,0,0,1-.7,34.46c-1.44,18.42,0,36.9-.56,55.35-.33,10.78-.08,21.54-.75,32.35-1.33,21.31-.5,42.7-1.53,64-.89,18.31,1,36.62.67,54.91-.14,8.16-.43,16.28.25,24.42.42,5,.87,5.44,5.76,5.1a13.74,13.74,0,0,1,4.13.54c3.73.85,7.43.65,11.17,3s6.91-4.08,11.21-3.86c3.26.16,4.22-1.41,4.14-4.19-.09-3.3,1.49-5.68,3.72-8,11.25-11.51,20-24.83,27.45-39,8.15-15.59,16.14-31.28,23.53-47.24,6.61-14.26,12.4-29,15.78-44.35,5-22.86,8.12-46.12,10.28-69.46a340.85,340.85,0,0,0,1.53-37.27C120.4,349.09,118.09,328.14,114.86,307.29ZM83,372.35c-.22,25.87-3.6,51.37-7.51,76.87-4.72,30.83-16.32,59.08-31.47,86.07-2.05,3.65-3.83,7.45-5.74,11.17l-1.39-.19q.51-15.71,1-31.4c.05-1.41.33-2.81.3-4.22-.56-23,1.07-46,1.14-69,.05-16.42-1-32.86.3-49.26,1.93-23.93.25-47.9,1-71.84.54-17.36.92-34.72-.17-52-1.37-21.81-.5-43.61-.81-65.42,0-1.54-.6-3.25.7-4.63,2-.39,2.38,1.17,3,2.33a173.44,173.44,0,0,1,13.18,28.71c3.29,9.75,7.06,19.33,10.27,29.14,4.09,12.54,6.37,25.41,8.8,38.26C80.43,321.79,83.25,346.91,83,372.35ZM88,242c-.63-.29-1.25-.69-1.15-1.48.06-.51.57-.65,1.09-.4a1.71,1.71,0,0,1,1.17,1.51A.74.74,0,0,1,88,242Z"/><path class="cls-1" d="M871.72,499.94c0-9.33-.34-18.75-.87-28.11-.84-15-2.05-29.91-2.82-44.88-.42-8.21.63-16.57-.53-24.64-2.75-19.05-2.65-38.33-5.41-57.34-2.22-15.29-4.29-30.65-8.52-45.55-3.5-12.38-9-23.54-20.49-30.78C823.47,262.59,814,259,802.21,263c-13.58,4.64-22.89,13.45-28.93,25.87a85.15,85.15,0,0,0-8.19,41.63,80.86,80.86,0,0,1-.54,16.89,179.5,179.5,0,0,0-2.31,25.16c-.33,12.41-.39,24.85-2.67,37.14-.55,3-1,6.08-.2,9.1,1.35,4.84,1,9.78,1.06,14.7.13,14.79-1.82,29.54-.71,44.62-1.26,17.84,1.79,35.78,2.14,53.8.29,15.06,3.27,29.67,5,44.48A98.12,98.12,0,0,0,777.2,609.7c5.46,10.79,14.6,16.13,24.75,20.52a27.77,27.77,0,0,0,12.29,2.51c19.53-1.32,33.79-11.29,40.5-29.47,5.4-14.62,11-29.28,12.74-45.19C869.63,538.72,871.74,519.37,871.72,499.94Zm-37.2,23.63c0,6.65-1.8,13.34-2.4,20.07-.4,4.41-1.6,8.76-2,13.17-1.06,11.67-6.48,22-9.88,32.93-.81,2.62-2.75,4.71-5.52,4.8s-4.5-2.27-5.66-4.68a51.43,51.43,0,0,1-4.67-13.18c-3-16.86-4.47-33.85-5.94-50.91a642.29,642.29,0,0,1-2.18-66.07c.21-12.65,1.45-25.29,1.45-37.93,0-8.91,1.09-17.71,1.29-26.57.26-11,1.77-22,2-32.92.22-12.56,3.31-24.93,1.48-37.67-.92-6.35,1.07-13,4-19,1.13-2.29,2.1-5.24,5-5.34,3.63-.12,4.09,3.48,5.1,5.93,2.42,5.88,3.35,12.18,4.57,18.39,4,20.51,5.33,41.3,7.38,62.05,1.88,19,1.63,37.95,3.1,56.86,1.35,17.31,2.74,34.59,2.61,52.25C834.66,504.8,834.47,514.19,834.52,523.57Z"/><path class="cls-1" d="M829.19,1076.82c-4.29-11.73-9.43-23-14.83-34.17-5-10.38-12.17-19.52-17.51-29.68-6.43-12.24-12.36-24.77-18.13-37.35-4.67-10.22-9.45-20.45-11.68-31.6a126,126,0,0,0-2.73-12.36c-3.84-12.47-4.79-25.19-4-38.13.19-2.81.18-5.65.62-8.42,1.65-10.46,3.91-20.76,10.08-29.66,4-5.71,6.4-5.73,10.71-.15a53.73,53.73,0,0,1,9.49,19.52c2.41,9.47,5,19.09.8,29-1.68,3.92-.82,4.75,3.68,6.41,3.69,1.36,7.3,3.14,11.45,2.74.85-.09,2.25.14,2.56.69,2.28,4.16,6.41,2.8,9.83,3.81,3.73,1.12,5.48-.44,6.76-3.09,3.15-6.55,5.53-13.15,5.34-20.81a105,105,0,0,0-7.78-37.64c-7-17-15.44-32.69-34.52-40.32-13.83-5.53-25-2.21-36.23,5-7,4.56-11.82,11.14-15.86,18.46-6.53,11.85-11.19,24.48-12.78,37.73-1.49,12.46-2.46,25.06-1,37.84,1.74,15.23,5.72,29.86,9.42,44.59,4,15.79,11.37,30.25,18.39,44.82,6.7,13.94,13,28.16,21.62,41.05a156.4,156.4,0,0,1,13.81,25.26c1.86,4.3,3.84,8.56,5.63,12.9,5.19,12.63,7,25.82,4.53,39.21-1.6,8.74-4.29,17.31-7,25.79a31.88,31.88,0,0,1-7.56,12.58c-8.63,8.83-9.73,7.74-19.09,4.29-5.54-2-11.18-5.12-13.33-10.74-2.47-6.44-4.37-13.41-2.62-20.58,2.31-9.46,1.87-19,.88-28.55-.26-2.57-.89-4.68-4.21-4.21-9,1.26-18.14-.58-27.21.77-3.15.47-4.74,1.6-5.1,4.54a13.54,13.54,0,0,0-.07,4.91c1.41,5.23.06,10.22-1,15.23a58.71,58.71,0,0,0-1,9.79c-.25,8,2,15.76,2.79,23.65.55,5.26,2.89,9.77,5.33,14.37,3.68,6.92,10.24,10.73,15.56,15.91,6.56,6.38,14.29,9.61,22.65,12.06,8.87,2.6,18,4.4,27,1.59,13.19-4.11,23.19-12.63,31.44-23.71A78.6,78.6,0,0,0,827,1153.72c4-14.59,9.15-28.79,7.57-44.6C833.52,1098.16,833.07,1087.43,829.19,1076.82Z"/><path class="cls-1" d="M1279.18,844c3.19-.73,4.55,2,5.9,4.09,4.38,6.77,7.49,14,8,22.22.41,6.77,1.6,13.48,2.28,20.23.27,2.76,1.74,3.64,4.21,3.45,4.17-.32,8.4-1.29,12.47-.84,4.8.52,9.13-.58,13.7-1.39,4.36-.77,5.38-3,5.37-6.71,0-20.22-2.42-39.95-14.55-57-7.59-10.65-15.38-20.82-30.91-21.1-10.1-.19-19.21,0-28,5.93-10.41,7.07-18,15.89-20.54,28.19-3.79,18.25-4.51,36.52,0,54.94,3,12.36,8.13,23.38,16.19,33.13,3.74,4.53,7.78,8.78,11.64,13.19,11.2,12.79,21.06,26.43,25.21,43.38,3,12.18,2,23.62-5.2,34.32a17.61,17.61,0,0,1-8.42,7.05c-5,1.93-5.81,1.73-8-3.36-2.58-6.11-3.33-12.66-4.16-19.17-.71-5.56-1-11.18-2.69-16.59-1.6-5.1-1.94-5.54-6.74-4.53-5,1-10,2.28-15.06,2.94-2.68.34-5.55.55-7,3.68a2.89,2.89,0,0,1-3.63.81c-3.66-1.63-4-1.3-3.51,2.29.55,3.94,1.36,7.85,1.85,11.79.43,3.42-.48,7,1.93,10.11,2.61,3.31-.27,6.93.65,10.63,2.78,11.13,7.25,21.27,14.75,29.91,3.87,4.47,8.57,8.13,14.62,9.22,17.64,3.17,33.43-1.59,47.13-12.58,8.41-6.74,12.88-16.71,16.95-26.4,8.76-20.87,6.24-42-1.54-62.35-6.85-17.87-17.86-33.46-31-47.44-7.58-8.05-14.89-16.22-18-27.36-1.68-6-1.59-12.06-1.67-19,0-.37-.11-1.54-.17-2.71a52.5,52.5,0,0,1,2.24-17.32A7.87,7.87,0,0,1,1279.18,844Zm-40.33,164.26c-1.23.89-2.49.41-4.28-.16a2.93,2.93,0,0,1,3.9-.89C1238.72,1007.32,1238.94,1008.2,1238.85,1008.27Z"/><path class="cls-1" d="M723.1,504c-2.1-2.88-3.77-5.49-2.15-9.09-3.5-4.08-.56-7.49.95-11.19.67-1.64.28-3.7.44-5.56.3-3.38-1.42-4.73-4.58-4.62s-6.63-.08-9.84.48c-7.35,1.31-14.8-.89-22.15,1-2.94.77-4.81-1.05-4.87-4.41-.08-4.21.47-8.41.49-12.62.05-13.39.35-26.79-1.08-40.14-.06-4.95.58-9.84,1-14.76.25-3.27,1.1-4.64,4.53-4.46,10.28.56,20.63-.34,30.87,1.26a15.14,15.14,0,0,0,8.86-1.53c2.26-1.1.53-4.25.52-6.49a6.29,6.29,0,0,1,0-2.07c2.39-6.77,1.29-13.75,1.71-20.65.28-4.62-1.6-5.27-4.86-5.62-5.33-.57-10.66-1-16.05-1.21-14.75-.46-29.53-.43-44.2-2.55-4.12-.59-8.38-.61-12.46,1.14-1.41.61-3.09,1.28-2.82,2.62,1,4.68-2.09,8.61-2.07,13,0,11.75-.91,23.45-1.49,35.16-.68,13.63,1,27.21.93,40.83-.1,10.92-.43,21.81-.24,32.75.38,21.61,1.5,43.13,3,64.67,1,14.74,1.31,29.54,2,44.3.11,2.09-.13,4.11-.18,6.12-.17,6.6-2.76,13.26.81,19.91,1.66,3.09,2.91,4.55,6.73,4.43,8.44-.25,16.85-.47,25.25-1.55,4.71-.61,5-.36,4.9-5.48-.12-10.55.25-21.08-.72-31.66-1.27-13.76-1.27-27.64-2.08-41.46-.52-8.88-1.51-17.73-2.28-26.6-.46-5.18.15-6,5.66-6.32,3.45-.23,6.83-.66,10.4-.2,7.5,1,14.93-1.07,22.42-1.55C724.23,509.61,725.35,507,723.1,504Z"/><path class="cls-1" d="M218.46,368.22c0-7.74.59-15.54-2.23-23-.63-1.66,2-3.59-.38-5.06-1.69-1-3.65-.81-5.51-.77-5.17.12-10.34.25-15.5.49-5.36.25-5.86.16-5.91-4.77q-.23-23.46,0-46.91c.05-4.8.63-5.3,5.39-5.2a199.94,199.94,0,0,0,21.06-1.16c2.8-.24,4.32-1.17,4.13-4.3-.54-8.88-.94-17.76-1.37-26.65-.23-4.93-.58-5.45-5.64-5.56a85.78,85.78,0,0,0-14.74.74c-7.94,1.19-8.39.49-8.46-7.38-.14-15.73-.34-31.46-.45-47.19,0-4.93-1.49-9.75-1-14.72.24-2.31.92-3.16,3.55-2.82,6.79.88,13.52-.83,20.31-1.15,5.87-.29,9.08-4.69,8.62-10.55a2.35,2.35,0,0,1,0-.7c1.57-7.82-3.57-14.5-3.73-22,0-1.13-.78-1.46-1.58-2-3.22-2.11-6.42-3.48-10.49-2.46-9.63,2.42-19.57.74-29.37,1.94a86.71,86.71,0,0,0-17.43,3.72c-3.6,1.21-5.37,3.16-5.29,6.23.18,6.29-2,12.34-1.37,18.66.95,10.24.16,20.52.76,30.81,1,17.34.58,34.78.7,52.17.07,9.14,0,18.28,0,27.41h-.46c0,14.26.1,28.53,0,42.79-.17,17.85.53,35.68,1.46,53.5.3,5.83,1.24,6.47,7.29,5.55.7-.11,1.5-.55,2.07-.35,8.08,3,16.21.93,24.3.2,7.06-.63,14.1.07,21.12.42,4,.2,6.38-2.57,9.42-4C219.86,373.15,218.46,370.25,218.46,368.22Zm-5.34-227.14c.3.27.82.52.84.82.08.84-.52,1.24-1.28,1a1.25,1.25,0,0,1-.49-1.1C212.24,141.51,212.79,141.31,213.12,141.08ZM185.65,311.83a1.22,1.22,0,0,1-1.12.42c-.29-.08-.43-.65-.63-1,.3-.26.6-.75.9-.75A.88.88,0,0,1,185.65,311.83Z"/><path class="cls-1" d="M680.08,1133c-2.41-.94-3.68-2.19-1.21-4.45.84-3.29-1-6.87,1.08-10-.1-2.36-2.41-4.78.18-7.08-1.13-10,1.3-20.34-2.57-30.12-2.52.42-.59,4.27-4,4.54-1-3.2-1.72-6,2.71-7.35a4.83,4.83,0,0,0,3.76-5.21c0-2.82-.14-5.64,0-8.44a433,433,0,0,0-.94-52.58c-.85-11.89.32-23.73.12-35.6-.18-10.49,1.55-21.18.83-31.85-.45-6.66-.46-6.8-6.83-6.58-7.19.25-14.34-.3-21.6.91-6.06,1-6.37.12-7.76,5.77a17.35,17.35,0,0,0-.5,4.87,344.23,344.23,0,0,1-.87,39.33c-1.08,15.94.36,31.9,1,47.83.51,11.87-.64,23.6-.84,35.4-.07,4.58-2.18,9.87,2.29,13.84,1.91-1.11,3.82-1.82,5.78-.09-.34,2.24-.11,4.31,1.77,5.88-1.39,3.59-1.87,3.71-4.56,1.14-.6-2.12.5-5.15-3.06-5.68-2.74,2.14.26,4.94-.83,7.26-1.32,2.43-.72,5.06-.72,7.6-.06,19,0,37.94-.05,56.92a41.67,41.67,0,0,1-1.94,13.68c-1.1,3.22.62,7.47,1.32,11.21.24,1.31,1.7,1.19,2.88,1.38a155.1,155.1,0,0,0,26.25,2.2c2.07,2,3.4.79,4.58-1.06,3.52-1.25,2.11-4.6,3-7l-.12-3.42a2.81,2.81,0,0,1-.65-3.85c-2.14-.72-2.52-1.85-.83-3.49,2.6-4,3.45-8.1.49-12.45-.69-1-.61-2.53-.86-3.83-1.08-.21-2.53-.09-2.59-1.59s.71-2.36,2.19-2.19h0a3,3,0,0,0,.43.06v3.6c3.36-2.07.41-6.11,2.63-8.54C681,1140.34,680.3,1136.68,680.08,1133Zm-6.32-9.51c-.19.28-.37.56-.55.85-.27.73-.73,1.18-1.56,1-.19,0-.52-.33-.49-.43a1.38,1.38,0,0,1,1.59-1Zm-3.92-4.85c-.63-.25-1.28-.47-1.89-.77-1-.49-3.16,0-2.25-2.19.58-1.41,1.87-.67,2.91-.37a3.11,3.11,0,0,1,2.12,1.52c.52.42,1.53,1.07,1.46,1.21C671.71,1119.1,670.78,1119,669.84,1118.67Zm-1.19-37.84a.88.88,0,0,1,.57.34c.29.51.09.88-.49,1-.33-.24-.85-.42-.93-.73C667.67,1081,668.09,1080.72,668.65,1080.83Zm-12.88-39.89a.92.92,0,0,1-.87,1.35c-.36,0-1-.27-1.08-.54a1.13,1.13,0,0,1,.92-1.45C655.1,1040.51,655.64,1040.64,655.77,1040.94Zm-2.39-38c.26-.73.72-1.19,1.55-1,.2.05.52.34.49.44a1.37,1.37,0,0,1-1.59,1l-1,.4Zm.33,52.66c1.12.16,2.36.3,2.45,1.83-.07,1.41-.69,2.26-2.13,2.18s-1.92-1-1.9-2.36C652.14,1056.17,652.51,1055.42,653.71,1055.59Zm4.76,28.72c3.21.71,7.7-.83,9.33,2.4,1.44,2.84,4.14,4.87,5.52,8.71-4.57-.76-8.77.47-11.75-3.48-1.11-1.48-2.6,0-3.91-.07ZM656,1100.7c-.7-.73-2.2-1.32-1.55-2.43.57-1,1.45-.18,1.83.71,7.19-1.08,7.19-1.08,9.17,4.14l.73,1.51c1.09-.3,3.13-.18,3.06.15-.31,1.38-1,3.32-2,3.73-1.3.5-1-1.52-1.41-2.43a2.5,2.5,0,0,1-1.31-.3c-.64-.19-1.55-.17-1.86-.59C659.59,1101.13,659.62,1101.11,656,1100.7Zm19.87,63.57c.49.27,1.08,1.44.93,1.63-2,2.44-4.6,2.16-7.41,1.15C671.27,1165.38,672.66,1162.51,675.82,1164.27Zm-5-14.67c.31-.27.62-.75.92-.75a.9.9,0,0,1,.88,1.35,1.27,1.27,0,0,1-1.15.42C671.2,1150.54,671.05,1150,670.84,1149.6Zm4.47-2.58c-2.7-.83-4.82-3.12-8.11-2.57-1.93.33-3.26-1.53-4.94-3,1.82-2.53,3.87-3.65,7-2.23,2.69,1.24,5.43,2.36,8.15,3.53C677.07,1144.33,675.08,1145.15,675.31,1147Z"/><path class="cls-1" d="M677.37,1152.66h0l-.06-.08S677.36,1152.63,677.37,1152.66Z"/><path class="cls-1" d="M673.77,882.85a48.6,48.6,0,0,1-10.78.28c-3.91-.74-7.41-.2-10.91-.12-1.14,0-2.38-.12-3.27.87-3.18,3.55-6.73,6.71-5.63,12.46,1,5,.71,10.21,1.37,15.31.48,3.63,2.22,6.57,3.49,9.79a3.42,3.42,0,0,0,3.81,2.39c9.18-.82,18.35-1.75,27.53-2.37,3.68-.24,4.82-2,4.86-5.36.12-9.36-.29-18.67-2.36-27.84C680.57,882.46,680,882,673.77,882.85Z"/><polygon class="cls-1" points="872.1 1100.3 872.11 1100.31 872.12 1100.31 872.1 1100.3"/><path class="cls-1" d="M677.41,1152.66v-.12l-.06,0Z"/><path class="cls-1" d="M864.84,1148.48c.07-.8.52-2-.72-2.2s-1,1.24-1.25,2,.11,1.15.74,1.4C864.23,1149.48,864.79,1149.17,864.84,1148.48Z"/><path class="cls-1" d="M863.61,1149.64l-.19,0a5.06,5.06,0,0,0,.18.83c.06-.28.1-.55.16-.82Z"/><path class="cls-1" d="M872.12,1100.31h0Z"/></g></g></svg>