<?xml version="1.0" encoding="UTF-8"?><svg xmlns="http://www.w3.org/2000/svg" viewBox="0 0 587.26 290.69"><defs><style type="text/css">.cls-1{fill:#fd0;}</style></defs><g id="Camada_2"><g id="Camada_1-2"><path class="cls-1" d="M441.52,101.48a199.31,199.31,0,0,0,12.62-28.81C461.57,52.33,468.47,31.8,474.42,11c.79-2.8,4.17-4.48,7.89-4,4.33.58,7.2,3.73,10.51,6.08a2.56,2.56,0,0,1,.76,2.23c-1.73,6.81.15,13.58.46,20.31.7,14.9-.27,29.72-1.12,44.54-.88,15.24-1,30.51-1.55,45.76-.54,14,.51,27.94.43,41.92q-.24,41.55-.39,83.1c0,8.67.19,17.35.42,26,.08,2.93-.73,4.11-3.95,4.8-4.19.9-8.19-.42-12.24.18a2.4,2.4,0,0,1-2.81-1.89c-.63-3-3-5.66-.59-9.21,1.44-2.09.77-5.28.29-7.9a31.06,31.06,0,0,1-.06-12.88c.73-3.18-.69-6.08-.64-9.19.11-7.84,1.44-15.62.94-23.49-.26-4.11.13-8.22-.73-12.33-.71-3.45.59-7,.62-10.44q.24-22.65,0-45.28c0-5.71-1.21-11.5-.63-17.12,1.58-15.37-.35-30.85,1.86-46.18a54.68,54.68,0,0,0,0-7.68c-2.11.12-2.06,1.39-2.37,2.27-5.61,16-14.31,30.68-18.88,47.09a14.17,14.17,0,0,1-6.33,8.63c-4,2.46-7.28,1-10.83,0-1.84-.5-2-2.52-2.53-4-5.47-14-12.17-27.57-17.15-41.8a4.89,4.89,0,0,0-2.14-2.8c0,4-.48,8.1.12,12,.8,5.17.63,10.3.66,15.44.13,18.16,1.05,36.28,2.46,54.37a51.93,51.93,0,0,1,0,5.58c-.72,20,.88,40,1.4,60.06.23,9,1.83,18,2.78,27a34.44,34.44,0,0,1,.47,6,7.2,7.2,0,0,1-6.49,7,9.4,9.4,0,0,0-2.93.51c-1.56.73-2.92,3.25-4.79,1.61-2.16-1.9-5.59-3-5.4-6.91.08-1.81-.8-3.67-.72-5.48.49-10.79-1.59-21.36-2.41-32-.55-7.2,0-14.49-.61-21.68-1.55-17.53.2-35.12-1.25-52.62-1.09-13.15-.55-26.36-1.84-39.52-.77-7.79-.19-15.7-.61-23.53-.89-16.67-1.88-33.34-2.57-50-.42-10.06-2-20.06-3.09-30.09a19.59,19.59,0,0,1,0-4.33c.28-2.56,1.69-4.12,4.38-4.29a18.23,18.23,0,0,1,2.45-.17c9.86.48,9.43.65,13.11,10.5C414,31,418.12,45.3,424.18,58.93c5.36,12.05,9.45,24.65,14.2,37C439.13,97.81,439.43,100,441.52,101.48Z"/><path class="cls-1" d="M520,135.72c.92-4.89.82-10.59.66-16-.18-6.42.86-12.71.61-19-.16-4.19,1.57-8,1.13-12.2C521,75,522,61.41,521.1,47.88c-.25-3.81,1-7.32,1.46-11,1.32-10,4.26-19.58,11-27.64,8.78-10.5,21.55-12.14,33-4.7,9,5.84,12.4,14.83,14.37,24.26,3,14.47,4.14,29.24,5.38,44a348.51,348.51,0,0,1,.46,44.43c-.61,14-.6,28-3.34,41.81-1,4.83-1.82,9.91-4,14.22-5.58,10.92-13.19,19.77-26.2,22.4a28.58,28.58,0,0,1-11.5.43,15.5,15.5,0,0,1-10.07-6.45c-6.32-8.86-8.61-18.81-9.75-29.44C521.06,152.28,520.51,144.28,520,135.72Zm48.36-35.13c.07-17.53-.75-32.13-2.87-46.57-1.18-8.08-1.42-16.31-4-24.22a20,20,0,0,0-4.84-8.43c-3.15-3.17-5.26-3.13-8.28.27a26.8,26.8,0,0,0-5.9,11.4c-1.5,5.8.51,11.46.3,17.23-.4,11.28-.45,22.55-1.24,33.83-.38,5.33-1.18,10.63-1.36,16q-.51,14.82-.4,29.66c0,3.32-1.51,6.44-.84,9.77,1.39,6.88,1,13.92,2.08,20.86a68.61,68.61,0,0,0,3.65,14.22c1.15,3,2.76,3.24,5.17,2.56,5.54-1.58,9.07-5.4,11.43-10.48A55.27,55.27,0,0,0,566,145.16C566.55,129.28,569.5,113.58,568.4,100.59Zm-38.58,40.06a2.8,2.8,0,0,0-2.27-1.29c-.68-.08-1.31.43-1.21,1,.22,1.14,1.46,1,2.28,1.42S529.67,141.57,529.82,140.65Z"/><path class="cls-1" d="M275.76,229.79c.51,14.81-.66,28.76.84,42.69a14.49,14.49,0,0,1-.32,6.11c-.67,1.91-3,1.83-4.84,2.14a3.82,3.82,0,0,0-1.07.58c-1.89,1.05-2.44,4.89-5.87,2.79-3.84-2.36-7.94-4.51-7.64-10,.65-11.54.05-23.08,0-34.62-.07-9.42-.6-18.84-.64-28.24q-.08-19.29-.62-38.54c-.39-13.76-1-27.53-1.47-41.29-.26-7.72-1.1-15.55-1.95-23.3-.74-6.7.38-8.61,8.89-8,1,.07,2,.45,3,.06,6.09-2.33,11.79-.61,17.24,2,13.91,6.65,23.27,17.26,28,32.1,1.26,3.95-.08,8,1.89,12,1.89,3.85.69,8.53-.52,12.74-2,6.79-4.83,13.25-9.54,18.52-5.17,5.79-9.88,12.19-17,15.94-2.33,1.24-2.46,2.81-1.69,5.13a81,81,0,0,0,8.32,17.82,212.67,212.67,0,0,1,15.67,28.7A64.73,64.73,0,0,0,313,256.28a133.6,133.6,0,0,1,12.28,22.81c1.13,2.56.83,3.85-1.6,5.52-2.74,1.89-5.68,3.31-8.54,4.92-3.47,1.94-5.48,1.58-6.88-2a111.92,111.92,0,0,0-10.78-20.13c-6.13-9.34-10.67-19.46-15.58-29.42C280.55,235.28,279.3,232.38,275.76,229.79Zm-1-53.16c4.5-2.31,6.26-6.24,9.15-9,11-10.66,10.2-18.68,6-30.85-2.86-8.37-8.93-14-17.85-17.35.85,19.13,1.76,37.73,2.66,57.2Z"/><path class="cls-1" d="M177.45,256c.77-13.91-.61-27.79-.59-41.68,0-12.63.54-25.26.9-37.89.33-11.55-.13-23.1-.12-34.64,0-9.26-.07-18.53.69-27.78.27-3.22-.4-6.39.24-9.73,1-5.2,4.24-7.31,9.9-6.53s11.23,2.31,16.13,5.7c9.19,6.34,18.16,12.87,24.18,22.6a49.79,49.79,0,0,1,7.34,22.58c.71,8.47-.17,16.53-3.53,24-6.16,13.75-15.46,24.36-31.67,25.9-3.42.33-4.29,1.48-5,4.66-.92,4.21.17,8.16.16,12.22,0,12.72.62,25.43.93,38.14.1,4,.85,8.08-.36,12.17-.66,2.27.16,4.76.94,7.22,1.72,5.46-.86,8.84-6.62,9.8a37.64,37.64,0,0,0-5.32,1.54c-3.85,1.23-6.34.2-7.42-3.66a29,29,0,0,1-.76-7.36C177.38,267.49,177.45,261.72,177.45,256Zm19-134a24.94,24.94,0,0,0-.25,3c.35,10.62.82,21.24,1.09,31.87.16,6.52.18,13,0,19.57-.09,3.12,1.39,3.49,3.79,2.92,7.15-1.69,11-7.23,13.62-13.22,7-16.4.84-34.44-18.28-44.12Z"/><path class="cls-1" d="M21.59,234.82c.23,10.91-.7,21.82.33,32.73.22,2.37.59,3.61,3.1,3.1,5.71-1.16,11.56.34,17.25-1.1,2.55-.64,4,.84,4.46,3.12.81,3.83,1.43,7.69,2.08,11.55.33,1.91-.65,3-2.3,3.89-2.23,1.23-4.5,2.17-7,1.91-6-.62-11.88.09-17.81.5a11.84,11.84,0,0,1-4.8-.61,21.59,21.59,0,0,0-6.06-1c-6.25-.25-7.29-.8-7.39-6.57-.19-11.5-1-23-.68-34.5.47-18.55.37-37.14-.41-55.67-.46-11.13-.23-22.25-.82-33.35C1,150.4.2,142,.27,133.54c.07-8-.16-16.07-.24-24.1a6,6,0,0,1,.1-1.85C3.22,97.18,1.85,95.88,14.19,95.34c8.65-.39,17.32.25,26-.87,3.16-.41,5.85-.65,6,4.33.06,2,1.27,4.62,1.68,7,1.09,6.3-.65,8.22-7.35,8.59q-8.61.48-17.23,1c-4.26.28-4.54.57-4,4.65.78,6.1-.06,12.21.26,18.34.63,11.87.85,23.78,1.53,35.65a10.33,10.33,0,0,1-.59,4.83c-1.44,3.41-.29,5.38,3.22,5.64a17.27,17.27,0,0,0,6.16-.36c4-1.18,8.19-.45,12.3-.42,2,0,2.89.8,3.1,2.89.33,3.25,1.89,6.51.5,9.73-.71,1.65.9,3.87-1.34,5-2,1-4,2.18-6.35,2.16H27c-5.19-.11-5.09-.14-5.33,4.86C21.1,217.16,21.65,226,21.59,234.82ZM17,219.93c-1.54-2.18-2.94-1.82-4.5-.81a4.06,4.06,0,0,0,4.5.81Z"/><path class="cls-1" d="M361.5,107.46c-.08,6.77.37,13.09.16,19.46-.45,14.34-.43,28.72-.07,43.07.53,20.95.8,41.9,1.32,62.85.37,15.4,1,30.83,3.23,46.14.83,5.73-2.71,8.49-8.52,7.42a33.06,33.06,0,0,0-4.84-.82c-4.52-.13-5.58-.71-6-5.07-1-9.81-2.5-19.65-2.44-29.47.09-13.16-.39-26.3-.74-39.43-.56-21.37-1.33-42.74-1-64.11.19-13.2.42-26.38-.13-39.56-.13-3.24-1.52-6.44.38-9.64.76-1.28,1.28-2.41,3-2.64,4.61-.6,9,.71,13.4,1.56a2.62,2.62,0,0,1,2.14,3,2.21,2.21,0,0,1-.05.25A19,19,0,0,0,361.5,107.46Z"/><path class="cls-1" d="M57.61,54.67a6.1,6.1,0,0,1-2.06,4.71C49.7,65.15,43.75,70.86,39,77.65c-1.46,2.09-3.37,2.41-5.88,1.89-4.15-.84-7.25-3.88-11.27-4.91a1.48,1.48,0,0,1-1.18-1.73,1.05,1.05,0,0,1,.05-.19c1.27-2.94,1-6.16,3.17-9.11C29.06,56.69,36.1,51.9,42,45.89a2.82,2.82,0,0,1,1.52-1c4.53-.27,7.78,3.1,11.8,4.41C57.39,50,57.39,52.92,57.61,54.67Z"/><path class="cls-1" d="M366,72.57a40.11,40.11,0,0,1,0,5.59c-.62,3.56-2.38,5-6.31,5.08-3.43.12-6.84.67-10.33.09-2-.32-3.09-1.11-3.44-2.85-.69-3.34-2.56-6.54-1.32-10.17a6.54,6.54,0,0,0,.19-2.41c-.29-5.66-.27-5.51,5-6.61,1.89-.39,3.66,0,5.48-.1,2.54-.08,5.49-1.8,7.56.61a12.92,12.92,0,0,1,3.32,9.6A5.68,5.68,0,0,0,366,72.57Z"/></g></g></svg>