<?xml version="1.0" encoding="UTF-8"?><svg xmlns="http://www.w3.org/2000/svg" viewBox="0 0 2486.79 854.08"><defs><style type="text/css">.cls-1{fill:#683029;}</style></defs><g id="Camada_2"><g id="cara_de_pau_Imagem"><path class="cls-1" d="M52.13,214c0,33.59.09,67.18,0,100.77-.05,12.15-.65,24.28-.9,36.43-.95,45.17-1.79,90.35-2.81,135.52-.81,35.32-2.36,70.63-2.57,106-.13,23.25,2,46.51,2.24,69.78.17,16.28-.78,32.6-1.87,48.86a470,470,0,0,0,1,78.87c2.57,25.5,2.59,25.48-22.7,29.08C19,820,13.61,821,8,821.88c-2.47-5.61-4.67-10.2-6.51-14.93-.82-2.13-2.09-5.55-1.14-6.66,7.54-8.86,2.37-18.85,2.67-28.16.53-16.56-1.44-33.23-.49-49.75,1.73-29.7,2.11-59.26-.15-89-1.29-17,.76-34.16,1.07-51.25.42-23.33.48-46.66,1-70,.37-17.68,1.17-35.35,1.78-53q.09-2.81.12-5.61.48-52.33,1-104.66C7.86,293,8.57,237.09,9.1,181.2c.2-21.38.6-42.78-.15-64.13-.66-19-3.28-38-4.08-57-.73-17.2-.16-34.45-.16-51.92C15.32-5.12,30.16,1.85,43.5,1.68c1.86,0,5,5.39,5.5,8.6,5.83,38.76,16.75,76.24,27.05,114,11.53,42.22,21.3,85,30.9,127.67Q125.16,333,141.7,414.5c5.8,28.74,9.54,57.9,14.53,86.82,4,23.35,8.51,46.62,12.87,69.92,1.36,7.29,3,14.54,6.33,22.09.69-3.79,1.84-7.56,2-11.37Q180.88,506.51,184,431c1.12-27,1.89-54.08,2.84-81.12.92-26.1,1.27-52.24,3-78.29,1.56-23.67,4.79-47.22,6.91-70.86.91-10.22.95-20.52,1.24-30.79,1-35.45,1.79-70.91,3-106.36.53-16.23,1.75-32.43,2.72-49.86,11,.67,20.93-3.81,32-.7,7.15,2,9,5.89,9,11.84.18,18,.63,36.1,0,54.12-.91,26.9-2.63,53.78-4,80.66-1.42,27.75-2.68,55.51-4.39,83.24-.47,7.63-3.08,15.15-3.35,22.78-.78,21.78-.69,43.59-1.26,65.38-1.13,42.68-2.2,85.36-3.81,128q-1.6,42.6-4.69,85.13c-2.25,30.58-5.74,61.06-8,91.64-1.19,16.29-1.09,32.69-1.19,49-.17,26-.26,52.07.15,78.09.11,7.38,2.26,14.7,3.16,22.09,1.71,14.16,1.16,28-6.55,41.69H174.07c-6.81-7.48-7.15-17.14-6.38-27.72a135,135,0,0,0-1.14-30.4c-3.18-20.21-7.24-40.31-11.43-60.35-4.68-22.32-10-44.51-14.89-66.78-6.15-27.73-12.67-55.4-18.19-83.27-3.79-19.11-5.77-38.58-9.23-57.76q-9.68-53.57-20.21-107c-6.63-33.34-13.76-66.59-21-99.81-5.81-26.7-12.09-53.29-18.15-79.94Z"/><path class="cls-1" d="M1881.11,431c2.28-4.83,4.3-8.35,5.66-12.12,12.52-34.63,24.81-69.35,37.38-104,6.53-18,13.15-35.92,20.44-53.58,2-4.89,6.57-8.73,9.87-12.93,10.72,2.26,17.94,13.35,29.47,7.52,9,10.59,8.64,23.2,9,34.94,1.77,52.24,2.11,104.54,4.18,156.76,1.63,41.35,4.66,82.66,7.74,123.94,3.51,46.92,7.83,93.77,11.67,140.66,2.93,35.73,5.63,71.48,8.49,107.22.7,8.79,1.57,17.56,2.28,25.33-5.93,7.5-12.57,5.75-19.42,5.57-6.31-.17-12.69,2.09-20.66,3.59-1.79-6.5-4.48-12.48-5-18.63-3-39-5.06-78.09-8.15-117.09-3.2-40.38-7.47-80.68-10.74-121.05-1.85-22.76-2.46-45.62-3.92-68.42-1.08-16.72-3-33.39-3.88-50.12-1-19.11-1.1-38.26-1.7-57.39-.5-15.61-1.15-31.22-1.73-46.83l-2.86-.26c-12.17,34.07-24.17,68.21-36.67,102.16-2.19,5.94-6.49,11.11-10.43,17.66.11.64.55,3.23,1,5.85-1.81.83-3,1.66-4.31,1.91-2.28.43-4.64.5-7,.74-8,.81-7.66-.11-17.43-3.63s-12.68-12.12-16.71-19.53c-12.49-22.94-23.65-46.6-36.24-69.48-7.32-13.3-16.39-25.63-25.81-38.2-2.65,76.79.1,153.4,2.4,229.92,2.29,76.25,4.73,152.61,16.64,226.94-8.88,8-17.42,6.91-25.65,6.4-6.83-.43-6.81-.81-12.9,4.4-10.43-8.53-8.17-21-9.18-32q-5.07-55-8.4-110.08c-1.21-19.88-.73-39.86-1.23-59.78q-1.26-50.24-2.81-100.45c-.86-28.39-2.14-56.78-2.69-85.18-.88-45.28-1.38-90.58-1.91-135.87-.13-11.53,0-23.08.57-34.59.15-3,1.48-6.78,3.62-8.61,4.89-4.18,10.48-7.34,7-15.32-.3-.7,2.21-3.79,3.4-3.79,5.22,0,10.69,0,15.56,1.54,3.14,1,6,4.38,7.94,7.38,6,9.42,12.89,18.62,17,28.88,13.62,34,33.39,64.57,51.74,96,7,12,12.93,24.62,19.44,36.91C1877.34,426.21,1878.87,427.89,1881.11,431Z"/><path class="cls-1" d="M2277.22,710.76c.25-1.49.51-3,.77-4.46-10.24,6.21-19.81-1-29.91-1.24-3-13-6.51-25.81-8.64-38.81-1-5.94.78-12.33,1.36-19.37-6.38-1.06-6.81-8.2-8.11-14.69-4.29-21.46-8.51-42.92-12.87-65-26-7.77-52.75-2.26-80.35-7.28-12,98-13.7,195.15-20.11,293.77l-16.08-4.53-20.23,4.9c-4.92-6.65-5.77-13.72-5-22.07,1.6-17.78.72-35.78,2.42-53.55,3.38-35.41,3.66-71,6.24-106.42,2.34-32,5.26-64,7.86-96,4-49.19,8.09-98.37,11.8-147.58,1.44-19.05,1.69-38.17,2.91-57.24,2.27-35.3,5-70.58,7.25-105.88.75-11.64.66-23.33,1.14-35,2-49.83,3.91-99.66,6.45-149.46.61-11.88,3.57-23.64,5.55-36.07,10.08-5.37,19.6-3.38,27.91,5l5.28-6.44c2.34,4.48,5,7.78,5.88,11.51,10.24,41.57,21,83,30,124.88,6,27.71,9.69,55.93,14,84,6.9,44.64,13,89.41,20.34,134,6.75,40.89,14.6,81.6,22.21,122.34,7.5,40.17,15.46,80.24,22.91,120.41,4.38,23.62,8.17,47.36,12.37,71.89l-13.43-1.51Zm-67.74-194.24c0-3.1.46-6.34-.08-9.39-3-16.49-5.77-33-9.36-49.35-3.48-15.85-3.72-32.14-7.81-47.92-12-46.5-16.33-94.26-22.22-141.75-1.9-15.3-4-30.58-6-45.86l-2.57,0c-5.9,97.63-11.79,195.27-17.77,294.23ZM2272.82,678a8.36,8.36,0,0,0,2-1.1c.1-.11-.28-.94-.52-1-2.9-.42-3.58-9.55-8.84-1.62Z"/><path class="cls-1" d="M1225.52,836.42c-11.67,3.2-22.24,6.55-33,8.89-6.63,1.43-10.73-3.67-12.29-9-6.79-23.26-13-46.7-19.26-70.12-.58-2.16-1-5.62.22-6.79,7.26-7.2,2.45-15.06,1.31-22.31-5.26-33.58-11.11-67.07-16.76-100.59-.23-1.35-.62-2.68-1.33-5.75l-45.75-6.34c-8.41,72.31-16.61,142.75-25,214.71-12.14.19-22.73-.1-33.24.7-6.91.52-9.64-2.91-10.17-8.58-.6-6.38-2-13.45,0-19.13,4.46-12.51,6-25.2,7.39-38.24,4-37.94,8.88-75.79,13.15-113.7,5.52-49,11.06-98.06,16-147.15,2.86-28.26,4.19-56.68,7-85,2.44-25,5.89-49.93,8.92-74.89,3.64-30,9-59.9,6-90.4-.92-9.48,4.45-15.46,14.5-16.7a208.47,208.47,0,0,1,20.93-1c6.06-.13,7.46,4.25,8.61,9.12,5.25,22.2,11.88,44.16,15.79,66.6,11.27,64.64,19.85,129.63,26.54,195,6.45,63,15.13,125.73,24.68,188.3,6,39.53,15.51,78.54,23.39,117.8C1224.1,826.24,1224.64,830.78,1225.52,836.42Zm-86.87-254.57c-5.94-55.5-11.73-109.48-17.51-163.45-7.41,27.79-17.85,153.75-15.14,163.45Z"/><path class="cls-1" d="M480.38,501.7c0-11,0-24.86-.05-38.74a6.64,6.64,0,0,0-1.09-4c-7.27-8.49-3.46-17.76-2.14-26.89a50.43,50.43,0,0,0,.63-8.32c-.66-31.76,2.45-63.1,10.3-93.92,4.23-16.63,7.27-33.74,13.31-49.71,8.46-22.37,24.89-39,47.94-45.5,15.33-4.34,32.85-4.48,46.75,5.25,7.87,5.51,14.49,14.71,18.36,23.67,18,41.68,23.57,85.91,24.39,131,.29,16.27,1.63,32.53,1.71,48.79.16,29.23-.14,58.45-.49,87.68-.2,16.23-.51,32.48-1.44,48.69-1,17.25-2.93,34.59-12.85,49.4-9.18,13.69-20.6,25.3-36.53,31.36-13.54,5.15-27.17,5.06-40.82.44-3.09-1.05-6-3-9.15-3.46-18.5-2.6-26.9-16-35.16-30.67C489.72,601.19,487,573,483.59,545,482,531.62,481.55,518.11,480.38,501.7ZM595.84,394.12l1.32-.16c-2.12-19.38-3.15-39-6.68-58.08-3.11-16.86-8.39-33.4-13.87-49.7-3.47-10.32-9.6-11.92-19.78-7.6-8,3.4-11.15,10.82-15,17.77C531.55,315.22,532,336.92,526,357A88.43,88.43,0,0,0,522.81,379c-.49,13.88-.15,27.79-.14,41.68,0,12.49-.46,25,.14,37.47,1.59,32.88,2.57,65.86,6,98.57,1.7,16.43,7.59,32.54,12.59,48.48,2.94,9.4,11.51,13.15,20.69,14.39,14.89,2,29.4-8.71,31.32-25.25,2.29-19.73,2.25-39.73,3.29-59.6.34-6.49,1.07-12.95,1.33-19.44.61-15.3,1.78-30.62,1.4-45.89C598.76,444.32,597.08,419.22,595.84,394.12Z"/><path class="cls-1" d="M1054.49,39.81c-2.27,12-4.51,23.76-6.84,36.06-9.55,6.7-20.33,4-30.81,3.32-22.64-1.39-45.27-2.88-68.94-4.4-1.5,87-3,172.83-4.45,258.86l76.66,12.78c-1.76,14.68-3.29,27.58-4.82,40.35-24.13,5.33-46.68-4.79-70.76-3.32-.95,12.42-2.74,24.36-2.6,36.27.43,36.73,1.86,73.44,2.39,110.17.45,30.72,0,61.46.28,92.18.08,10.61,1,21.22,1.56,32.17-12.47,6.36-25.26,7.24-40,7.09-1.2-5.13-3.35-10.31-3.47-15.55-.65-27.52-.63-55.06-1.15-82.59-.34-18.52-1.61-37-1.73-55.54q-.39-64.21,0-128.44c.15-22.68,1.3-45.36,1.69-68.05.12-7-1.14-13.93-1.11-20.89,0-8.34,1-16.66,1.15-25,.43-31.24.51-62.49,1-93.73.41-23.79,1.61-47.56,1.89-71.35.17-14.4-.53-28.84-1.25-43.24-.36-7.22-1.58-14.31,8-16.6a5.59,5.59,0,0,0,3.27-2.5c7.16-13.46,19.12-14.58,32.39-13.14,24.93,2.71,49.92,4.86,74.81,7.8C1032.09,33.75,1043.39,31.15,1054.49,39.81Z"/><path class="cls-1" d="M316.59,575.6,334,580c-.47,2.57-1.19,5.54-1.51,8.56-1.22,11.7-2.54,23.39-3.35,35.12-.45,6.51-4.24,9-9.81,9.16-10.17.31-20.35.09-29,.09-9.92-13.24-3.74-25.18-2.45-36.9a150.42,150.42,0,0,1,3.74-21.54c1.8-6.89,1.38-13.81,6.27-20.76,4.26-6.06,1.94-16.55,3.16-25,3.5-24.27,7.38-48.49,10.95-72.75.74-5,.82-10.14,1.19-15.07,19.23-4.37,23-19.22,8.16-37.36,1,3.81,3.11,7.77,2.61,11.38-.57,4.14-3.47,8-5.35,11.94l-3-.78c.84-7.41,1-15,2.65-22.19,4.11-18.41,5.36-37.34,9.38-55.62,3.51-15.91,3.53-32,6.19-47.85,3.08-18.31,4.65-36.9,6.36-55.41,1.5-16.21,2.68-18.15,18.78-19.5,8.58-.72,17.27-.13,25-.13,5.65,23.38,11.46,44.5,15.71,65.93,3.62,18.2,5.55,36.74,8,55.15,2.12,15.67,3.5,31.46,6,47.06,5.82,35.83,12.42,71.54,18.17,107.39,4.86,30.34,8.84,60.83,13.51,91.2,1.12,7.32,2.38,14.93,5.43,21.56,5.3,11.55,5.76,23.25,4.73,36.09-7.63,2.5-15,5.09-22.58,7.34-12.52,3.76-22.35-1.83-21.94-14.69.37-11.78-4.49-21.75-6.42-32.61-3.24-18.29-5.32-36.78-8-55.18-1.45-10.06-3.05-20.1-4.61-30.34H346.19c-3.41,8.24-6.4,15.19-9.11,22.24a14.45,14.45,0,0,0-.94,6.43c1.44,14.56-6.48,20.84-19.62,22.69,1.14-3.77,9-4.18,5.4-10.73L315.87,567c-.34-2.2-.75-4-.87-5.75-.14-2,0-4.12,0-6.48-9.38,3.72-10.32,6-5.55,11.52C312,569.26,314.21,572.5,316.59,575.6Zm68.2-94.69c-5.72-35-11.23-68.58-17.22-105.17-4.21,13.87-8.56,24.17-8.26,36.8.36,15.06-3.15,30.25-5.61,45.28-.38,2.33-4.14,4.11-5,4.94,1.64,6.54,3.1,12.35,4.56,18.15Zm-46.51-80.65-3.75,1.15,3,9.75,3.71-1.15Q339.77,405.14,338.28,400.26Zm-16.74,74.3,1.29,2.06,5.37-3.32c-.42-.68-.85-1.36-1.28-2Z"/><path class="cls-1" d="M2399.94,58.52c2.32,67.8.79,134,1.06,200.23.27,66.78.47,133.58-.06,200.36-.51,66.06-2,132.12-3,198.62,10.88,1.76,19.95,3,30,1.92,19.43-2.16,38.91.53,58.85,5-.61,11.78-1.18,22.76-1.76,33.9-8.87,6-18,7.89-28.42,7.68-32.62-.65-65.27-.24-100.16-.24l-9.52-26c8.86-3.53,8.32-10.54,8.36-17.6.2-41.11.35-82.22,1-123.32.41-27.49,2-55,2.31-82.44.47-46.2.46-92.42.36-138.62-.18-81.11-.61-162.21-.86-243.32-.05-15.53.49-16,15.47-16.14C2381.44,58.45,2389.35,58.52,2399.94,58.52ZM2389,313.22c-.33-1-.65-1.92-1-2.88-1.34.1-2.67.26-4,.27-5.44.07-4.09,2.6-1.13,4.18C2384.27,315.52,2386.93,313.82,2389,313.22Zm-16.48,95.88c-.09,8.08-.09,8.08,5.48,10.66Z"/><path class="cls-1" d="M1305.27,624.88c27.26,1.17,52.86-.11,79.36,5V669c-5.65,3.59-13.32,4.71-22,4.65-22.82-.18-45.75-.08-68.44,2-7.29.68-14.14,1.22-21.41.46-4.76-.49-9.74,1.11-16.1,2-16.32-11.84-11.79-29.27-9.22-47.33,13.37.59,14.36-9.8,16.68-18.68,8.36-32,16.13-64.14,24.77-96.06q23.56-87.1,47.95-174c4.11-14.77,9-29.31,14.23-46.06H1239.87c-2.35-12.27-4.69-24.46-7-36.68,7.26-9.17,17.2-9.84,26.85-9.82,13.5,0,27,1.41,40.48,1.72q32.83.78,65.7.82c6.44,0,12.7-1.47,18.62,3.07,2.08,1.6,6.14.62,9.29.82,7.72,9.11,7.72,19.37,4.58,30.15-9.27,31.79-18.84,63.49-27.67,95.4-9.82,35.51-18.69,71.27-28.48,106.78-8.42,30.55-17.8,60.83-26.28,91.35C1311.94,593.93,1309.07,608.54,1305.27,624.88Z"/><path class="cls-1" d="M388.62,122l36.71,10.4c-.33,21.73-5.61,41.37-19.13,58.3-4.13,5.17-9.44,7.61-16.81,8.06-21.87,1.33-40.52-3.33-54.29-21.89-4.53-6.09-8.27-6.12-15.35-.24-6.71,5.58-12.44,6.77-19.67,1.13-5.44-4.24-11.73-7.38-17.56-11.14-1.1-.71-1.79-2.05-2.95-3.43,2-15.41,14.37-21.78,25.53-29.1,12-7.87,25.27-3.87,38.06-3.41,15.38.56,20.3,16.23,32.63,24.21C380.2,143.57,384.27,133.13,388.62,122Z"/><path class="cls-1" d="M2277.16,710.8c7.35,3,11,7.87,7.38,16.65l8.08-1.72c6,39.32,22.31,76.48,24.17,118.07l-36.19,9.14c-7.44-7.36-8.55-15.67-9.91-24.56-1.87-12.27-6.7-24-9.08-36.27-4.33-22.27-7.78-44.7-11.74-67.86l20.71,1.88c-.39-2.59-.63-4.25-1.25-8.45.94-1.93,10.91,1,7.9-6.92Z"/></g></g></svg>