<?xml version="1.0" encoding="UTF-8"?><svg xmlns="http://www.w3.org/2000/svg" viewBox="0 0 309.94 24.89"><defs><style type="text/css">.cls-1{fill:#fff;}</style></defs><g id="Camada_2"><g id="titulo_Imagem"><path class="cls-1" d="M307.28,20h2.66L303.3.36h-2.81L293.85,20h2.54l1.88-6h7.15Zm-8.38-8,.93-3q.54-1.63,1-3.27c.32-1.09.63-2.2.92-3.34h.12c.32,1.14.64,2.25,1,3.34s.66,2.18,1,3.27l.93,3ZM283,20h2.51V2.45h5.92V.36H277.07V2.45H283Zm-14.63,0h2.49V.36h-2.49Zm-22.19,0h2.48V10.74h9.12V20h2.52V.36h-2.52V8.58h-9.12V.36h-2.48Zm-20.1-2.54a9.44,9.44,0,0,0,6.88,2.9,8.58,8.58,0,0,0,2.78-.43,6.19,6.19,0,0,0,2.09-1.2,5.11,5.11,0,0,0,1.33-1.78,5.21,5.21,0,0,0,.47-2.18,5.52,5.52,0,0,0-.31-1.9,4.92,4.92,0,0,0-.86-1.44,5.86,5.86,0,0,0-1.28-1.08,13.21,13.21,0,0,0-1.59-.82L232.8,8.32c-.4-.16-.79-.34-1.17-.53a5.75,5.75,0,0,1-1-.66,2.86,2.86,0,0,1-.77-.86,2.41,2.41,0,0,1-.28-1.21,2.5,2.5,0,0,1,1-2.11,4.26,4.26,0,0,1,2.65-.77,6,6,0,0,1,2.47.5,6.93,6.93,0,0,1,2,1.36L239,2.42A8.32,8.32,0,0,0,236.45.67,7.86,7.86,0,0,0,233.19,0a7.48,7.48,0,0,0-2.47.39,5.82,5.82,0,0,0-1.94,1.09,5.07,5.07,0,0,0-1.29,1.66A4.68,4.68,0,0,0,227,5.21a4.83,4.83,0,0,0,.35,1.89,4.91,4.91,0,0,0,.93,1.43,6.06,6.06,0,0,0,1.29,1,13.33,13.33,0,0,0,1.4.72l2.82,1.23,1.28.62a5,5,0,0,1,1,.68,2.85,2.85,0,0,1,.69.89,2.92,2.92,0,0,1,.26,1.28A2.83,2.83,0,0,1,236,17.27a4.63,4.63,0,0,1-3,.89,6.81,6.81,0,0,1-2.95-.68,8.12,8.12,0,0,1-2.47-1.78Zm-20.34-5.56a12.61,12.61,0,0,0,.54,4,7,7,0,0,0,1.48,2.62A5.34,5.34,0,0,0,210,19.91a9.07,9.07,0,0,0,2.8.43,8.94,8.94,0,0,0,2.78-.43,5.37,5.37,0,0,0,2.23-1.44,7,7,0,0,0,1.48-2.62,12.61,12.61,0,0,0,.54-4V.36h-2.4V11.94a10.49,10.49,0,0,1-.35,3,5.13,5.13,0,0,1-1,1.91,3.62,3.62,0,0,1-1.47,1,5.28,5.28,0,0,1-3.62,0,3.49,3.49,0,0,1-1.45-1,5.27,5.27,0,0,1-1-1.91,10.45,10.45,0,0,1-.36-3V.36h-2.48Zm-20,5.56a9.44,9.44,0,0,0,6.88,2.9,8.58,8.58,0,0,0,2.78-.43,6.29,6.29,0,0,0,2.09-1.2,5.26,5.26,0,0,0,1.34-1.78,5.36,5.36,0,0,0,.46-2.18,5.29,5.29,0,0,0-.32-1.9,4.69,4.69,0,0,0-.85-1.44,5.86,5.86,0,0,0-1.28-1.08,13.21,13.21,0,0,0-1.59-.82l-2.78-1.19c-.4-.16-.79-.34-1.17-.53a6.21,6.21,0,0,1-1.05-.66,3,3,0,0,1-.76-.86,2.41,2.41,0,0,1-.28-1.21,2.5,2.5,0,0,1,1-2.11,4.26,4.26,0,0,1,2.65-.77,5.92,5.92,0,0,1,2.47.5,6.93,6.93,0,0,1,2,1.36l1.35-1.62A8.44,8.44,0,0,0,196.1.67,7.86,7.86,0,0,0,192.84,0a7.48,7.48,0,0,0-2.47.39,5.82,5.82,0,0,0-1.94,1.09,5.07,5.07,0,0,0-1.29,1.66,4.68,4.68,0,0,0-.46,2.07A4.83,4.83,0,0,0,187,7.1,4.91,4.91,0,0,0,188,8.53a6.06,6.06,0,0,0,1.29,1,14.38,14.38,0,0,0,1.4.72l2.82,1.23,1.28.62a5,5,0,0,1,1,.68,2.85,2.85,0,0,1,.69.89,2.92,2.92,0,0,1,.26,1.28,2.83,2.83,0,0,1-1.08,2.31,4.65,4.65,0,0,1-3,.89,6.81,6.81,0,0,1-2.95-.68,8,8,0,0,1-2.47-1.78ZM173.66,20h2.52V2.45h5.92V.36H167.74V2.45h5.92Zm-11,0h2.66L158.68.36h-2.81L149.23,20h2.54l1.88-6h7.15Zm-8.38-8,.93-3q.54-1.63,1-3.27c.31-1.09.62-2.2.92-3.34h.12c.32,1.14.64,2.25,1,3.34s.66,2.18,1,3.27l.92,3Zm-26.89,8h2.3V9.18c0-.87,0-1.84-.12-2.9s-.14-2-.2-2.9h.11L131,7.75,134.84,18h1.4L140,7.75l1.59-4.37h.12c-.08.88-.16,1.85-.23,2.9s-.1,2-.1,2.9V20h2.36V.36h-2.93l-3.77,10.53-1.37,4h-.12l-1.44-4L130.32.36h-2.93Zm-26,0H112.5V17.86h-8.59V.36h-2.48ZM83,20H94.58V17.86H85.46V10.74H92.9V8.61H85.46V2.45h8.82V.36H83ZM60.9,11.88a12.61,12.61,0,0,0,.54,4,7,7,0,0,0,1.48,2.62,5.34,5.34,0,0,0,2.24,1.44,9.07,9.07,0,0,0,2.8.43,8.94,8.94,0,0,0,2.78-.43A5.37,5.37,0,0,0,73,18.47a7,7,0,0,0,1.48-2.62,12.61,12.61,0,0,0,.54-4V.36h-2.4V11.94a10.86,10.86,0,0,1-.35,3,5.13,5.13,0,0,1-1,1.91,3.62,3.62,0,0,1-1.47,1,5.28,5.28,0,0,1-3.62,0,3.49,3.49,0,0,1-1.45-1,5.27,5.27,0,0,1-1-1.91,10.45,10.45,0,0,1-.36-3V.36H60.9ZM54,22.49c-.28.08-.58.15-.91.21a6.55,6.55,0,0,1-1.15.09,6.28,6.28,0,0,1-2.87-.63,4.31,4.31,0,0,1-2-1.94A7.6,7.6,0,0,0,50,19.13,7.92,7.92,0,0,0,52.18,17,10,10,0,0,0,53.59,14a14.13,14.13,0,0,0,.49-3.87,13.69,13.69,0,0,0-.61-4.2,9.05,9.05,0,0,0-1.74-3.17,7.69,7.69,0,0,0-2.66-2,8.64,8.64,0,0,0-6.79,0,7.39,7.39,0,0,0-2.65,2,9.28,9.28,0,0,0-1.72,3.17,13.5,13.5,0,0,0-.61,4.23A14.17,14.17,0,0,0,37.81,14a10,10,0,0,0,1.45,3.1,7.72,7.72,0,0,0,2.26,2.12,7.26,7.26,0,0,0,2.93,1,7.49,7.49,0,0,0,7.24,4.64,8.16,8.16,0,0,0,1.61-.15,10.38,10.38,0,0,0,1.2-.3ZM40.29,6.79a7.52,7.52,0,0,1,1.18-2.48A5.37,5.37,0,0,1,43.3,2.74a5.32,5.32,0,0,1,4.75,0,5.37,5.37,0,0,1,1.83,1.57,7.52,7.52,0,0,1,1.18,2.48,11.93,11.93,0,0,1,.42,3.29,12.71,12.71,0,0,1-.42,3.4,8.18,8.18,0,0,1-1.18,2.58,5.31,5.31,0,0,1-1.83,1.65,5.23,5.23,0,0,1-4.75,0,5.31,5.31,0,0,1-1.83-1.65,8.18,8.18,0,0,1-1.18-2.58,12.71,12.71,0,0,1-.42-3.4,11.93,11.93,0,0,1,.42-3.29M30.6,20h2.66L26.62.36H23.81L17.17,20h2.54l1.89-6h7.14Zm-8.37-8,.92-3q.54-1.63,1-3.27c.32-1.09.63-2.2.93-3.34h.12c.31,1.14.63,2.25,1,3.34s.66,2.18,1,3.27l.93,3Zm-8.65,8-5-8.55a6.06,6.06,0,0,0,3.19-1.89A5.4,5.4,0,0,0,13,5.86a5.86,5.86,0,0,0-.51-2.57,4.48,4.48,0,0,0-1.42-1.71A6,6,0,0,0,8.9.64,12.68,12.68,0,0,0,6.13.36H0V20H2.48V11.69H6L10.77,20ZM2.48,2.36H5.77a6.6,6.6,0,0,1,3.53.78,3,3,0,0,1,1.23,2.72A3.38,3.38,0,0,1,9.3,8.72a5.69,5.69,0,0,1-3.53.94H2.48Z"/></g></g></svg>