<?xml version="1.0" encoding="UTF-8"?><svg xmlns="http://www.w3.org/2000/svg" viewBox="0 0 1105.89 446.9"><defs><style type="text/css">.cls-1{fill:#fd0;}</style></defs><g id="Camada_2"><g id="Camada_1-2"><path class="cls-1" d="M324.11,268.91c-3.05-11.7-6-23.4-11.09-34.48-3.62-7.94-9-14.79-13-22.51s-8.29-15.23-12.39-22.86a14.18,14.18,0,0,1-2.21-6.33c-.1-2.49-2.45-4.19-3.88-6C268.29,160,260,140.9,257.47,119.93c-2-17.17-1.86-34.64,2.39-51.72.89-3.59,2-7.17,2.81-10.75,3-12.51,10.36-22.28,18.62-31.67,6.76-7.69,14-14.49,23.81-18.23a30.34,30.34,0,0,1,15.6-1.92c16.7,2.45,27.24,12.06,31.88,28A100.82,100.82,0,0,1,357,60.89c.07,6.49.35,13.11.62,19.67a31.73,31.73,0,0,1-.52,6.15c-.23,1.47-1,2.92-2.53,3.21-3.83.71-7.7,1.2-11.56,1.75-1.93.28-3-.63-3.72-2.42a15.47,15.47,0,0,1-.83-7.17c1.51-16,.12-31.7-5.6-46.83a16.42,16.42,0,0,0-21.05-9.81c-.4.14-.79.31-1.18.48a24.13,24.13,0,0,0-8.17,5.46c-6.84,7.39-14.34,14.13-18.82,23.54-3.62,7.61-5.1,15.72-6.42,23.76-2.2,13.46-2.8,27.21-.41,40.66,2,11.07,4.23,22.29,10.89,31.93,1.55,2.24,1.58,5.68,2.69,7.69s4.22,3.69,5.57,6.1c7.45,13.27,14.94,26.53,21.85,40.09,3,5.91,7.23,11,10.06,17,6.51,13.84,11.57,28.09,14.08,43.22,2.19,13.2,5.74,26.17,6.79,39.57a347.69,347.69,0,0,1,1,39.53,134.2,134.2,0,0,1-2.41,18.19c-4.3,24.22-11.48,47.3-26.89,67.09a50.29,50.29,0,0,1-16.45,14c-7.92,4.14-16.11,4.19-24.42.51-14.95-6.6-22.78-18.66-25.94-34-1.91-9.26-2.87-18.72-4.22-28.1a18.75,18.75,0,0,1-.11-3.09c.09-6.54.42-6.89,7.1-6.88,3.5,0,7.56-.91,10.37.54,3.47,1.78,1.09,6.39,1.8,9.71,2.05,9.65,2.2,19.61,5.36,29.11a24.92,24.92,0,0,0,12.37,14.74c3.19,1.73,6.39,2,9.41.18,3.7-2.22,7.19-4.71,9.83-8.35a116.8,116.8,0,0,0,18.54-38.88,187,187,0,0,0,6.55-53c-.38-17.67-2.86-34.88-6.41-52.06,1.56-1.23,3.07-2.52,4.69-3.67,1.26-.88,1.56-1.86.41-2.88-.86-.75-2.13-1.62-2.85.16C326,269,325.12,269,324.11,268.91Zm14,25.34c1.71-1.84-.17-3.28,0-4.84.18-1.78.31-4.34-2-4.24-2.93.13.07,2.53-.78,3.85-2.27,3.51.11,4.44,2.75,5.23Zm-50.82-125c-1,.3-1.9,1-1.86,2,0,.82,1.12.88,1.91.8s1.63-.28,1.53-1.35a1.64,1.64,0,0,0-1.61-1.41Zm9.29,2.27c-.15-.49-.16-1.27-1-.84a2.7,2.7,0,0,0-1.05,1.26.77.77,0,0,0,.3,1.05.75.75,0,0,0,.44.09c1,0,1.21-.7,1.28-1.52ZM285.22,157a.91.91,0,0,0-.91-.91,1,1,0,0,0-.35.07,1.12,1.12,0,0,0-.52.92.89.89,0,0,0,.87.91.81.81,0,0,0,.37-.07c.24,0,.32-.59.51-.88Z"/><path class="cls-1" d="M1085,122c.82.62,1.7,1.39,2.77,1,1.44-.51,2.39-.24,2.88,1.22,1.43,4.27,3.55,8.31,4.1,12.88.24,2,0,3.69-2.11,4.57-.65.66-2,1.32-.68,2.31,1.56,1.16,1.39-.46,1.64-1.3,2.55.47,3,2.58,3.37,4.58a45.93,45.93,0,0,0,1,4.8,52.86,52.86,0,0,1,2.1,11.77c.26,3.34,1,6.47,1.54,9.7.62,3.63,1,7.3,1.51,11,.43,3.46.83,6.92,1.18,10.39.37,3.67,1,7.38,1,11,.19,9,1.06,18.06.26,27.11-.16,1.72-1,3.1-1.32,4.7-.39-.15-.78-.27-1.18-.38-1-.21-.39-3-2.27-1.52a2.16,2.16,0,0,0-.48,3,1.24,1.24,0,0,0,.18.22c1,1.4,2.35,1.51,3.8,1.61,1.5,1.14,1.52,2.69,1.47,4.42-.54,16.27-.52,32.58-1.64,48.81-1.15,16.65-3.78,33.17-9.73,48.9-4.37,11.58-11.11,21.49-21.29,29-10,7.37-26.54,4.12-33.36-6.42a107.37,107.37,0,0,1-12.6-27.42,218.91,218.91,0,0,1-9-47.86,260.61,260.61,0,0,1,.29-42c.45-4.92.47-9.87.69-14.8.81-1.48,3.61-1.27,3.25-3.63-.27-1.84-2.12-1.33-3.29-1.81-2.25-2.89,3.67-3.34,1.82-6.07a12.15,12.15,0,0,1-1.84-7,243.43,243.43,0,0,1,1-27.14c.87-9,1.41-18,2.4-26.92.81-7.35,2-14.66,3.18-22,.35-2.09.44-4.53,3.32-5.31,1-.28,1.1-1.56,1.4-2.76.66-2.72.21-5.5,1.1-8.18,4.1-12.34,16.91-21,28.79-19.48a66.88,66.88,0,0,1,17.85,4.62c4,1.66,6,4.5,5.17,8.91-.32,1.69-1.06,2.8,1.78,1.81,1.66-.57,2.27,1.12,1,2.76-.19-.47-.31-1.25-1-.72a1.12,1.12,0,0,0-.07,1.59Zm12,54c-.23-.53-.45-1.09-1.2-.83a.54.54,0,0,0-.17.49,1,1,0,0,0,1.39.26l.08-.06c-.67,1.33-.91,2.6,1.37,4.6-.93-2.2,2.81-4-1.47-4.51Zm-14.8-32.37c-.12-.81-.22-1.69-1.2-1.87a1.16,1.16,0,0,0-1,.53c-.42,1.41.67,1.68,1.67,2,.89,1.71,2.49,1.88,4.15,1.88,1.13,0,2.89.52,3-1,.09-1.88-1.62-1.39-2.62-.87-1.6.7-2.63-1-4-.72Zm4.8,93.13c-.2-14.71.32-26.08-1.37-37.34-1.29-8.55-1.15-17.22-2.36-25.8-1.24-8.9-3-17.72-4.84-26.47-1.37-6.37-3.15-12.81-6.29-18.61-5.3-9.81-16-10.22-22.5-1.19-4,5.57-5,12.1-6.18,18.55q-1.9,10.6-3.07,21.33c-.85,7.73-1.62,15.5-1.82,23.27-.24,9.18.09,18.39.31,27.58.2,7.94-1,15.92.58,23.82a2,2,0,0,1-.61,2.2c-2.56,1.77-1.72,4.58-1.77,6.83-.17,7.63.1,15.26.2,22.9.1,6.81-.46,13.65.51,20.42,1.77,12.44,3.83,24.83,7.32,36.94a79.56,79.56,0,0,0,9.29,21.5c2.69,4.16,5.93,4.56,9.83,1.53a24.83,24.83,0,0,0,2.74-2.49c5.78-5.92,9.17-13.23,11.36-21a194.21,194.21,0,0,0,7.31-48.75c.16-7.37.41-14.78.83-22.1C1086.94,250.94,1086.67,242.11,1087,236.71Zm-25.63-123.36c.67-1.75,2-2.56,1.52-4.6s-.17-2.45-1.23-3c-1.39-.66-3.06-1-3.92.1s-1.37,3.48.57,4.18c1.69.62,1.26,2.47,3,3.29ZM1035,227.41c-1.52-.25-2,.76-2.23,1.9a1.6,1.6,0,0,0,.52.71A2.76,2.76,0,0,0,1035,227.41Zm3.5-74.84c0,.11-.13.24-.1.33a2.17,2.17,0,0,0,.45,1c.32.25.54,0,.32-.45A5.68,5.68,0,0,0,1038.5,152.57Zm8.31-35.3c.21.57.45,1.19,1.16,1.17.14,0,.4-.66.38-1a1.18,1.18,0,0,0-1.2-1.12C1046.7,116.31,1046.59,116.8,1046.81,117.27Z"/><path class="cls-1" d="M978.79,302.28c-.66-3.66-.06-7.3,0-11,.25-13.4.37-26.82,0-40.22-.43-17.36-.81-34.72-.75-52.09,0-8.61.49-9.12,9.06-10.55,9.44-1.57,10.55-.7,10.38,8.74-.33,18.51.31,37,.37,55.5.06,17.07.52,34.14-.34,51.2-.73,14.35.06,28.68.57,43a45.22,45.22,0,0,0,1.5,8.49,21.76,21.76,0,0,1,.55,5.51c-.07,2.78-1,4.69-4.19,5.08-2.43.3-4.81,1-7.28,1.3-6.87.79-8.34.14-9.76-6.62A68.05,68.05,0,0,0,975,347.07c-2.57-5.83-4.71-11.85-7.25-17.7-3.86-8.88-7.33-17.9-10.51-27-1.48-4.25-3.38-8.34-5.09-12.51.8-.5,2.32-1.11,2.27-1.49-.16-1.09-1.44-1-2.37-1.09a30.87,30.87,0,0,1-3.8-7.73c-2.78-8.8-7.42-16.9-9.79-25.87-.26-1-.27-2.57-2-2.88-1.48.92-.83,2.48-.83,3.76q.13,47,.36,94.07c0,4.67.5,9.33.77,14,.31,5.33-1.12,7-6.5,6.94-2.47,0-4.86,1-7.36.31-1.63-.44-3.94,2.16-4.91-.39-1.32-3.49-4.41-7-2.16-11a10.75,10.75,0,0,0,1.36-5.8c-.14-10.54-.21-21.07-.27-31.61-.07-12.56.06-25.1-.53-37.67-.27-5.87.62-11.9.54-17.86-.24-18.06-.64-36.11-.81-54.17,0-4.93.54-9.86.79-14.79a3.3,3.3,0,0,1,2.23-3.24c4.6-2.11,9.35-1,14-1.06a1.67,1.67,0,0,1,1.56,1.64c.58,4.5,4,8.23,3.54,13-2.49,0-4.83.32-3.35,3.77.74,1.73-.29,4,1.51,5.93l3.32-6.33c3.52,1.58,2.81,5,3.27,7.83.23,1.41-.16,3.07,1.11,4,3.29,2.4,4.12,6.07,5.07,9.6,3.14,11.58,9.21,21.94,13.61,33,3.64,9.14,6.35,18.67,10.92,27.44a6.49,6.49,0,0,1,.19,2.44c-2.3-2.28-5.43-.71-8.07-1.69a2.23,2.23,0,0,0-2.53,1.88,1.37,1.37,0,0,0,0,.19c-.12,1.58.81,2.1,2.32,1.69.77-.21,1.64-.44,2.14.48,2.14,4,4.34,1,6.52.07l3.6,5.19.45,1.68C979.45,303.76,979,303,978.79,302.28Zm-36.44-74.39c0-1.18-.82-1.25-1.62-1.19-1.06.08-1.22.94-1.2,1.77s.4,1.7,1.36,1.66c1.38-.06,1.17-1.37,1.46-2.24Zm-5.5,18c0-.58-.11-1.16-.78-1.22-.15,0-.46.61-.49,1-.05.55.12,1.14.78,1.19.14,0,.33-.61.49-.92Z"/><path class="cls-1" d="M450.59,271.17c-.3,10.84.46,21.71,0,32.49-.67,14.11-1.27,28.43-7.85,41.53-2.49,5-4.76,10-7.41,14.94-5.29,9.77-23,18.09-36.42,12.21-8.71-3.82-15.86-10.18-19.42-19.76-4.06-10.93-5.45-22.35-7-33.78-1.64-12.29-.61-24.76-2.39-37-1.38-9.46-1.16-18.89-1.13-28.33,0-6.52.36-12.94,3.15-19.27,2-4.53,2-10,2.52-15.1.88-8.9,2.88-17.41,7.23-25.29,7.17-13,23-18.87,36.58-12A43.15,43.15,0,0,1,437,200.36a96.9,96.9,0,0,1,10.14,32.73c1.47,10.81,3.42,21.56,3.5,32.51C450.6,267.46,450.59,269.32,450.59,271.17Zm-18.81,14.48c-.42-8.21.2-16.42-.67-24.66-1.74-16.3-2.21-32.73-8.89-48.19a28.33,28.33,0,0,0-12.05-13.53c-4.34-2.58-8.42-1.34-11.13,3-1.2,1.9-1.94,4.09-3.05,6.06-2.77,4.91-1.82,10.45-2.8,15.66a217.46,217.46,0,0,0-3.13,26.32c-.5,8-.31,16.06-.5,24.1s.66,16.23.71,24.37a162.79,162.79,0,0,0,3.44,33.68c1.45,6.6,1.65,13.84,7.87,18.85,5.68,4.56,14,4.45,17.65-1.8,4.76-8.17,9-16.68,10.39-26.26A213.93,213.93,0,0,0,431.78,285.65ZM436,253.31c-.23,1.29-3.15,1.21-1.53,3.2.32.41,1.26.84,1.57.67C437.71,256.22,436.88,254.79,436,253.31Z"/><path class="cls-1" d="M491.58,161c1.56,14.52-.28,29,.11,43.56.45,16.41,1.16,32.81,1.83,49.21.7,17,2,34.08,1.22,51.26a220.91,220.91,0,0,0,1,37c.29,2.28-.41,4.38.09,6.66,1,4.63.79,4.7,5.28,4.65,6-.08,12-.3,17.93-.25,4.6,0,4.69.17,5.49,4.72a30.84,30.84,0,0,1,.54,9.24c-.51,4.18-2.09,6.36-6.12,6.07-8.44-.61-16.75,1.35-25.24.51a53,53,0,0,0-10.9-.2c-3.92.46-4.53-1.68-5.68-4.08a8.69,8.69,0,0,1-.44-4.26c.84-19.62-1.55-39.16-1.27-58.76.18-12,.53-23.9-.2-35.86-.68-11.25-.56-22.56-1.37-33.8-1.23-17.09-.89-34.18-.67-51.27.1-7.81,0-15.59-.46-23.37-.26-4.06,1.52-7.9.78-12.13-1.35-7.65.62-15.33.59-23.05,0-11.12-.19-22.27.93-33.4a50.43,50.43,0,0,0-.33-14.82c-.65-3.3.74-6.47.53-9.8-.84-13.16-.15-26.33.4-39.49.35-8.17.73-16.32,0-24.48-.19-2.11.73-3,2.75-3.19a51.59,51.59,0,0,0,7.9-1.27c5.83-1.36,9.05,1,9.13,7.07.1,8.05.28,16.16-.53,24.15-1,9.9-.79,19.8-.91,29.68-.17,13,.21,26-.93,38.94a37.67,37.67,0,0,0,.06,9.25c.56,3.59-2.35,6.89-1.25,10,1.25,3.5,1.07,6.86,1.11,10.31,0,3.71-.23,7.42-.36,11.14-.92.26-2.13.23-2.31,1.46-.25,1.65,1.39,1.62,2.28,2.24-1.3,4.52.37,9.06,0,13.59-.82.38-2.15,0-2.38,1.14C490,159.77,491.05,160.42,491.58,161ZM485,175.23a1.78,1.78,0,0,0-1.33-1.82c-1.54-.39-2.3.6-2.48,1.85a1.44,1.44,0,0,0,1.33,1.54h.18A2.39,2.39,0,0,0,485,175.23Zm-3.4,50.45c-.12-.37-.22-1-.37-1.06a2.39,2.39,0,0,0-2.45,1.38c-.31.71.56.79,1.08.82.78,0,1.59,0,1.7-1.11Z"/><path class="cls-1" d="M671.32,313.6c-3.71,0-7.43.19-11.13,0-5.12-.32-5.14-.47-6.69,4.16a32.72,32.72,0,0,0-1,4.22c-2.16,11.7-4.39,23.39-6.42,35.12-.65,3.75-.25,7.61-2.11,11.23-2.28,4.47-3.74,5.4-8.6,3.72a48.18,48.18,0,0,0-4.67-1.55c-6.39-1.5-6.9-1.69-5.06-7.59,2.57-8.24,2.64-16.88,4.82-25.15.4-1.53,0-3.29,1.83-4.29a2.4,2.4,0,0,0,.81-2.8c-1.29-3.69-.11-7.14.64-10.69,2.24-10.67,5.53-21.1,7-31.94q2.14-15.85,4.57-31.68c1.09-7.07,2.11-14.17,3.7-21.13,1-4.41,2-8.79,2.71-13.27.3-1.92-.33-4.8,3-5.25.41,0,.7-.26.53-1.15-1.4-7.16-.68-11.08,2.39-16.6,1.22-2.18.65-4.67.63-7,0-1.68,0-1.66,2.49-1.64a2,2,0,0,0,1-.45c3.58-2.5,7.64-.88,11.45-1.4,2-.28,2.82.25,3.18,2.49,1.89,12,5,23.77,8,35.51,3.29,12.56,7.2,25,9.7,37.7,2.34,11.91,4.31,23.89,7,35.73,2.2,9.62,4.53,19.21,6.78,28.83,2.91,12.44,4.2,25.19,7.7,37.51,1.27,4.43-.69,6.82-5.13,7.75-3.22.67-6.58-.19-9.77,1.21-1.39.6-2.74-.53-3.61-1.82a11.93,11.93,0,0,1-2.32-6.28c-.58-14.9-4.5-29.23-7.74-43.65-.67-3,0-6.9-2.41-8.72-2.79-2.08-6.78-.55-10.23-.9-1-.1-2.06,0-3.1,0Zm-23.5-39.7c.11-.45,0-.66-.43-.58a.73.73,0,0,0,0,.36c.16.81-.15-.35.46.21.1.68.4,1.15,1.18.9.15,0,.35-.39.31-.48a1,1,0,0,0-1.31-.53.72.72,0,0,0-.21.12Zm20.74-32.56c-2,1-1.69,2.18-1.95,3.14-2.07,7.73-2.71,15.71-3.84,23.58-1,7.08-2.19,14.13-3.35,21.18-.43,2.65.37,3.65,3.23,3.67,4.67,0,9.37-.53,14,.46,2.29.49,3.34-.51,2.77-3.19-1.19-5.61-2.15-11.28-3-17C674.78,262.44,671.19,252.17,668.56,241.34ZM643.25,332.9c-.78.34-1.29.74-1.22,1.4.17,1.5.74,2.78,2.52,2.81.57,0,1.19-.36.92-1.15C645,334.71,644.57,333.39,643.25,332.9Zm.22-44.61c1.63,1.59,2.83,1.88,3.9.29.18-.26.22-.95.06-1.06C646,286.51,644.86,287.44,643.47,288.29Zm5.37-5.71c-.23.18-.47.35-.69.55a2.66,2.66,0,0,0,.28.38l.71-.53Z"/><path class="cls-1" d="M83.46,132.35c.51-2.75,2.66-5.62-1.17-7.94-1-.62.17-2.24.64-3.36,3.22-7.67,8.36-13.94,15.95-17.11,7-2.91,14.35-6,22.27-1.4,4.45,2.58,7.06,6.26,9,10.64A58.15,58.15,0,0,1,134.34,128c1.57,11,3.49,21.86,4.09,33,.29,5.46,1.13,11.07,1.39,16.56.26,5.31,1,10.69.39,16.06-1.34,12.13.16,24.42-1.43,36.47-1.5,11.33-2,23-7.54,33.56-2.9,5.48-7,8.72-12.77,10-4.16.9-8.19,2.12-12.66,1.71a20.39,20.39,0,0,1-13.13-6.07,51,51,0,0,1-5.18-6c-.76-1-2-2.56-.49-3.81,1.74-1.4.62-2.29-.46-2.57-2.55-.67-2.69-2.51-3.23-4.61A245.53,245.53,0,0,1,76.79,211a35.8,35.8,0,0,0-1.61-9.69,12.89,12.89,0,0,1-.41-6.72c1.77-10.37.14-20.94,1.67-31.34-2.07-3.1-.47-6.35-.38-9.54a1.26,1.26,0,0,1,1-1.27c0,1.12.42,2.3,1.71,1.77A12.13,12.13,0,0,0,83,152.07c1.3-1.2,3.75-1.78,3-3.88-.63-1.83-3-1.77-4.84-1.78-.54,0-1.08.5-1.61.77-4.52-1.19-2.07-4.66-2-7s2.2-.3,3.34-.71c1.07-2.27-2.81-3.62-1.14-5.94,1-1.33,2.6-.77,3.9-1.2-1.28,2.54-.85,4.24,2.56,5C85.39,135.24,85.29,133.33,83.46,132.35Zm23.48-21.06c-2.28-3.3-2.28-3.3-5.44-.69,1.73,1.56,3.59,1.47,5.55.56,1.74,1.41.66,3.84,1.81,5.5,1.31-.65,2.83-.77,3.3-2.38C110.41,113.22,108.07,113.3,106.94,111.29ZM94,147.82c-1,6.67,1.79,13.7-1.77,20.17-.06.1.76.59.73.82-.35,2.11,1.08,3.76,1.37,5.71.4,2.68,0,5.34,0,8,0,8.44-.32,16.93.51,25.3C96,219.46,98,231,99.84,242.58A56.15,56.15,0,0,0,103,253c1.46,3.92,5,3.75,8.34,3.74,3.17,0,4.09-2.17,4.76-4.75s2.26-5.16,2.18-7.69c-.32-9.08,3.28-17.77,2.09-27a63.65,63.65,0,0,1,.35-14.79A131.92,131.92,0,0,0,121,172c-.47-3.84-1.69-7.56-1.63-11.53.17-12-2.66-23.62-5.26-35.23-.49-2.17-.66-5.33-2.91-5.79-2.83-.58-5.38,1.54-7.51,3.54-.57.54-.77,1.46-1.27,2.1-4.32,5.38-5,12.09-6.78,18.39-2.53.83-4.06-1.19-6-2.84C90.1,146.65,90.1,146.65,94,147.82Zm-9,14.89c.15-.87.08-1.69-1-1.77-.81-.06-1.76,0-1.63,1.2a2,2,0,0,0,1.92,2C85.08,164.09,84.92,163.22,85,162.71ZM120.57,106c-.32-.45-.41-.71-.54-.75-1.09-.25-2-1.55-3.28-.47-.27.24-.57.86-.45,1,.66,1,1.73.65,2.68.57a12.71,12.71,0,0,0,1.62-.38Zm-29.9,47.4a.93.93,0,0,0-1-1.13c-1.46-.06-1.33,1.13-1.58,2-.19.7,0,1.27.73,1.11A2.35,2.35,0,0,0,90.67,153.43Zm22.5-41.94a.91.91,0,0,0,.66-1.12.87.87,0,0,0-.18-.36c-.31-.51-.76-1.41-1-1.37-1.18.17-.7,1.13-.55,1.82s.15,1.25,1.07,1Z"/><path class="cls-1" d="M10.08,103.71c2.11-1.19,4.64.47,6.71-1,1.21,3.45,2.44,6.91,3.64,10.37.33,1,.58,1.93.85,2.91a1.41,1.41,0,0,0,1.64,1.14l.23-.07a1.78,1.78,0,0,0,.76-2.17,14.68,14.68,0,0,0-2.12-3.68c-1.37-1.63-1.79-3.19-.55-5,8.13,7.23,16.34,14.44,22.68,23.37,6.76,9.51,10.55,20.38,13.46,31.58A154.92,154.92,0,0,1,62,205.21a124.62,124.62,0,0,1-5.87,33.33c-3.61,11.55-8.74,22.1-16.8,31.27-4.49,5.11-10.35,8.31-15.94,11.52-3.34,1.92-8.49.44-12.51-1.34-6.7-3-7.21-3.92-6.56-11.28.52-6-.62-11.86-.72-17.8-.63-35-1.46-70-1.34-105.08A229.84,229.84,0,0,0,.17,116.29c-.76-6,1-10,6.19-12.66C7.59,104.08,8.82,104.62,10.08,103.71ZM40.8,235.14,37.33,238c-.7-2.18.5-4,1.11-5.93a109.69,109.69,0,0,0,5-31.25,131.42,131.42,0,0,0-3.58-32.34C37.62,158.81,34.56,149.37,29,141c-2-3-4.05-5.87-7.63-7.89-.22,41.9.79,83.18,1.62,125.15a18.24,18.24,0,0,0,7.23-8c1.57-3.34,5.26-3.6,7.29-6.08a8.9,8.9,0,0,0,1,1.5c3.2,3.57,7.14,4.21,8.83,1.12,1.36-2.48.76-5.9,3.38-7.93l-1.36-1.06c-1-1-.88-2.28-1-3.51.51-2.17.39-4.29-1.94-5.2-2.55-1-2.82,1.76-4,3a9.58,9.58,0,0,0-1.21,2.07A9.36,9.36,0,0,0,40.8,235.14Zm-.57,28.1c-2.44-.87-3.85-2.09-5.08-.17a1.19,1.19,0,0,0,.13,1.11C37,265.88,38,263.86,40.23,263.24Zm-16.69-138a1.74,1.74,0,0,0-1.37-1.68c-.67-.11-1,.37-.87,1a2,2,0,0,0,1.38,1.71c.72.23.88-.39.86-1Z"/><path class="cls-1" d="M793.24,270.57c-.49-11.32.9-21.7.21-31.87-.73-10.72,2-21.33-.1-32-.57-2.89.4-6.09.67-9.15.16-2,1.21-2.59,3.16-3,5.94-1.29,11.84.38,17.7-.08,5.2-.41,9.65,1.44,14.2,3.33a21.61,21.61,0,0,1,9.41,7.71c9.15,12.94,14.18,27.19,14.37,43.2.14,11.84-2,23-8.15,33.13-6.52,10.73-14.5,19.93-26.91,24.25-4.56,1.59-5.41,2.48-4.69,7.33,1.44,9.63.77,19.29.95,28.92.18,9.26.06,18.55.26,27.83.06,2.38.11,4.7-3.39,4.14-4.15,5.26-9.2.6-13.79,1.19a2.52,2.52,0,0,1-2.61-2.43,3.4,3.4,0,0,1,0-.45c1.07-3.64-1.34-7.31.41-10.85a3.29,3.29,0,0,0,.25-1.81c-1.6-11.26,1.16-22.56-.13-33.74-1.07-9.2-.76-18.43-1.82-27.63-.87-7.53-.31-15.22-.32-22.84C792.94,273.71,793.18,271.61,793.24,270.57Zm19.19,17.34c14.4-8.23,19.91-20.08,21.27-34.32,1.07-11.2-2-21.58-6.69-31.59-2.69-5.78-7.61-8.75-14-8.2C812.83,238.08,811.72,262.4,812.43,287.91Zm-3.11,54a8.43,8.43,0,0,0-1.75-1c-.39-.12-.67.44-.35.78.49.55.87,1.34,1.8,1.3C809.56,343,809.7,342.71,809.32,341.91Z"/><path class="cls-1" d="M892.49,255.87c0,24.18-.62,48.38.25,72.53.47,13,.13,26,1.75,38.89.16,1.22,0,2.48.06,3.72.08,2.15-.72,3.13-3,3.78-4.24,1.19-8.63.61-12.86,1.62a2.14,2.14,0,0,1-2.39-1.57c-1.3-3.12-2.68-5.82-2.09-9.83a96.35,96.35,0,0,0,.3-22.26c-.85-9.48-.86-18.94-1.09-28.43-1.08-45.24-.69-90.5-.81-135.75-.05-19.19-1.85-38.33-1.83-57.54,0-5.93-.72-11.93-.59-17.9.1-5.12,1.53-6.46,6.67-6.85,1.44-.11,2.89,0,4.34,0,7.76,0,7.88,0,8.35,7.89.4,6.6.33,13.23.27,19.82-.12,13.85,1,27.64,1.56,41.44C892.54,195.55,891.74,225.71,892.49,255.87Z"/><path class="cls-1" d="M884.05,71.39a41.66,41.66,0,0,0-5.69.54c-2.7.64-4.34,0-4.93-2.87-1.22-6-2.77-12-1.23-18.18.44-1.75,1-3,3.12-3.14s4.5-.36,6.11-2.36a1.76,1.76,0,0,1,2.46-.27,1.72,1.72,0,0,1,.27.27c1.15,1.16,2.49,1.14,3.94,1.31,5.63.68,5.6.74,6.59,6.12a65.87,65.87,0,0,1,1.52,12.9c0,3-.5,5.1-4.39,5.11C889.22,70.8,886.62,72,884.05,71.39Z"/><path class="cls-1" d="M939.64,210.59c-1.74-.47-1.13-2.05-1.49-3.18C939.1,208.26,940.84,208.71,939.64,210.59Z"/><path class="cls-1" d="M41.18,237.11l1.23-.33c.79.46,1.54,1.07,2.56.78l1.85.75c-1.35,2.24-2.66,4.34-6,3.5-1-.25-2.25.59-3.39.93-3-1.11-3-1.73-.08-5-.08,1.37.36,2.49,1.88,2.42C41.22,240.12,41.16,238.53,41.18,237.11Z"/></g></g></svg>