<?xml version="1.0" encoding="UTF-8"?><svg xmlns="http://www.w3.org/2000/svg" viewBox="0 0 776.7 907.47"><defs><style type="text/css">.cls-1{fill:#291c56;}</style></defs><g id="Camada_2"><g id="sem_freio_Imagem"><path class="cls-1" d="M181.79,208c0-6.87-.18-12.87.05-18.87.28-7.41.92-14.81,1.38-22.22.06-.92-.07-1.85-.06-2.78.1-9.63.23-19.26.32-28.9,0-2.34-.21-4.69-.11-7,.22-5.52.61-11,.83-16.54a21.76,21.76,0,0,0-.51-3.72l4.09-1.28c.27-1.79.54-3.64.86-5.81l-4.87.32c.12-1.32.22-2.69.37-4a30,30,0,0,0,.48-3.73c-.16-12,1.1-24,0-36-.17-1.8,1.43-2,1.29-3.71-.33-4.25-1.76-8.35-1.53-12.67.17-3.3,0-6.61-.08-9.92,0-1.72-.26-3.43-.29-5.15-.06-3.18.77-4.54,3.87-4.83,3.76-.35,7.58-.08,11.82-.08,6.68,18.36,13.42,36.91,20.17,55.45l1.15.06c3.24-6.17,4.55-13.08,6.7-19.66,2.21-6.76,4.47-13.51,6.58-20.31s4-13.6,6.21-20.88l13.14,2.5c1.67,3.92.77,7.94.91,11.85.13,3.48-.06,7,.08,10.46.23,6,.64,12,.9,18,.55,12.3,1.42,24.6,1.45,36.9,0,10,2.16,19.79.71,29.83-.57,3.92.81,8.1,1.12,12.18,1.06,14,2.1,28.07,3,42.12.3,4.58.24,9.19.34,13.79.08,3.42.2,6.85.19,10.27,0,3.26-.17,6.51-.25,9.22-2.44.5-4.31,1-6.2,1.24a5.11,5.11,0,0,1-2.24-.32c-.54-.19-.95-.93-1.46-1-1.12-.11-3.06.46-3.26.06a9.64,9.64,0,0,1-1.2-4.9c.63-7-.49-13.85-.63-20.77-.29-14.54-1.91-29-2.51-43.51-.29-6.92-1.6-13.85-1.32-20.73.44-11.12-1.44-22.07-1.47-33.14,0-7.13-.39-14.26-.61-21.38a2.11,2.11,0,0,0-1-1.77c-4.17,12.88-8.34,25.76-12.57,38.81-2.76.3-5.42,1.07-7.92.71-1.55-.22-3.25-1.89-4.18-3.36-1.33-2.12-2-4.65-3-7q-5.83-14-11.69-28.08c-.23-.56-.58-1.07-1.36-2.49,0,3.32-.09,5.7,0,8.07.11,2.19.16,4.2-3,4.47,4.12,6.7,2.39,13.77,1.87,20.79-.28,3.79,0,7.63-.33,11.42-.11,1.54-1,3-1.74,5.08,1.3.81,1.9,2.58,1.78,5-.41,7.86-.6,15.75-.69,23.63-.07,5.52.68,11.1.14,16.56-.72,7.32.41,14.63-.44,21.92-.25,2.15-.56,3.78-3.6,3.9,3.16,1.69,2.87,4.37,2.89,6.88,0,2.7-.08,5.4-.18,8.09s-.26,5.28-.42,8.42c-2.59-1.07-5.1.87-6.75-2-.26-.44-2.2.08-3.36.17Zm6.43-80.57L187,133C191.22,131.9,191.36,131.35,188.22,127.43Z"/><path class="cls-1" d="M188.87,500.12c-2.18-1.57-2-4.55-2-7.58,0-8.7,0-17.4-.34-26.09-.21-5.78-1.07-11.55-1.28-17.34-.07-1.84-1.69-4.27,1.17-5.79.35-.19,0-2.51-.57-3.42-3-4.37-1.69-9.1-1.5-13.75q.33-8,.67-16c.6-14.54-.23-29.24,4.46-43.31,2.12-6.37,5.68-11.85,11.88-15.16,2.8-1.49,3.58-1.44,5.92,1.12v-3.33c1.67-.08,3.34-.22,5-.24,9.68-.09,16.86,5.18,20.25,14.48,2,5.58,3.87,11.06,4.09,16.85.2,5.59,1.85,11.2.38,17-3.36.32-6.66.61-9.94,1a3.42,3.42,0,0,1-3.86-2.07c-1-2.58-2.12-5-2.16-8.08-.07-5.51-1.09-11-1.78-16.49a11.69,11.69,0,0,0-.91-2.69c-1.21-3-3.06-5.67-6.44-5.54a8.37,8.37,0,0,0-8,5.86c-1.29,4.06-2.12,8.28-3.05,12.44-1.27,5.71-.76,11.54-1,17.31-.34,9-.83,18-1,27a158.87,158.87,0,0,0,.46,18,430.44,430.44,0,0,1,1.86,43.23c0,5.28.47,10.55.56,15.83.09,5.5-.08,11,0,16.52.09,9.78-.27,19.55.73,29.32a65.69,65.69,0,0,1-.47,14.21,66.91,66.91,0,0,0,1.16,20.66,96.72,96.72,0,0,0,3,12.44,21.22,21.22,0,0,0,8.36,11.07c4.11-1.33,6.84-3.75,7.57-7.9,1.27-7.16,2.9-14.31,3.45-21.54a130.66,130.66,0,0,0-2.21-36.5l-14.82-2.55V525.82c4.29-2.09,8.55-1.16,12.76-1.05s8.52,0,12.91,0c.35,1,.38,2.32,1,2.66,3,1.76,2.73,4.57,3,7.39.52,6.63,1.56,13.23,1.76,19.86.27,9.19.09,18.4-.17,27.59a71.82,71.82,0,0,1-1.44,11.77,133.38,133.38,0,0,1-3.46,13.81,16.68,16.68,0,0,1-7.65,9.39c-4.64,2.84-9.22,5.78-15,4.53a16,16,0,0,1-6.07-2.35c-9-6.61-14-15.79-16.32-26.54-.66-3.09-.5-6.39-1.42-9.38-.65-2.11,1.39-3.81-.06-6.11-1-1.6-.37-4.26-.45-6.45,0-.63,0-1.27,0-1.91-.19-2.76,1.76-5.19.49-8.31-1-2.45-.49-5.54-.45-8.34,0-2.2.4-4.39.6-6.58s-.43-4.51-.5-6.71c-.31-10.31-.3-20.63-.23-30.95C187.76,505.69,188.41,503.22,188.87,500.12Zm9.66-86.78c-1.88.54-5,.9-1.71,3.75ZM194.46,500l-1.34.46c.37.9.75,1.8,1.12,2.69l.89-.31C194.9,501.89,194.68,500.94,194.46,500Zm3.86,89.75c.11-2,.19-3.37.26-4.69C197.08,586.36,197.16,587.68,198.32,589.74Zm-5.43-94.22c-.56,1.69,0,2.58,1.22,3.12.18.09.51-.17,1.26-.45C194.53,497.28,193.82,496.51,192.89,495.52Z"/><path class="cls-1" d="M651.58,123.49c-.6,10.39-1.55,23-2,35.72a215.57,215.57,0,0,1-2.76,28.37,102.81,102.81,0,0,1-7.68,24c-3.14,7.14-9,11.89-15.64,15.47-5.62,3-14.75.18-20-5.28-4.29-4.5-5.91-10.14-7.2-15.84a161.44,161.44,0,0,1-4.25-37.25c0-5.21-.41-10.41-.47-15.62-.11-9.8-.23-19.6-.06-29.39.08-4.71,1-9.39,1.17-14.1.07-2-.86-4.11-1.39-6.16-.31-1.2-1.07-2.38-1.05-3.56.18-7.44.51-14.89.82-22.33.09-2.22.17-4.44.4-6.65.83-8.17,1.55-16.36,2.64-24.49,1.55-11.6,8.1-20.1,17.49-26.56,3.8-2.61,8.11-2.42,12.36-1.16a20.92,20.92,0,0,1,12.33,9.86c4.44,7.5,6.63,15.83,8.2,24.21,2.3,12.3,4.34,24.67,5.63,37.1C651.25,100.2,651.1,110.72,651.58,123.49Zm-34.28,90c4-2.16,7.3-4.86,8.92-9a130.55,130.55,0,0,0,5.19-15.3,117.19,117.19,0,0,0,3.14-24.93c.54-16,1.44-32,2.14-47.92a75.2,75.2,0,0,0,.09-9.84c-.73-8.67-1.81-17.3-2.58-26a172,172,0,0,0-6.38-34,75.86,75.86,0,0,0-3.22-8.92,12.82,12.82,0,0,0-2.85-3.74,2.64,2.64,0,0,0-3.86-.18c-2.64,2.25-5.27,4.39-7,7.65a34.06,34.06,0,0,0-3.36,13.26c-.86,10.37-2.13,20.72-1.21,31.21.52,6-.11,12-.12,18,0,4.74.26,9.47.2,14.21-.08,6-.65,12-.51,17.94.35,14.87,1.07,29.73,1.45,44.6.24,9.12,2.34,17.87,4.65,26.61A9.23,9.23,0,0,0,617.3,213.5Z"/><path class="cls-1" d="M435.22,151.12c-.85-1.73.58-1.57,1.29-1.25a68.15,68.15,0,0,1,9.39,4.51,48.12,48.12,0,0,1,20.51,25.79c1.4,4.15,3.81,8.05,4.65,12.29,1.75,8.8,3.37,17.74.21,26.67a12.41,12.41,0,0,0-.3,3.78c-.07,4.94-2,9.22-4.68,13.23-.69,1-1.2,2.13-1.8,3.2-.22.41-.43,1.14-.7,1.16-3.67.36-3.68,3.63-5.14,5.92-1.57,2.44-4.06,4.37-6.36,6.26-2.54,2.08-5.33,3.84-8.18,5.86,13.84,30.45,27.55,60.61,41.36,91-4.11,2.86-6.51,8-12.7,7.35-2.45-5.22-4.95-10.48-7.39-15.78-3.12-6.76-6.33-13.48-9.24-20.33C451,308.61,446,296.34,440.87,284.15c-.43-1-1.55-1.73-3.1-3.4.17,2.82.27,4.64.39,6.45.1,1.58.34,3.16.31,4.73-.17,8.52-.7,17-.54,25.55.21,10.44,1,20.86,1.5,31.3.05,1,.11,1.9.22,2.84.2,1.72-.47,2.78-2.21,3-3.75.52-7.49,1-11.52,1.56-1-2.17-2-4-2.65-5.86a5.34,5.34,0,0,1,.1-2.56,20.4,20.4,0,0,0,.77-3.59c-.17-7.88-.49-15.76-.69-23.63-.07-2.85.13-5.71.08-8.56-.22-11.89-.56-23.77-.71-35.66-.16-12.8-.06-25.59-.25-38.39-.2-13.1-.65-26.2-.91-39.3-.17-8.69-.08-17.4-.32-26.09-.12-4.26-.62-8.53-1.1-12.78-.56-4.87.14-6.12,4.7-7.62,3.84-1.26,3.84-1.26,5.2-4.22,1.73,1,3.45,2.06,5.16,3.11-1.05,5.2-.75,7.81,1.1,9.13a56.06,56.06,0,0,0,0-5.66A15.6,15.6,0,0,0,435.22,151.12Zm.49,14.35c.68,26.39,1.34,52.57,2,79.18,2.64-1.34,4.6-4.35,7.67-1.38.77.75,2.15-.32,1.68-1.81-.21-.67-.89-1.19-1.57-2.06,2.29-2.15,4.95-3.78,6.34-6.15,2.23-3.84,6-7.18,5.18-12.39a8.34,8.34,0,0,1,.62-3.74c2.47-7,.73-14.29-.2-21.1a41.32,41.32,0,0,0-10.76-22.1C443.72,170.69,441.79,165.9,435.71,165.47Zm14.34,122.08.84.19.69-2.57-1-.22C450.41,285.82,450.23,286.68,450.05,287.55Zm5.37-44.64-.26-.87-2.85.92.26.77Zm2.94-19.54.23.68a14.64,14.64,0,0,0,1.87-.48,7.59,7.59,0,0,0-.23-1.09Z"/><path class="cls-1" d="M373.52,20.37c.17,5.34.43,10.5.49,15.67.12,9.65.12,19.29.19,28.94.06,7.84.15,15.68.23,23.51,0,1.12.1,2.23.12,3.34.11,10.74.25,21.49.3,32.23,0,7.62-.21,15.24-.09,22.85.08,4.54.61,9.08,1,14l20.43-.81c2.53,4.44,1.64,8.74,1.29,12.9-.15,1.75-1.78,2.39-3.54,2.56-5.82.55-11.64,1.19-18.09,1.86v49.5c0,17.94-.11,35.88.05,53.83.1,12.05.58,24.1.92,36.14q.43,15.47.95,30.92c.07,2,.24,4.07.4,6.65l-12.27,3.66c-2.69-2.56-2.95-5.33-2.91-8.71.13-10.78-.36-21.57-.61-32.36,0-.63-.17-1.26-.19-1.89-.32-15.08-.83-30.15-.92-45.23-.15-26.22,0-52.45,0-78.67,0-9.53.1-19,0-28.57-.23-16.19-.72-32.37-.91-48.56-.3-25.26-.39-50.52-.69-75.78-.07-6.33-.73-12.65-.84-19a57,57,0,0,1,.79-10.6c.56-3.3,2.19-4.26,6.34-4.31,6.83-.08,13.67,0,20.51,0,4.55-.06,9.1-.3,13.65-.58,4.74-.28,6,.87,5.77,5.59a46.52,46.52,0,0,1-.44,6c-.34,1.9-.92,1.73-2.93,2.48-8.27,3.06-16.88,1.3-25.3,2.09Z"/><path class="cls-1" d="M240.09,835.24c-3.73,0-7.09.43-10.28-.12s-6.18-2.1-8.89-3.08c0-3.95,0-7.55,0-11.16,0-2,.86-3,2.83-3h18.37c2.65,0,5.31-.06,8,.08,1.93.09,5.4,3.49,5.84,5.69a22.39,22.39,0,0,1,.3,4.26c0,9.7.25,19.41-.06,29.1a102.45,102.45,0,0,1-4.64,29c-1.82,5.54-4.11,10.74-8.81,14.91-6.59,5.86-13.55,5.6-20.75,2.53-6.84-2.92-11.19-8.74-14.68-15C199.49,874.38,198,859,198,843.28c0-8.24-.1-16.48,0-24.72.2-11.9.59-23.8.87-35.7.06-2.54,0-5.09,0-7.63.38-11.41.88-22.81,1.17-34.22.18-7.46-.05-14.92.12-22.37.24-11.12,5.46-19.1,15.16-24.6,7-4,17.94-1.45,22.89,3.45,5.71,5.65,7.39,12.75,8.3,20.21a53.94,53.94,0,0,1,0,7.63c-.08,5.15-.48,5-5.47,6-2.94.55-6.14-.23-9.78-.45,0-2.63.15-4.84,0-7a88.11,88.11,0,0,0-1.23-9.87c-.83-4.14-2.74-6.08-5.47-6.23a8.34,8.34,0,0,0-7.76,6,53.75,53.75,0,0,0-1.36,10.8c-.19,8.11.15,16.23-.1,24.33-.45,14.11-1.21,28.2-1.79,42.31-.12,2.85-.07,5.72-.07,8.58,0,17-.25,34,.09,51,.19,10,1.58,20,6.44,29a36.57,36.57,0,0,0,6.66,8.53c2.85,2.77,5.52,2.33,7.38-1.14a43.17,43.17,0,0,0,4-10.12c3.09-12.77,3.05-25.8,2.74-38.83A13.65,13.65,0,0,0,240.09,835.24Z"/><path class="cls-1" d="M117.7,393.2q0,8.39,0,16.78c0,4.7.46,9.47-.18,14.09-.46,3.4.49,6.58.21,9.92s.56,6.81.67,10.23c0,1-.77,2-1.1,2.81.63,1.58,1.62,3,1.72,4.52.4,5.83.54,11.67.73,17.51.1,2.86.21,5.73.07,8.58a30.83,30.83,0,0,1-1,4.87h1.66c-6.7,3.09-7.23,3.41-10.2-3.72L104.9,481c.75-2.71,1.25-4.53,1.85-6.71-2.36-1.67-1.65-4.54-.87-7.43a4.09,4.09,0,0,1,.78.44c1,1,2.22,2.36,3.3.47.29-.49-1.07-2.72-2-3-2.47-.64-2.73-2.23-2.79-4.25-.12-4.12-.24-8.24-.48-12.35-.34-5.81-1-11.6-1.16-17.4-.32-9.2-.42-18.4-.56-27.6-.16-10.1-.4-20.2-.34-30.3,0-7.26-1-14.45-1-21.69,0-3,1-4.29,3.86-4.12,3.88.23,7.73.84,12,1.34,5.52,15.14,11.43,30.36,16.61,45.82s11.37,30.42,17.33,45.53l1.24-.21c0-3,.09-5.9,0-8.85-.35-9.31-.8-18.61-1.16-27.93-.28-7.11-.38-14.23-.74-21.34-.3-6-1-12-1.27-18-.22-4.9-.05-9.82-.05-15.22,2.81-.57,5.54-1,8.16-1.73,1-.31,1.8-1.48,2.69-2.26,3.37,4.91,3.13,4.92,3.39,10.65.4,8.85,1.28,17.68,1.75,26.53.32,6,.21,12.08.42,18.11.6,16.63,1.31,33.25,1.89,49.88.39,11.1.65,22.21.95,33.31,0,.94-.15,1.88-.28,3.43l-12.51.77c-3.75-3.53-4.06-8.39-5.85-12.54-3.39-7.85-6.19-15.95-9.64-23.77-6.84-15.54-13.36-31.19-18.64-47.35-1.13-3.45-2.43-6.84-3.64-10.26Zm-6.11,31.16c.18.76.37,1.51.55,2.27.75-.6.89-1,.88-1.46a7,7,0,0,0-.27-1.25c2,.08,1.38-1.27.93-2.06-1.22-2.18-2.51-.53-4,.19Z"/><path class="cls-1" d="M374.37,825.89c5,8.59,9.85,16.92,14.66,25.28q10.92,18.95,21.74,37.94a15.61,15.61,0,0,1,1.37,3.45c1.11,3.81-1.19,6.84-5.12,7.22a43.68,43.68,0,0,0-6.28,1.55L366,840.66c-.39,20.5-.58,40.78-1.67,61a48.06,48.06,0,0,1-4.56,2.12,4.83,4.83,0,0,1-2.64,0c-2.06-.54-4.07-1.26-6.93-2.18,0-3-.15-6.77,0-10.49.18-5.22.77-10.43.8-15.65.07-9.83-.28-19.65-.21-29.48.1-15.18.48-30.37.6-45.56.06-6.8-.35-13.6-.32-20.4,0-6.17.39-12.33.58-18.5,0-1.42.07-2.86,0-4.28-.31-4.57,1.23-6.55,5.67-7.69,3.76-1,7.07-.68,10.26,1.83,4.1,3.22,8.78,5.76,12.58,9.28,9,8.3,13.89,18.57,13.95,31.08,0,6.63-.69,13-4,18.79-3.42,6-7.31,11.55-14.18,14.1C375.43,824.79,375.13,825.23,374.37,825.89Zm-8.4-13.4c6-1,9.12-4.78,11.48-9.46s2.64-9.87,1.84-14.86c-1.32-8.2-5-15.14-13.18-19.73C365.24,783.39,366.2,797.8,366,812.49Z"/><path class="cls-1" d="M174.53,837.24l-12.37,2.7c-2.56-2.21-2.79-4.81-3.1-7.75-.74-7.24-2.15-14.41-3.23-21.61-.92-6.1-1.73-12.21-2.66-18.31a17.07,17.07,0,0,0-1-2.95H133.93c-4.34,15.21-6,30.63-8.3,46.42l-13.48-.94a12,12,0,0,1-.09-11.15c1.25-2.78,1.11-6.18,1.73-9.27,3.08-15.54,6.39-31,9.24-46.63,1.82-10,3-20,4.46-30.06q3.29-22.08,6.65-44.15a33.63,33.63,0,0,1,.9-3.69c1.18-4.24,1.19-4.2,5.51-4.74a14,14,0,0,0,2.65-.9c3.64-1.2,5.93,0,7.25,3.76,3.36,9.46,5.13,19.28,6.53,29.18,1.35,9.56,2.36,19.17,4,28.68.31,1.84-1.72,3.57.4,5.61,1.2,1.15,1,3.83,1.29,5.83.37,2.19.68,4.38.95,6.58.25,2,.4,4.11.65,6.15.27,2.2.57,4.4.92,6.58q4.49,27.67,9,55.33C174.38,833.45,174.37,835,174.53,837.24ZM150,773.4c-2-14.14-3.87-27.9-5.78-41.66h-.86c-2.07,14.18-4.13,28.36-6.25,42.95C141.55,774.16,145.67,775.55,150,773.4Z"/><path class="cls-1" d="M271.53,892.68c7.1-47.06,14.15-93.78,21.2-140.55,3.89-.86,7.83,1,10.53-2.14a11.52,11.52,0,0,1,5.49,8.24c1.54,8.09,3.19,16.16,4.72,24.25q3.82,20.31,7.57,40.64,6.58,36,13.08,72a41.16,41.16,0,0,1,.55,4.71c.2,3.6-.08,3.9-3.58,4.83a5.1,5.1,0,0,0-2,.9c-3,2.67-6.34,2.59-8.55-.52-1.49-2.09-3.51-4.12-1.36-7.18.66-.94.25-2.79,0-4.16q-4.26-24.83-8.65-49.62a7.11,7.11,0,0,0-.76-1.54l-15.88-1.14c-.67,4.24-1.36,8.38-2,12.54-1.11,7.67-2.13,15.36-3.26,23-.85,5.76-1.71,11.53-2.8,17.26-.25,1.31-1.43,2.45-1.9,3.21Zm35.21-65.07c-1-5.23-1.77-9.9-2.82-14.52s-.46-9.6-3.16-14.72c-1.58,10-3,19.06-4.51,28.4Zm.13,10.07.8-1c-.34-.22-.7-.62-1-.6s-.6.48-.9.75Z"/><path class="cls-1" d="M557.47,488.77c8.85,22.7,17.6,45.14,26.3,67.6.2.51-.11,1.22-.21,2.11l-11.89,4.66c-3.45-5.69-4.91-12.07-7.56-17.9-2.76-6.06-5.13-12.3-7.58-18.5a164.18,164.18,0,0,0-7.75-17.84c.37,15.21.74,30.41,1.12,45.91-2.39-.38-4.14-.63-5.95,1.58-1,1.24-4.6,1-6.77.44-1-.27-1.62-2.77-2.21-4.34-.66-1.77-.33-3.51-.12-5.42.5-4.53-.05-9.17-.22-13.76-.06-1.74-.36-3.47-.37-5.2-.13-25.44-.11-50.87-.41-76.3-.09-7.75-1.06-15.49-1.59-23.23-.3-4.35-.25-4.3,3.54-6.05a16.62,16.62,0,0,1,16.76,1.05c11,6.87,18.82,16.16,21,29.21,2.05,12.3-.86,23.32-10.39,32A52.26,52.26,0,0,1,557.47,488.77Zm-9.12-50.11v39.07c7.7-4.64,11.8-10.88,11.15-19.43C558.88,450.09,555,443.58,548.35,438.66Z"/><path class="cls-1" d="M631.46,351.09v14l-19.11,1.28c-.54,26,0,52.12.24,78.7,3.23.15,6.19.31,9.15.42,2.06.08,4.13.19,6.19.11,3.69-.14,6,1.35,4.62,5.79-.41,1.39.68,3.2-1.18,4.3a34.08,34.08,0,0,0,1.64,3.69c-6.63,2.82-13.37.59-20.52,1.43.45,29.19.91,58.28,1.37,88l21.88.93v13.5c-1.35.48-2.65,1.28-4,1.35-5.67.29-11.35.38-17,.51-4.4.11-8.67-.13-12.91-1.79-1.83-.72-2.61-1.4-2.72-3.11-.07-1.1,0-2.22,0-3.33,0-6.92,0-13.83,0-20.75,0-5.54-.26-11.09-.3-16.64q-.5-72.47-1-144.94c0-5.22-.46-10.45-.77-15.67-.36-6.29,1.13-7.88,7.52-8s13-.51,19.49-.58A60.44,60.44,0,0,1,631.46,351.09Z"/><path class="cls-1" d="M249.65,424.55c2.89-.67,5.61-1.52,8.38-1.87,4.58-.58,5.4.06,6,4.51.8,6.44,1.6,12.89,2,19.36.54,8.06.77,16.14,1,24.22.38,13.48.54,27,1,40.44.31,8.7,1,17.39,1.58,26.07.23,3.26,1,3.79,4.19,3.68.95,0,1.9-.13,2.84-.23,3.76-.43,5.35-1.35,5.44-5.6.25-13,.95-26,1.13-39,.15-11.44.08-22.89-.35-34.31-.27-7.1-1.53-14.16-2.05-21.26-.38-5.21-.3-10.46-.38-15.69a3.27,3.27,0,0,1,3.06-3.6c3.42-.34,6.88-.37,11-.57.3,3.09.65,6,.85,8.89.51,7.58.93,15.18,1.45,22.76.42,6.16,1.37,12.31,1.34,18.45-.1,18.57-.2,37.15-1.12,55.69-.24,4.82.16,9.88-1.31,14.67-.27.9-.25,1.89-.49,2.8-1.52,5.95-6,8.89-11.44,10.23a65.8,65.8,0,0,1-12.68,1.63c-6.43.27-14.84-7.22-15.61-13.71-.47-3.93-.64-7.89-.83-11.84-.66-13.29-1.27-26.58-1.9-39.87,0-.48,0-1,0-1.43a438.89,438.89,0,0,0-3.06-59.33A45.09,45.09,0,0,1,249.65,424.55Z"/><path class="cls-1" d="M516.08,344.1l15.06.67a76,76,0,0,1,1.13,8.22,6.87,6.87,0,0,1-7,7.34c-5.5.13-11,.16-16.49-.14a11.68,11.68,0,0,1-5.55-2.08c-1.91-1.29-1.58-3.59-1.46-5.69.08-1.57-.24-3.16-.26-4.74,0-5.05,0-10.1,0-15.15,0-8.24.19-16.48,0-24.71-.3-10.28-1-20.55-1.42-30.82-.27-7.26-.21-14.53-.4-21.79-.11-4-.51-7.9-.66-11.86-.33-8.7-.78-17.41-.82-26.11-.06-15.49.18-31,.2-46.48,0-3-.47-5.95-.67-8.92a78.74,78.74,0,0,1-.5-10.27c.13-2.26,1.27-4.46,1.95-6.67,5-1.8,28.8-2.39,33.85-.64,0,2.77,0,5.75,0,8.72-.05,4.16-1.07,5.17-5.4,5.39-4.59.24-9.17.44-13.76.68a15.66,15.66,0,0,0-1.7.35c.11,29,.56,58,1.8,86.94L530.53,248c1.91,2.54,0,3.74-1.13,5.15,4.09,2.27.64,5.7,2,9.13H514.86C515.27,289.71,515.67,316.66,516.08,344.1Z"/><path class="cls-1" d="M714.94,483.13c.52-2.7,1-5,1.39-7.28,2.27-12.46,4.45-24.94,6.82-37.38,2.2-11.51,4.7-23,6.88-34.49,2.2-11.67,4-23.4,6.28-35.06,1.16-6,2.83-11.92,4.18-17.49,4.26-1.56,8,2.38,11.58-.72,2.52,1.51,3.29,3.81,3.53,6.45.79,8.66,1.23,17.37,2.5,25.95,2.32,15.64,4.27,31.35,8.1,46.74,1.29,5.2,1.76,10.59,2.86,15.84,1.18,5.69,2.75,11.3,4,17,1.17,5.4,2.19,10.84,3.13,16.28a68.34,68.34,0,0,1,.53,6.85c-3.42.89-6.7,1.72-10,2.61-2.26.63-3.73-.11-4.37-2.36a21.18,21.18,0,0,1-1.1-4.56c-.49-9.22-2.93-18.06-4.87-26.63l-20.74-3.3c-2.43,11.29-2.53,23.11-8.06,34.37C723.39,488,719.8,483.85,714.94,483.13Zm37.71-45.79c-2.49-12.73-4.78-24.47-7.29-37.29-2.26,12.09-4.35,23.23-6.53,34.9Z"/><path class="cls-1" d="M377.82,553.5l-13,3c-1.84-3-4.14-5.19-2.63-9,.58-1.47-.52-3.68-1-5.51q-2.88-10.78-5.87-21.55a21.49,21.49,0,0,0-1-2.39H333.72C331.84,529.4,330,540.7,328,552.47l-13.33-1.86c2-21.6,6.26-42.47,9.35-63.49,3.07-20.85,7-41.57,11.45-62.34,2.8-.56,5.53-1.19,8.3-1.64,3.12-.5,4.88.45,5.74,3.34a113.71,113.71,0,0,1,3.2,12.42c3.94,22.15,7.95,44.27,13.52,66.09,1.48,5.83,2.88,11.68,4.44,17.49,1.5,5.6,3.29,11.09,3.89,16.93.28,2.74,1.81,5.33,2.53,8.05A48.64,48.64,0,0,1,377.82,553.5Zm-35.34-86.66c-2.69,12.33-5.58,23.52-5.65,35.62h13.75Z"/><path class="cls-1" d="M565.45,756.28c.73,1.12,1.81,2.15,2.13,3.38,1.2,4.52,2.13,9.11,3.18,13.68,2.18,9.57,4.39,19.13,6.57,28.7,1.93,8.49,3.9,17,5.72,25.5.74,3.51,1.11,7.1,1.72,11.08L572,841.12c-3.19-1.29-2.76-4.23-3.24-6.56-.89-4.33-1.23-8.77-2.14-13.09-1.58-7.57-3.42-15.09-5.15-22.59H541.84c-4.77,11.25-3.37,24.06-8.18,36l-12-.95c-.35-1.83-1.2-3.68-.94-5.36,1.17-7.5,2.47-15,4.07-22.39,3.53-16.41,7.33-32.76,10.89-49.16,1.24-5.71,2.12-11.5,3.26-17.83l7.86,6c3.18-2.88-2.58-4-1-6.84a17.06,17.06,0,0,0-2.91.35c-2,.68-2.88-.45-2.78-2.05a12.67,12.67,0,0,1,1.42-4.87c.93-1.75,2.2-3,.9-5.39-.66-1.21.35-3.34.66-5,.41-2.3,1-4.57,1.29-6.88a62.43,62.43,0,0,0,0-6.45c3.93-4.26,6.33-4.74,9.74-1.57l2.23-1.75c2.47,1.16,3.16,3.54,3.51,5.88.72,4.92,1,9.91,1.78,14.83s1.88,9.94,2.75,14.92c.71,4,1.38,8.1,1.86,12.18.14,1.26-.43,2.62-.67,3.93-.73.59-2.61.74-.55,2.7Zm-7.61,26.81c-2.08-10.24-4-19.67-6.12-30.06a68.15,68.15,0,0,0-2.17,6.68c-.66,3.23-.87,6.57-1.65,9.77-.39,1.59-1.62,3-2.42,4.36a21.35,21.35,0,0,1,.35,4.27,31.55,31.55,0,0,1-1.32,5ZM557.52,762l3.26,1.07-1.89-4.27Zm-.73-2.33c-.35-2-.58-3.32-.82-4.63C555.14,756.58,554.24,758.11,556.79,759.69Zm8.74,3.62c-.31-.54-.52-.91-.74-1.28-.31.26-.83.48-.88.78s.31.76.49,1.14Z"/><path class="cls-1" d="M110.36,635.1c-.27,4.41-.53,8.64-.8,13-6.56,2.89-13.38.46-19.87,1.76a5.9,5.9,0,0,0-.42,1.41c-.24,12.7-.66,25.39-.64,38.08,0,18.58.49,37.15.56,55.73.06,19.37-.16,38.75-.19,58.12,0,8.69.14,17.37.21,26.06,0,2,0,4,0,5.83a18.15,18.15,0,0,1-14-.85c-1.11-2.82-2.25-5.7-.68-8.91a6.62,6.62,0,0,0,.29-2.8q0-17.07,0-34.13c0-4.61,0-9.22,0-13.83-.2-26.68-.45-53.37-.61-80.05-.09-13.34,0-26.68,0-40v-5.39l-16.41-.94V634.54C62.55,632.61,102.91,632.81,110.36,635.1Z"/><path class="cls-1" d="M.09,283.88c4.37-2.51,8.85-1.42,13.62-1.9.8,5.21,1.86,10.16,2.24,15.16.76,9.78,1.47,19.59,1.59,29.39.19,16.78-.17,33.57-.16,50.36,0,23.2.2,46.4.23,69.61,0,3-.43,6-.62,9a34.81,34.81,0,0,0-.17,5.2c.26,2.93.77,5.85,1.25,9.36a172.13,172.13,0,0,1,25.09,1.57c-.25,4.71-.47,8.93-.71,13.58a12.18,12.18,0,0,1-3.36,1.07c-10.15.17-20.32.22-30.37-1.47-5.38-.9-7.57-4-6.7-9.24a85.87,85.87,0,0,0,.77-16.43c-.28-10,0-20,0-29.95,0-2.69,0-5.37,0-8.05q0-49.14,0-98.29a227.91,227.91,0,0,0-2.6-33.92A33.93,33.93,0,0,1,.09,283.88Z"/><path class="cls-1" d="M706.65,515.92l-1.81-.27c.44,2,.85,3.87,1.29,5.88-2.77.3-3-1.47-3.55-2.83-.48-1.2-3.71-.33-1.91-3.19l-7.88,1.35c-.77-2.58-.61-4.92,1.47-7.08,2.45,1,4.72,2.93,8.31,1.4l-3.36-1.72c1-2.12,2.37-4-1.23-4.93-.93-.23-1.39-2.24-2.13-3.4s-1.43-2.92-2.25-3c-4.43-.35-2-4.36-3.47-6.28-.44-.58.94-2.54,1.51-3.92-1.23.18,1.41-4.32-2-2.69-3.67-8.84-7.18-17.76-11.07-26.51-2.63-5.92-5.89-11.55-8.71-17.39-2.26-4.69-4.46-9.43-6.38-14.28-4.35-11-5.81-22.63-7.45-34.26-1.8-12.77,2.33-24.09,7.7-35.15,2.7-5.55,11.56-12,19.34-10,4.39,1.13,9,1,12.85,4.09,4.22,3.42,7.31,7.29,8.38,12.75,1.27,6.53,2.81,13,2.39,19.74-.31,5-1.54,6.11-6.44,5.69-2.32-.19-4.66,0-7.47,0-.34-1.49-1.24-3.12-.91-4.43,1.43-5.71-.84-11-1.63-16.42-.74-5-5.37-7.85-10.26-6.64a5.92,5.92,0,0,0-3.1,2.6,42.17,42.17,0,0,0-6,29.21c1.17,7.51,2.26,15.08,4.17,22.42,1.33,5.1,4,9.86,6.08,14.76.68,1.59,1.54,3.12,2.3,4.68,4.33,8.95,9,17.77,12.89,26.89,3.57,8.27,6.82,16.71,7.92,25.81.55,4.55,1.88,9,2.48,13.55.26,2,1.77,4.67-1.6,5.85-.14.05-.19,1,0,1.29C706.93,512.53,707,512.52,706.65,515.92Z"/><path class="cls-1" d="M487.48,552.66c-3.59,2.71-8.47,1.1-12.38,2.55-3.14-2.8-2.88-6.17-2.77-9.45.09-2.84.46-5.67.5-8.51.15-11.75.2-23.5.35-35.25.29-23,.64-46,.92-69,0-3.33-.31-6.67-.27-10,.09-6.45,5.54-9.92,11.73-8.23,9,2.47,14.44,8.95,18.92,16.38,5.06,8.41,8.25,17.44,7.52,27.54-.76,10.41-4.18,19.47-12.68,26.05a58.91,58.91,0,0,1-8.15,5.72c-2.39,1.27-3.06,3-3.05,5.35,0,3,.07,6,0,9.06-.16,5.06-.55,10.12-.59,15.18C487.41,530.81,487.48,541.53,487.48,552.66Zm1.41-78.86c12-5.8,10.05-29.7,0-37.61Z"/><path class="cls-1" d="M482.18,718.31c.44,3.18,1.48,5.83,5.3,6,0,7.71,0,15.35,0,23,0,4.1.39,8.2.29,12.3,0,1.58-.91,3.14-1.54,5.13,1.83.64,2.09,2.75,2.17,4.92.29,7.41.6,14.82.83,22.23.1,3.44-.1,6.9.09,10.33.33,6,.86,12,1.3,18,6.48,1.31,12.44-1.57,18.61,0,.39,4.49.76,8.72,1.11,12.77-2.64,2.8-5.84,2.77-9,2.91-3.47.17-6.94.62-10.41.56-4.41-.06-8.82-.51-13.43-.8-1.42-2.73-1.22-5.48-1-8.52.32-5.18-.27-10.43-.56-15.64-.15-2.69-.48-5.36-.73-8,0-.48-.26-1.08-.05-1.41,1.92-3.12.08-6.2-.05-9.29s-.34-6.34-.42-9.51c-.05-2,.06-4,.13-6a9.29,9.29,0,0,0,.18-1.86,115.4,115.4,0,0,1-1.44-30.21c.16-2.32-.29-4.69-.34-7-.09-4.26-.17-8.55,3.92-11.72l-3.45-2c.29-6.09.64-12.23.83-18.37.09-2.8-.19-5.61-.22-8.42-.08-6.75.05-13.51-.25-20.25-.12-2.65.73-3.86,3.44-3.92.1-2.73.85-5.07-2.24-6.75-1.83-1-1.73-4.52-.24-6.44.54-.69,1.56-1,2.92-1.81-6-3.72-3.7-8.87-4.37-13.18-.42-2.7-1.33-5.8,1-8.56.5-.6-.67-2.59-1.18-4.3,2.09-.49,1.65-3.89,4.48-4.09.71,0,1.63-.82,2.06-.57,2.2,1.24,4.24,0,6.81-.49a42.15,42.15,0,0,1,.44,6.12c-.15,2.14-1.63,4.54-1,6.28.72,2,.47,3.7.75,5.46.47,2.93.23,5.77.4,8.64.36,6.2.8,12.39,1.17,18.59a13.16,13.16,0,0,1-.18,2.21l-4.73.42,3.87,4.21-6.91,1.67,3.29,3c1.15-1,2.21-2,3.91-3.52,1.48,10.68-.38,20.41.29,29.9-3.51,1.13-6.08,4-10.17,2.22.57,2.55.23,4.63,2.84,5Zm-6.83-21.55,7.83,2.56.56-2.4c-1.17-.37-2.29-.41-2.91-1-2-1.86,1.57-2.06,1.4-3-1.92-1.18-3.36-2.23-5-3-1.15-.55-2.26-.24-2.24,1.35S475.23,694.72,475.35,696.76Zm5.86-61.9-4.87,4.38c1.62,2.09,3.2.08,4.87.33Zm5.55,38.53c-3.59-3.22-3.59-3.22-6.43-1Zm-4.61-24.15-.27-1.16c-.8.25-1.61.48-2.39.77a2.83,2.83,0,0,0,.14.77C480.47,649.52,481.31,649.38,482.15,649.24Z"/><path class="cls-1" d="M427.05,782.22l2.48-.53v35.08l17.21-.85c.59,4.87,1.11,9.06,1.59,13a10.09,10.09,0,0,1-7.69,2.87c-6,0-12.05,0-18.08,0a21.52,21.52,0,0,0-2.78.19c-3.34.43-4.82-.52-4.76-4s-1-7,1-10.25a1,1,0,0,0,.14-.81c-2.38-4.38-.73-9-.75-13.48,0-3.79-.71-7.62-.29-11.34a78,78,0,0,0,.18-9.9c0-2.78.23-5.44-.4-8.29s-.21-6-.23-9c-.08-9.79-.09-19.57-.26-29.36-.22-12.8-.57-25.61-.88-39.11,1.72-.58,3.71-1.67,5.78-1.84,6.94-.58,13.91-.88,20.88-1.15a45.7,45.7,0,0,1,5.76.47c.34,4.44.65,8.52,1,13-5.47,3.66-12.17,1.63-18.57,3.35a434.93,434.93,0,0,0,1.17,45.73c2.61,0,5.09-.06,7.57,0,2.78.08,3.59,1.12,4.13,4,.48,2.56,1.37,5.05,2.14,7.79-.75.4-1.8.62-1.95,1.11-.68,2.25-2.42,2.07-4.12,2.08-2.65,0-5.3,0-8.22,0,0,4.27.52,8.08-1.91,11.3l-3.43-.67c-.21,2.69,1.54,2.36,2.84,2.46A10.63,10.63,0,0,0,427.05,782.22Z"/><path class="cls-1" d="M134,85.35c9-1.12,18.08-.95,27.17-.58.62,4,2.38,7.22.88,11.09-1.26,3.27-1.55,4.17-4.81,4.18-3.62,0-7.24,0-10.81,0-1.14,5.85,0,33,1.49,39.34l10.92.64c-.27,5-.52,9.48-.76,13.86l-11,.84c-1,14.92-.57,29.73-.57,44.67l14.11.9v13c-1.58,1.34-3.42,1.58-5.82,1.43-5.83-.38-11.71-.1-17.57-.07-6.3,0-7.69-.4-6.47-8a91,91,0,0,0,.91-16.4c-.12-5.5.22-11,.36-16.49a6.39,6.39,0,0,0,.12-1.42c-1.63-7.13.59-14.19.35-21.29-.34-10.12-.75-20.25-1-30.37-.23-8.23-.18-16.47-.5-24.69C130.79,92,132.75,88.85,134,85.35Z"/><path class="cls-1" d="M63.46,354.67c3.05-3.6,5.89-4.14,9.25-3.34,1.24.3,2.67-.23,4.56-.44a46.54,46.54,0,0,1,.78,6.13c-.1,15.21-.46,30.42-.4,45.64,0,7.7.79,15.4,1.15,23.11.43,9.18.71,18.37,1.22,27.55.47,8.53,1.2,17.05,1.73,25.58.16,2.51,0,5.05,0,7.34-4.08,3.43-8.51-.9-12.82,1.05-2.75-3.5-1.89-8.05-2.21-12.15-1-12.78-1.71-25.6-2.18-38.41-.56-15.21-.87-30.44-1.08-45.65C63.32,378.72,63.46,366.36,63.46,354.67Z"/><path class="cls-1" d="M695.49,536.19l-.78,1.53c2.95-.52,3.17,2.73,6.19,3.48l-4.31,2.28,2.95.61c-.29,2-.55,3.83-.86,6l-3.9-1.81c-.27,2.31,4.18,2.79,1.76,5.9-1.41-.15-1.95-4.46-4.18-1.47a3.65,3.65,0,0,0-.23,3c.22.6,1.46.83,2.22,1.21-1.66,8.19-16.41,17.46-25.65,13.64-5.78-2.39-11.83-5-13.74-11.69-.79-2.78-2.33-5.1-3.15-7.74a44.77,44.77,0,0,1-1.9-8.82c-.33-3.39-.08-6.82-.08-11,3.49.3,6.71.58,9.94.82a2.36,2.36,0,0,0,1.43-.23c1.49-1,2.18.05,2.37,1.12a90.3,90.3,0,0,1,1.2,9.41c.06.86-.82,1.77-1.07,2.28a11.1,11.1,0,0,1,2.09,2.45c1.15,2.72,1.27,5.88,4.15,7.76,3.09,2,5.34,2.29,8.17-.06a30,30,0,0,0,4.66-5.31c2.05-2.74,3.14-3,5.73-.9,1.08.88,2.12,1.8,3.1,2.63,2.27-1.28,1.56-2.49.3-3.49-.84-.67-2-1-2.9-1.55a23,23,0,0,1-2.27-1.92,8.83,8.83,0,0,1,2.75-7.92c1.62-1.69,3.8.61,4.76-1.54Zm-34.56,7.38,1.23-.28c-.16-1.14-.33-2.27-.5-3.4l-1.07.17Z"/><path class="cls-1" d="M100.18,317.22c-3.45,5.54-6.87,11.21-10.51,16.73A9.68,9.68,0,0,1,86,336.76a2.69,2.69,0,0,1-2.5-.31c-2.57-2.56-5.7-4.41-8.87-7.14a61.71,61.71,0,0,1,3.63-6.89c3-4.3,6.18-8.47,9.46-12.56a3.18,3.18,0,0,1,2.9-.79c3,1.46,6.68,1.94,8,5.71A15.93,15.93,0,0,0,100.18,317.22Z"/><path class="cls-1" d="M552.75,70.08c3.06-2.66,6-2.5,9.06-.91l3.68-2.62a32.52,32.52,0,0,1,.9,4.89c.17,6.83.3,13.65.28,20.48,0,14-.3,28-.29,41.93,0,33,.23,66,.28,99,0,11.44-.22,22.87-.28,34.31,0,4.29.25,8.57.21,12.86a46.26,46.26,0,0,1-.85,5.86H553c-1.43-1.72-1.64-3.84-1.62-6.12.07-8.4,0-16.81.07-25.21.09-6.49.44-13,.64-19.48.13-4,.28-7.93.26-11.9,0-6.95-.21-13.9-.29-20.85-.22-19.79-.92-39.59-.51-59.36.47-22.52.82-45,.84-67.54C552.39,73.65,552.62,71.92,552.75,70.08Z"/><path class="cls-1" d="M552.91,27.63,566.5,26.3c3.52,7.22,1.73,14.61,1.73,22.31-4.45,0-8.23.14-12-.1a4,4,0,0,1-2.72-2C552.19,43.68,551.94,31.12,552.91,27.63Z"/><path class="cls-1" d="M695.49,536.19l-1.25-1.31c-.41-.81-.62-1.86-1.26-2.37-3.92-3.16-4-3.82-.79-8.38l3.16,1.61-1.14-3.93,2.43.83c-.44,4.75-.44,4.75,2.84,5.73-.43-2.27-.82-4.37-1.21-6.46l7.09,3c-.48,1.75-1.19,4-1.69,6.35s-.75,4.57-1.08,6.68Z"/><path class="cls-1" d="M482.18,718.31l-1.56-.9c.32-2.68,1.73-2.1,3.28-1.1l4.22,2.67v2.6Z"/><path class="cls-1" d="M692.79,506.24c-.31-1.61-.61-3.21-.95-4.95C694.64,502.38,694.64,502.38,692.79,506.24Z"/><path class="cls-1" d="M109.35,484.14c-.54.53-1.08,1.07-1.65,1.57,0,0-.62-.52-.59-.58.39-.63.85-1.22,1.3-1.83Z"/><path class="cls-1" d="M92.2,121.87a17.68,17.68,0,0,0-3.33,0c-3.5.64-5.74-1.63-6.59-4.12-.93-2.75-2.78-4.66-4.13-7-1.15-2-1.89-4.26-3.11-6.22a23.32,23.32,0,0,0-3.66-4.23c-1.53-1.48-3.25-2.77-4.76-4l2-4.47c-4.21,1.71-5.73.14-5.13-4.78-2.78-.71-3.76-3-4.57-5.42-2.36-7-4.84-13.86-6.91-20.89a36.6,36.6,0,0,1-1.23-9.51c-.17-8.77-.31-17.65,2.52-26C55.61,18.27,58,11.38,64,6.31c7.35-6.25,15.68-7.74,24.35-5,9.61,3.06,16.43,9.64,18.55,20a48.29,48.29,0,0,1,.86,9.38c0,4.52-.31,9.05-.52,14.22-1.95.12-4.56,1-6.48.18-1.47-.6-2.22-.05-3.3.09a3.36,3.36,0,0,1-4-2.81c-.18-1.88-.71-4.71.25-5.51,2.06-1.71-.42-2.39-.07-3.81,2.43-1.94,2.5-4,1.29-7.48a16.39,16.39,0,0,0-10.29-10.5A20.35,20.35,0,0,0,77,13.67c-1.12,0-3.73,0-3.48,2.83.06.69-1,1.56-1.62,2.22-5.34,5.3-5.37,12.4-6.48,19.12a62.79,62.79,0,0,0-1,9.25c-.14,7.48,2.25,14.38,5.32,21.08.66,1.44,1.83,2.85,1.89,4.32.27,6.69,4.5,11.35,8,16.41,1.91,2.78,3.94,5.47,5.32,7.38-.54,3.41-1,6-1.44,9,7.42,1,12.61,4.71,14.77,12l-1.67-.18.42,3.14.55-.07.54-3c.76.42,1.89.64,2.22,1.27,2.36,4.62,4.73,9.25,6.74,14,.87,2,2.45,4.26.86,6.73,2.72,2.77,1.26,6.58,2.43,9.83A38.83,38.83,0,0,1,112,160c.17,3.76-.67,7.58-.44,11.33.41,6.41-1.74,12.19-4,17.85-2.53,6.2-6.05,11.9-12,15.52a39.3,39.3,0,0,1-25.41,5.79c-2.47-.29-5-1.95-7.05-3.53-5-3.84-9.7-8.2-11-14.7-1.32-6.8-2-13.72-2.92-20.6-.34-2.63-.08-5,2.89-6.28.48-.2.61-1.26.85-1.82a16.6,16.6,0,0,0,3.39,2.4c.28.11,1.32-1.64,2.1-2.65a1.53,1.53,0,0,1,.57.13c4.83,2.23,5.57,5.64,5.13,11-.49,6.1.22,12.65,4.16,18.18,2.9,4.07,4.2,4.72,9,3.71,2.24-.47,4.58-.47,6.85-.87a4.91,4.91,0,0,0,2.36-1.31A38.9,38.9,0,0,0,95,182.41a27.08,27.08,0,0,0,2.21-12.53c-.1-5,.48-10.1-.14-15-.77-6.09-2.49-12.06-3.72-18.1-.23-1.1-.5-2.54,0-3.38,1.34-2.24.45-3.86-1.3-4.81s-2.38-2.82-3.88-3.94l.69-.86c1.23.91,2.42,1.9,3.73,2.69.25.15,1-.53,1.5-.82,2.62-1.64,1-3.63.81-5.61C92.92,120.43,92.92,120.43,92.2,121.87Zm-19.74,76.5L72,199.55c1.5,0,2.31,2.53,4.8.45Zm33.26-21.19.94-.27c-.1-1.13-.19-2.27-.3-3.57l-3.18.21Z"/><path class="cls-1" d="M90.07,105.9l-1.55-3.23.58-.47c.44.4,1.08.73,1.26,1.22S90.26,104.56,90.07,105.9Z"/></g></g></svg>